<svg width="24" height="24" viewBox="0 0 24 24" fill="none" xmlns="http://www.w3.org/2000/svg">
<path fill-rule="evenodd" clip-rule="evenodd" d="M6.7311 3.97303C8.971 -0.125118 14.8565 -0.125129 17.0964 3.97302L22.8177 14.4408C24.9689 18.3767 22.1204 23.1797 17.635 23.1797H6.1924C1.70702 23.1797 -1.14142 18.3767 1.00979 14.4408L6.7311 3.97303ZM15.6156 4.7823C14.0157 1.8551 9.8117 1.8551 8.2118 4.7824L2.49055 15.2501C0.953969 18.0615 2.98857 21.4922 6.1924 21.4922H17.635C20.8389 21.4922 22.8735 18.0615 21.3369 15.2501L15.6156 4.7823Z" fill="#79777A"/>
<path d="M10.5938 16.9219C10.5938 16.1452 11.2233 15.5156 12 15.5156C12.7767 15.5156 13.4063 16.1452 13.4063 16.9219C13.4063 17.6985 12.7767 18.3281 12 18.3281C11.2233 18.3281 10.5938 17.6985 10.5938 16.9219Z" fill="#79777A"/>
<path fill-rule="evenodd" clip-rule="evenodd" d="M12 14.25C11.534 14.25 11.1563 13.8722 11.1563 13.4062V8.625C11.1563 8.159 11.534 7.7812 12 7.7812C12.466 7.7812 12.8438 8.159 12.8438 8.625V13.4062C12.8438 13.8722 12.466 14.25 12 14.25Z" fill="#79777A"/>
</svg>
