<svg width="207" height="221" viewBox="0 0 207 221" fill="none" xmlns="http://www.w3.org/2000/svg">
<g opacity="0.16">
<path d="M100.853 74.6836C115.715 78.6518 125.221 62.5379 125.204 50.9498C125.087 34.0242 108.134 22.4782 91.4427 20.3695C17.8575 11.0878 6.34851 115.35 29.7556 157.338C36.7478 169.894 45.0074 175.162 57.8393 181.81C67.5783 186.887 77.964 190.968 87.9076 195.631C102.095 202.486 119.598 205.212 135.744 200.625C151.889 196.039 164.878 185.371 176.402 174.192C191.469 159.532 196.416 143.918 192.914 124.476C190.791 112.731 186.878 101.011 174.706 95.3431C163.402 90.0668 151.725 96.5231 141.884 102.012C130.444 108.299 119.352 116.063 106.98 120.517C96.288 124.349 84.9208 125.883 77.9933 116.496C72.4175 109.026 68.7277 98.0334 71.8975 88.8303C74.1595 82.5068 80.7885 77.7841 87.5046 75.5665C90.3929 74.5709 93.3919 73.9101 96.4312 73.5997C99.4713 73.4929 102.23 75.1764 105.111 74.6386" fill="#79777A"/>
<mask id="mask0_366_58" style="mask-type:alpha" maskUnits="userSpaceOnUse" x="18" y="19" width="176" height="184">
<path d="M100.853 74.6836C115.715 78.6518 125.221 62.5379 125.204 50.9498C125.087 34.0242 108.134 22.4782 91.4427 20.3695C17.8575 11.0878 6.34851 115.35 29.7556 157.338C36.7478 169.894 45.0074 175.162 57.8393 181.81C67.5783 186.887 77.964 190.968 87.9076 195.631C102.095 202.486 119.598 205.212 135.744 200.625C151.889 196.039 164.878 185.371 176.402 174.192C191.469 159.532 196.416 143.918 192.914 124.476C190.791 112.731 186.878 101.011 174.706 95.3431C163.402 90.0668 151.725 96.5231 141.884 102.012C130.444 108.299 119.352 116.063 106.98 120.517C96.288 124.349 84.9208 125.883 77.9933 116.496C72.4175 109.026 68.7277 98.0334 71.8975 88.8303C74.1595 82.5068 80.7885 77.7841 87.5046 75.5665C90.3929 74.5709 93.3919 73.9101 96.4312 73.5997C99.4713 73.4929 102.23 75.1764 105.111 74.6386" fill="#514F43"/>
</mask>
<g mask="url(#mask0_366_58)">
<path d="M-69.2509 57.5034C-59.6879 69.9678 -49.8773 82.2601 -39.9446 94.4352C-30.012 106.61 -19.8895 118.798 -9.7916 130.918C0.306317 143.039 10.5022 155.291 20.5159 167.566C30.194 179.436 39.587 191.531 49.3401 203.339C58.7465 214.735 68.7143 225.817 79.8526 235.819C81.2183 237.055 82.5728 238.33 84.0435 239.461L85.5099 237.845C83.7546 236.44 82.2179 234.818 80.9403 233.022C80.4274 232.348 79.1736 233.185 79.6245 233.89C80.8372 235.917 82.3215 237.788 84.0435 239.461C85.0532 240.377 86.7399 238.957 85.6964 238.021C83.0025 235.496 80.1191 233.139 77.4232 230.606C74.7274 228.072 72.0727 225.457 69.495 222.789C64.2963 217.435 59.3303 211.885 54.4937 206.208C44.6132 194.627 35.3183 182.618 25.7024 170.853C15.6831 158.597 5.53231 146.371 -4.66895 134.273C-14.8702 122.175 -24.968 110.1 -35.0152 97.9411C-45.0625 85.7823 -54.9141 73.6617 -64.586 61.2393C-65.7926 59.6973 -66.993 58.1539 -68.1871 56.6091C-68.7112 55.9292 -69.7599 56.8472 -69.2471 57.5207L-69.2509 57.5034Z" fill="white"/>
<path d="M-27.4335 63.9911C-15.402 75.767 -3.55006 87.6969 8.12246 99.7809C19.795 111.865 31.1991 124.147 42.3349 136.626C47.8545 142.84 53.2928 149.118 58.6497 155.458C64.099 161.905 69.3944 168.457 75.0182 174.757C86.1055 187.121 98.0446 198.79 109.715 210.673C113.508 214.474 116.548 218.749 119.964 222.806C123.23 226.678 126.923 231.008 131.855 233.139C132.795 233.546 133.801 233.818 134.84 233.946C135.318 234.012 135.572 233.468 135.408 233.125C134.325 230.805 133.821 228.294 132.838 225.935C132.682 225.581 132.005 225.82 132.134 226.18C133.01 228.636 133.384 231.229 134.352 233.655L135.084 232.861C129.953 231.931 126.064 227.69 122.907 224.182C119.415 220.269 116.429 215.973 112.894 212.088C110.421 209.36 107.72 206.801 105.114 204.184C102.175 201.216 99.2478 198.275 96.3337 195.362C90.4946 189.471 84.6968 183.544 79.0923 177.466C67.8193 165.243 57.5727 152.224 46.5511 139.801C35.5295 127.378 24.3058 115.333 12.7778 103.429C1.24978 91.5236 -10.6727 79.7508 -22.6681 68.1387C-24.166 66.6609 -25.6826 65.1872 -27.1746 63.7804C-27.2033 63.7507 -27.2441 63.7333 -27.2878 63.7319C-27.3315 63.7305 -27.3747 63.7453 -27.4078 63.773C-27.4409 63.8007 -27.4612 63.8389 -27.4643 63.8794C-27.4673 63.92 -27.4529 63.9594 -27.4242 63.989L-27.4335 63.9911Z" fill="white"/>
<path d="M16.4004 33.0907C28.2097 43.5898 39.6094 54.4653 50.5995 65.7174C61.5896 76.9694 72.2407 88.4559 82.5527 100.177C92.9148 111.932 102.956 123.929 112.774 136.075C122.592 148.221 131.84 160.999 141.536 173.353C146.298 179.409 151.4 185.173 156.432 191.024C160.749 196.039 164.275 201.671 169.192 206.237C170.346 207.321 171.59 208.319 172.913 209.223C174.071 210.007 175.887 208.504 175.076 207.372C173.002 204.485 170.922 201.617 169.013 198.629C167.104 195.642 165.29 192.598 163.415 189.585C163.306 189.432 163.138 189.324 162.943 189.282C162.748 189.239 162.541 189.266 162.361 189.356C162.182 189.446 162.042 189.594 161.97 189.77C161.897 189.946 161.897 190.139 161.969 190.31C164.863 196.727 168.355 202.883 172.406 208.711L174.569 206.86C169.038 203.08 165.282 197.436 161.278 192.361C159.117 189.619 156.735 187.034 154.43 184.442C151.882 181.55 149.409 178.597 146.987 175.605C137.144 163.437 128.089 150.726 118.244 138.549C108.4 126.373 98.3682 114.418 87.9986 102.674C77.629 90.9296 67.1436 79.5543 56.1137 68.4346C45.0837 57.3148 33.7612 46.4765 22.0184 36.011C20.5379 34.701 19.0461 33.3846 17.558 32.0854C16.8498 31.464 15.6677 32.4476 16.3985 33.0821L16.4004 33.0907Z" fill="white"/>
<path d="M65.5446 7.91727C76.4236 19.6036 88.2652 30.5626 98.3692 42.8445C108.675 55.3261 117.999 68.494 127.428 81.5574C132.117 88.0448 136.834 94.5174 141.694 100.886C146.436 107.073 151.357 113.22 156.146 119.396C165.537 131.528 174.96 143.716 186.057 154.559C190.45 158.851 194.991 163.094 199.662 167.127C204.094 170.968 208.977 174.846 214.794 176.791C216.044 177.204 217.344 177.485 218.672 177.627C218.955 177.632 219.233 177.535 219.447 177.356C219.662 177.177 219.795 176.931 219.82 176.669C220.937 171.497 215.504 167.677 212.25 164.398C211.742 163.878 210.918 164.61 211.372 165.152C212.858 166.931 214.497 168.604 215.877 170.487C217.126 172.174 218.266 174.218 217.742 176.404L218.839 175.701C212.923 174.871 207.797 171.101 203.49 167.603C198.915 163.874 194.684 159.781 190.396 155.79C179.12 145.294 169.59 133.338 160.248 121.34C150.621 108.944 140.848 96.6882 131.601 84.0006C122.353 71.3131 113.157 58.3248 103.232 46.0487C93.3067 33.7726 81.8616 22.7353 70.7821 11.3011C69.4027 9.86942 68.0234 8.43775 66.6591 6.98471C66.0429 6.33406 64.9416 7.28175 65.5597 7.94103L65.5446 7.91727Z" fill="white"/>
<path d="M16.0126 57.7089C36.1536 79.3316 56.6343 100.663 76.8597 122.222C86.8 132.822 96.4496 143.667 106.467 154.215C116.484 164.762 126.707 174.812 136.309 185.533C138.552 187.908 140.646 190.401 142.584 192.999C144.189 195.276 145.672 197.625 147.243 199.928C149.922 203.857 153.003 208.81 157.857 210.723C158.547 210.996 159.429 210.079 158.984 209.49C157.527 207.368 155.904 205.352 154.128 203.455C154.003 203.355 153.842 203.302 153.674 203.307C153.507 203.312 153.345 203.374 153.219 203.481C153.094 203.589 153.014 203.733 152.995 203.888C152.976 204.043 153.019 204.196 153.116 204.319C154.661 206.227 156.067 208.231 157.324 210.316L158.667 209.171C154.403 207.209 151.615 202.915 149.157 199.316C146.469 195.113 143.518 191.065 140.319 187.189C130.929 176.494 120.768 166.413 110.821 156.139C100.759 145.701 91.0908 134.905 81.1619 124.356C71.233 113.807 60.9936 103.146 50.8129 92.6166C39.3509 80.8327 27.9735 69.0302 16.7331 57.0891C16.3242 56.664 15.6038 57.2837 16.0033 57.7109L16.0126 57.7089Z" fill="white"/>
<path d="M86.2513 70.2008C98.7577 84.1319 114.256 95.9033 124.309 111.667C126.987 115.63 128.945 119.987 130.108 124.573C130.173 124.763 130.313 124.921 130.501 125.017C130.688 125.114 130.91 125.141 131.124 125.094C131.338 125.047 131.528 124.929 131.658 124.762C131.787 124.596 131.848 124.394 131.827 124.194C131.644 122.914 130.747 122.199 129.961 121.224C129.514 120.672 128.531 121.35 128.878 121.942C129.497 122.716 129.917 123.615 130.108 124.573L131.827 124.194C129.834 115.594 124.339 108.09 118.648 101.353C112.211 93.7324 104.905 86.818 97.7122 79.8336C94.1665 76.3934 90.6189 72.9446 87.3152 69.3065C86.7555 68.6886 85.7273 69.566 86.289 70.1925L86.2513 70.2008Z" fill="white"/>
<path d="M100.89 -8.57527C111.9 2.85909 122.936 14.2879 133.997 25.7112C144.994 37.0279 156.08 48.2679 167.254 59.4311C178.429 70.5944 189.849 81.6854 201.517 92.7038C213.131 103.704 224.798 114.584 236.172 125.745C241.926 131.384 247.628 137.057 253.28 142.766C258.192 147.713 262.776 153.049 268.322 157.386C269.643 158.452 271.057 159.416 272.552 160.269L273.557 158.348C273.864 158.398 273.661 158.415 273.427 158.16C273.194 157.904 273.03 157.741 272.817 157.535C272.321 157.029 271.82 156.543 271.3 156.061C270.78 155.579 269.441 156.209 269.969 156.951C270.658 157.929 271.456 160.031 272.814 160.383C273.077 160.452 273.361 160.431 273.615 160.322C273.869 160.214 274.076 160.027 274.197 159.794C274.319 159.561 274.348 159.298 274.279 159.054C274.209 158.809 274.046 158.599 273.819 158.462C270.888 156.492 268.133 154.313 265.576 151.944C263.08 149.556 260.666 147.051 258.258 144.571C252.816 138.964 247.217 133.49 241.636 128.012C230.247 116.827 218.631 105.864 206.944 94.9792C195.256 84.0947 183.89 73.1485 172.593 62.0243C161.297 50.9 150.286 39.8213 139.282 28.6416C128.278 17.4618 117.185 6.01239 106.181 -5.34805L102.049 -9.61713C101.903 -9.74396 101.709 -9.81332 101.506 -9.81126C101.302 -9.8092 101.104 -9.7359 100.952 -9.60605C100.799 -9.4762 100.704 -9.29947 100.684 -9.11147C100.665 -8.92347 100.722 -8.73818 100.846 -8.59287L100.89 -8.57527Z" fill="white"/>
<path d="M173.963 -35.9297C192.963 -16.1797 211.339 4.05115 229.881 24.1823C248.266 44.1851 266.747 64.1307 285.975 83.4417C291.414 88.9023 296.918 94.3183 302.489 99.6898C308.052 105.045 313.602 110.475 319.477 115.544C320.315 116.263 322.054 115.347 321.307 114.327C319.752 112.148 317.784 110.253 315.493 108.729C314.686 108.193 313.529 109.424 314.321 110.027C316.289 111.526 317.973 113.316 319.311 115.327L321.141 114.111C316.156 109.37 310.982 104.797 305.99 100.066C300.997 95.336 296.018 90.5755 291.182 85.7475C281.428 76.1152 271.841 66.3438 262.421 56.4332C243.625 36.7559 225.297 16.7041 206.739 -3.18834C196.234 -14.4326 185.662 -25.6624 174.903 -36.7153C174.377 -37.2684 173.441 -36.4655 173.967 -35.9124L173.963 -35.9297Z" fill="white"/>
</g>
</g>
</svg>
