<svg width="193" height="221" viewBox="0 0 193 221" fill="none" xmlns="http://www.w3.org/2000/svg">
<g opacity="0.15">
<path d="M132.776 88.9745C159.678 134.693 212.899 153.265 167.193 180.16C145.239 193.079 119.053 196.747 94.3946 190.358C69.7365 183.968 48.6263 168.046 35.7081 146.092C22.7899 124.138 19.1219 97.9518 25.5109 73.2937C31.9 48.6355 47.8229 27.5252 69.7766 14.607C115.495 -12.2952 105.877 43.2619 132.776 88.9745Z" fill="#979797"/>
<mask id="mask0_366_57" style="mask-type:alpha" maskUnits="userSpaceOnUse" x="22" y="7" width="164" height="187">
<path d="M132.776 88.9745C159.678 134.693 212.899 153.265 167.193 180.16C145.239 193.079 119.053 196.747 94.3946 190.358C69.7365 183.968 48.6263 168.046 35.7081 146.092C22.7899 124.138 19.1219 97.9518 25.5109 73.2937C31.9 48.6355 47.8229 27.5252 69.7766 14.607C115.495 -12.2952 105.877 43.2619 132.776 88.9745Z" fill="#231F20"/>
</mask>
<g mask="url(#mask0_366_57)">
<path d="M6.68965 205.236C13.9381 207.617 21.6039 208.461 29.1972 207.715C36.3423 207.032 43.7016 204.805 49.0976 199.902C55.4591 194.14 58.8675 185.642 60.4438 177.419C61.2421 173.201 61.6665 168.922 61.7122 164.631C61.781 160.908 61.1576 157.214 61.1023 153.5C61.0471 149.785 61.4263 145.46 64.2954 142.687C65.9788 141.116 68.0241 139.984 70.2501 139.393C75.1789 137.988 80.5848 138.696 85.4229 139.972C97.5544 143.146 108.976 150.093 118.405 158.199C122.663 161.712 126.409 165.801 129.535 170.35C130.736 172.102 131.691 174.012 132.372 176.024C132.498 176.439 132.614 176.864 132.71 177.299C132.777 177.499 132.815 177.709 132.822 177.92C132.762 178.352 132.608 178.339 132.169 178.63C130.787 179.556 129.292 180.301 127.721 180.848C115.26 184.878 103.539 172.892 101.24 161.534C100.574 158.469 100.633 155.291 101.412 152.253C102.429 148.987 104.163 145.988 106.487 143.476C111.436 137.606 117.33 132.598 122.219 126.664C126.833 121.056 130.547 114.44 130.262 106.977C130.029 100.567 126.785 95.164 122.303 90.7901C117.557 86.2154 111.924 82.7074 106.956 78.3968C104.464 76.3265 102.278 73.9141 100.462 71.2315C99.1331 69.0109 98.065 66.6445 97.2788 64.1792C95.2395 58.3548 93.7508 52.3342 91.3478 46.6371C89.2511 41.6781 86.2627 36.3829 81.1032 34.0698C75.6152 31.6579 69.1138 33.2604 64.2966 36.4413C58.7372 40.1346 54.6266 45.8558 51.8733 51.8599C49.3034 57.4341 47.5246 63.7656 48.2053 69.9466C49.0761 76.6125 51.4268 82.9996 55.0853 88.6409C58.7336 94.5363 63.6269 100.083 69.8422 103.355C72.646 104.848 75.7525 105.686 78.9276 105.806C82.1026 105.925 85.2634 105.323 88.1715 104.044C99.6147 99.2214 103.634 86.7215 107.578 76.0254C109.632 70.4519 111.781 64.7565 115.348 59.9536C117.411 57.2365 119.991 54.9541 122.94 53.2382C125.89 51.5223 129.15 50.4068 132.533 49.956C148.252 47.781 161.909 60.597 170.1 72.5384C173.71 77.9323 176.647 83.7473 178.843 89.8539C180.751 94.9641 182.711 100.044 184.516 105.194C186.77 111.652 188.859 118.178 190.511 124.821C192.264 131.33 193.297 138.011 193.591 144.745C193.72 150.059 193.199 155.878 190.204 160.454C188.079 163.746 184.394 166.536 180.283 165.583C176.172 164.63 172.852 161.082 170.31 157.869C166.905 153.397 163.994 148.57 161.627 143.473C159.166 138.41 157.012 133.203 155.175 127.882C152.374 120.919 151.046 113.452 151.275 105.952C151.217 101.339 151.537 96.7289 152.232 92.168C152.875 87.7754 154.017 83.4706 155.638 79.3371C157.382 75.1768 159.747 71.3046 162.652 67.852C168.08 61.2062 174.7 55.4384 178.845 47.82C182.467 41.1717 184.273 33.3554 182.45 25.8845C179.048 11.7003 164.873 2.92855 151.721 -0.883393C144.145 -2.9297 136.309 -3.85291 128.465 -3.6235C124.218 -3.5962 119.98 -3.23644 115.79 -2.54756C112.135 -1.91366 108.197 -1.0477 104.982 0.894048C101.767 2.83579 99.6149 5.88025 97.2707 8.73549C94.6519 11.9261 91.5912 14.4585 87.4081 15.1652C83.0595 15.8895 78.5476 14.8365 74.4118 13.543C70.276 12.2494 66.2076 10.658 62.1025 9.37532C52.6608 6.42618 42.7753 4.03609 32.8137 4.64635C23.9972 5.20137 15.5237 8.26621 8.39413 13.4789C-2.88488 21.7083 -10.466 34.2662 -14.2518 47.5543C-18.0717 61.0068 -18.3056 75.9077 -13.4716 89.1384C-11.3234 95.5206 -7.65353 101.284 -2.77867 105.933C2.49491 110.553 8.72295 113.954 15.4619 115.894C28.7545 119.915 44.4997 119.679 56.8065 112.81C69.9891 105.462 76.6959 91.6188 82.6987 78.4541C85.7757 71.6927 88.8024 64.8581 92.8198 58.5885C94.6901 55.4843 96.9754 52.6497 99.6124 50.1629C102.455 47.6818 105.736 45.7519 109.286 44.4722C123.909 39.0277 140.955 42.1586 153.892 50.3505C168.257 59.4455 177.584 74.193 184.051 89.5684C187.64 98.1034 190.49 106.975 193.279 115.805C196.418 125.27 198.789 134.973 200.371 144.818C201.948 154.575 201.81 164.531 199.962 174.24C197.896 183.68 193.965 192.613 188.401 200.515C179.851 213.024 167.326 223.851 151.305 223.359C134.8 222.858 121.299 212.201 111.621 199.695C101.943 187.19 95.28 172.399 90.7291 157.255C85.4293 139.621 78.9891 122.266 76.5817 103.953L76.0744 104.594C79.3306 104.891 82.2273 106.771 84.9213 108.45C87.441 110.239 90.1215 111.791 92.9281 113.085C99.8028 115.863 107.19 117.134 114.329 119.009C124.784 121.923 134.748 126.373 143.895 132.212C153.254 137.996 162.302 144.93 169.15 153.608C175.353 161.469 179.241 171.113 176.455 181.14C173.669 191.166 165.367 199.151 156.619 204.498C147.87 209.845 137.873 213.518 127.596 213.864C117.264 214.116 107.161 210.808 98.9811 204.496C90.6017 198.245 83.9638 189.911 77.8848 181.495C74.7548 177.157 71.7609 172.718 68.7251 168.309C65.5083 163.638 62.3579 158.732 58.4814 154.576C56.1229 152.056 52.4002 148.512 48.5949 149.442C45.3498 150.217 43.8063 153.871 42.9483 156.733C41.6149 161.793 40.9836 167.012 41.0723 172.244C41.0105 176.584 41.213 180.925 41.6786 185.242C42.6309 194.037 44.5828 202.924 48.5751 210.868C52.2802 218.157 58.0849 224.659 66.1418 227.139C74.3525 229.674 83.9605 228.087 91.3876 223.872C106.429 215.351 112.776 196.994 116.321 181.102C118.229 172.152 119.616 163.098 120.475 153.988C121.344 145.504 122.183 136.979 122.732 128.469C123.526 116.219 122.89 103.715 117.939 92.3393C115.362 86.4038 111.794 80.949 107.389 76.2076C102.976 71.4637 97.8162 67.5002 92.8131 63.4262C87.81 59.3522 83.085 55.3039 79.3082 50.221C78.8148 49.5517 77.6469 50.1903 78.1608 50.8703C85.8352 61.2033 97.392 67.5543 106.149 76.8346C114.875 86.273 120.202 98.3499 121.287 111.154C122.32 121.746 121.061 132.347 120.154 142.903C119.42 151.328 118.624 159.761 117.344 168.134C116.079 177.311 113.935 186.346 110.942 195.113C108.133 202.994 104.243 210.782 98.3201 216.81C92.3483 222.95 84.2533 226.576 75.6931 226.944C71.485 227.155 67.2893 226.33 63.4746 224.542C59.6599 222.754 56.3427 220.058 53.8143 216.689C48.38 209.699 45.6538 200.819 44.0786 192.218C42.3594 183.006 41.9771 173.594 42.9433 164.274C43.3768 160.362 43.977 155.246 46.7789 152.204C49.5807 149.161 53.1387 151.558 55.5352 153.696C59.8202 157.53 62.9994 162.56 66.2561 167.304C69.2723 171.65 72.2055 176.027 75.3049 180.344C86.7228 196.451 100.974 213.383 122.048 215.247C132.075 216.124 142.094 213.554 151.061 209.202C160.029 204.85 169.016 198.29 174.299 189.465C176.729 185.481 178.149 180.964 178.436 176.306C178.724 171.649 177.87 166.991 175.949 162.738C171.747 153.274 163.878 145.671 155.839 139.395C147.492 132.916 138.395 127.463 128.745 123.154C123.451 120.806 117.959 118.933 112.333 117.559C108.809 116.69 105.262 115.892 101.75 114.95C98.1517 114.129 94.6568 112.909 91.3299 111.312C86.4135 108.694 81.893 104.196 76.1124 103.656C75.9783 103.653 75.8487 103.704 75.7521 103.797C75.6556 103.89 75.5999 104.018 75.5974 104.152C76.4565 113.524 78.9899 122.782 81.5899 131.783C84.2478 141.002 87.2378 150.125 89.9578 159.335C94.2734 174.482 101.399 188.683 110.964 201.2C120.553 213.476 133.792 223.737 149.865 224.807C157.225 225.266 164.554 223.516 170.911 219.781C177.312 215.855 182.87 210.698 187.262 204.61C192.906 197.289 197.187 189.014 199.904 180.18C202.517 170.912 203.396 161.242 202.495 151.655C201.536 141.822 199.592 132.111 196.693 122.666C193.984 113.394 190.945 104.147 187.52 95.1098C181.713 79.7879 173.631 64.692 160.81 54.1298C148.772 44.2319 133.39 39.3163 117.848 41.3914C110.708 42.3529 103.578 45.0373 98.2732 50.0246C92.9685 55.012 89.4803 61.6833 86.3388 68.0309C79.8199 81.1963 74.889 96.124 63.7804 106.306C52.6717 116.488 36.8242 118.908 22.4221 116.28C15.1867 115.061 8.29465 112.314 2.2058 108.222C-3.5144 104.202 -7.99563 98.6635 -10.7315 92.2321C-16.5796 79.1374 -16.9482 63.8848 -13.4941 50.1161C-10.04 36.3474 -2.53988 23.1485 9.03242 14.6873C16.5273 9.17216 25.5399 6.09723 34.845 5.88047C44.9543 5.65458 55.0412 8.31656 64.551 11.4939C72.1726 14.069 80.746 18.1987 88.9603 16.0708C92.7043 15.1084 95.526 12.6642 97.9231 9.73776C100.32 6.8113 102.559 3.53118 105.99 1.63469C109.421 -0.261812 113.669 -1.12197 117.55 -1.71044C121.954 -2.35245 126.401 -2.64979 130.851 -2.59955C138.84 -2.69157 146.792 -1.49987 154.402 0.929964C167.994 5.51333 182.206 16.1735 182.382 31.8351C182.477 40.6562 178.209 48.7263 172.657 55.3801C167.105 62.034 160.422 67.8829 156.387 75.6582C152.352 83.4334 150.837 92.2351 150.4 100.82C150.09 107.003 150.084 113.45 151.531 119.47C154.044 129.528 157.833 139.225 162.807 148.323C165.223 153.1 168.265 157.534 171.853 161.507C174.455 164.237 177.863 166.972 181.825 167.045C185.787 167.118 189.414 164.091 191.427 160.734C194.186 156.133 194.713 150.48 194.645 145.218C194.367 131.803 190.103 118.408 185.701 105.855C183.866 100.664 181.877 95.4698 179.929 90.2762C177.8 84.3255 175 78.6364 171.583 73.3188C163.789 61.591 151.382 49.3345 136.338 49.0567C129.439 48.9596 122.764 51.5005 117.679 56.1595C113.477 60.1151 110.85 65.3891 108.689 70.6615C104.362 81.3608 101.53 94.9863 91.0854 101.643C88.3082 103.501 85.1161 104.648 81.7906 104.982C78.4651 105.316 75.1084 104.828 72.0163 103.56C65.2464 100.701 59.925 94.8574 56.0741 88.7519C52.4343 82.9598 49.4941 76.1698 49.0228 69.2706C48.5761 62.7226 50.7032 55.9746 53.72 50.2333C56.9277 44.2169 61.5656 38.4435 67.8841 35.5689C73.5676 32.9816 80.3944 33.3244 84.9447 37.8852C89.2821 42.2357 91.3856 48.5048 93.231 54.2122C94.9986 59.6602 96.326 65.4716 99.0605 70.5456C101.975 75.9529 107.146 79.8856 111.909 83.5323C117.09 87.4755 122.726 91.3653 126.287 96.9393C128.182 99.9921 129.279 103.471 129.477 107.058C129.676 110.645 128.971 114.224 127.426 117.467C124.196 124.679 118.239 130.335 112.759 135.876C108.078 140.607 102.421 145.691 100.667 152.353C99.1458 158.132 100.445 164.335 103.281 169.504C106.068 174.745 110.551 178.886 115.998 181.25C118.656 182.349 121.546 182.77 124.407 182.475C127.268 182.181 130.011 181.18 132.389 179.562C132.755 179.311 133.432 178.983 133.585 178.553C133.592 178.1 133.513 177.651 133.351 177.228C133.149 176.366 132.875 175.522 132.53 174.706C131.657 172.654 130.538 170.715 129.2 168.93C125.845 164.448 121.927 160.417 117.541 156.935C108.116 149.169 96.8755 142.463 84.9253 139.53C80.1875 138.411 75.0385 137.769 70.2665 139.063C68.2464 139.591 66.3565 140.529 64.714 141.818C63.5166 142.847 62.5394 144.107 61.8411 145.523C61.1427 146.938 60.7375 148.48 60.6499 150.056C60.2171 153.927 60.7539 157.836 61.0023 161.709C61.2226 165.815 61.0393 169.934 60.4552 174.005C59.2564 183.029 56.1656 192.214 49.6748 198.83C44.3415 204.25 36.6482 206.676 29.2343 207.385C21.6956 208.123 14.0857 207.28 6.8918 204.909C6.52243 204.789 6.34647 205.374 6.71565 205.504L6.68965 205.236Z" fill="white"/>
</g>
</g>
</svg>
