<svg width="99" height="45" viewBox="0 0 99 45" fill="none" xmlns="http://www.w3.org/2000/svg">
<g opacity="0.16">
<path d="M63.7476 43.3155C63.4918 49.4797 70.6301 51.7943 75.1649 50.7754C81.7806 49.2519 84.8201 41.6069 84.1882 34.8887C81.3961 5.27181 39.5755 9.87068 25.1825 22.7003C20.8777 26.5339 19.5369 30.2273 18.0547 35.8311C16.9175 40.087 16.227 44.509 15.2697 48.8089C13.8252 54.9613 14.2864 62.0513 17.4918 67.9713C20.6971 73.8913 26.0073 78.0445 31.3901 81.5795C38.4445 86.1978 44.989 86.7712 52.294 83.7026C56.7067 81.8458 60.9531 79.2904 62.1088 74.0305C63.1873 69.1446 59.6402 65.1372 56.6323 61.7641C53.172 57.8348 49.1638 54.1703 46.3399 49.7161C43.9064 45.8651 42.3134 41.5491 45.3829 38.0176C47.8204 35.1825 51.8015 32.7782 55.6811 33.2154C58.3541 33.5487 60.7817 35.7314 62.2363 38.1669C62.8783 39.2107 63.3988 40.327 63.7857 41.4897C64.093 42.6705 63.6748 43.8973 64.137 44.9784" fill="#79777A"/>
<mask id="mask0_366_55" style="mask-type:alpha" maskUnits="userSpaceOnUse" x="14" y="12" width="71" height="74">
<path d="M63.7476 43.3155C63.4918 49.4797 70.6301 51.7943 75.1649 50.7754C81.7806 49.2519 84.8201 41.6069 84.1882 34.8887C81.3961 5.27181 39.5755 9.87068 25.1825 22.7003C20.8777 26.5339 19.5369 30.2273 18.0547 35.8311C16.9175 40.087 16.227 44.509 15.2697 48.8089C13.8252 54.9613 14.2864 62.0513 17.4918 67.9713C20.6971 73.8913 26.0073 78.0445 31.3901 81.5795C38.4445 86.1978 44.989 86.7712 52.294 83.7026C56.7067 81.8458 60.9531 79.2904 62.1088 74.0305C63.1873 69.1446 59.6402 65.1372 56.6323 61.7641C53.172 57.8348 49.1638 54.1703 46.3399 49.7161C43.9064 45.8651 42.3134 41.5491 45.3829 38.0176C47.8204 35.1825 51.8015 32.7782 55.6811 33.2154C58.3541 33.5487 60.7817 35.7314 62.2363 38.1669C62.8783 39.2107 63.3988 40.327 63.7857 41.4897C64.093 42.6705 63.6748 43.8973 64.137 44.9784" fill="#514F43"/>
</mask>
<g mask="url(#mask0_366_55)">
<path d="M55.6194 -24.7747C51.575 -19.9427 47.6196 -15.0287 43.7207 -10.0773C39.8219 -5.12581 35.9347 -0.0989272 32.0717 4.91249C28.2086 9.9239 24.3024 14.9852 20.3716 19.9771C16.5701 24.8023 12.6555 29.5355 8.8847 34.3846C5.24483 39.0621 1.77672 43.9319 -1.1662 49.1656C-1.53071 49.8081 -1.91132 50.4497 -2.22576 51.1242L-1.46522 51.5571C-1.06834 50.7473 -0.567522 50.0041 0.0240391 49.3471C0.242883 49.0875 -0.194146 48.6697 -0.430823 48.9078C-1.11824 49.5595 -1.72112 50.304 -2.22576 51.1242C-2.49638 51.5995 -1.79312 52.1358 -1.51777 51.6455C-0.764535 50.3704 -0.0937395 49.0359 0.662703 47.7593C1.41914 46.4827 2.21104 45.2151 3.03045 43.9731C4.67237 41.4704 6.4113 39.0418 8.21161 36.6526C11.8824 31.7734 15.7716 27.0862 19.5379 22.2944C23.4606 17.302 27.3605 12.2607 31.2057 7.2108C35.0508 2.16092 38.8962 -2.8465 42.7787 -7.84142C46.6612 -12.8363 50.5458 -17.7514 54.5642 -22.6223C55.0625 -23.2293 55.5619 -23.834 56.0623 -24.4363C56.2828 -24.7009 55.8318 -25.0313 55.6129 -24.7717L55.6194 -24.7747Z" fill="white"/>
<path d="M56.731 -7.83875C53.1717 -2.1005 49.5364 3.58093 45.8251 9.20556C42.1139 14.8302 38.3018 20.367 34.3888 25.8161C32.4381 28.5194 30.4556 31.1965 28.4413 33.8472C26.3935 36.5434 24.2906 39.1886 22.3156 41.9402C18.4437 47.3602 14.918 53.053 11.2854 58.6594C10.1284 60.4761 8.72049 62.0394 7.43078 63.7307C6.20015 65.3476 4.82758 67.1712 4.42389 69.288C4.34674 69.6917 4.32817 70.1093 4.36877 70.527C4.38444 70.7198 4.6197 70.7719 4.7398 70.6776C5.55335 70.0513 6.4921 69.6348 7.33001 69.044C7.45495 68.9517 7.30218 68.7079 7.17234 68.7897C6.28757 69.347 5.30511 69.72 4.43985 70.3108L4.8145 70.5278C4.73081 68.4382 6.05146 66.5451 7.149 65.0031C8.37584 63.2943 9.7968 61.7504 11.0091 60.0271C11.8609 58.821 12.6269 57.5399 13.4238 56.2914C14.329 54.8815 15.2247 53.479 16.1107 52.0838C17.9069 49.2836 19.7209 46.4964 21.6108 43.7717C25.4115 38.2913 29.6132 33.1433 33.5141 27.7438C37.415 22.3444 41.1499 16.8989 44.8037 11.3465C48.4575 5.79408 52.0251 0.0987732 55.5234 -5.61105C55.9711 -6.32646 56.4156 -7.04885 56.8361 -7.75578C56.8451 -7.76961 56.8484 -7.78708 56.8451 -7.80432C56.8419 -7.82155 56.8323 -7.83716 56.8186 -7.8477C56.8049 -7.85824 56.7881 -7.86286 56.772 -7.86052C56.7558 -7.85819 56.7417 -7.8491 56.7326 -7.83527L56.731 -7.83875Z" fill="white"/>
<path d="M72.6554 6.62385C69.5765 12.1636 66.3145 17.5759 62.8693 22.8608C59.4241 28.1456 55.8576 33.3182 52.1697 38.3785C48.4728 43.4614 44.6529 48.4399 40.7554 53.3439C36.8579 58.2479 32.6632 62.9839 28.6738 67.8584C26.7191 70.2515 24.9082 72.752 23.0569 75.2331C21.4706 77.3607 19.5738 79.2329 18.2156 81.5564C17.8922 82.1027 17.6101 82.6768 17.3717 83.2739C17.1658 83.7957 17.9127 84.3754 18.2851 83.9591C19.2343 82.8949 20.1755 81.8303 21.1782 80.822C22.1809 79.8138 23.2143 78.838 24.2299 77.8408C24.2803 77.7847 24.3079 77.7095 24.3075 77.6296C24.3071 77.5498 24.2786 77.471 24.2276 77.4085C24.1766 77.346 24.1067 77.3042 24.0313 77.2912C23.956 77.2782 23.8806 77.2949 23.8197 77.3381C21.5606 79.0315 19.4556 80.936 17.5279 83.0308L18.4413 83.716C19.438 81.2205 21.3198 79.2574 22.9567 77.2467C23.8414 76.1615 24.6453 75.0033 25.459 73.8746C26.3684 72.6246 27.3086 71.3985 28.2682 70.189C32.1721 65.2735 36.3576 60.6184 40.2647 55.7014C44.1718 50.7844 47.9756 45.8134 51.6677 40.7285C55.3597 35.6435 58.8972 30.5455 62.2871 25.2567C65.677 19.9678 68.9312 14.5889 72.0028 9.07812C72.3863 8.38415 72.7714 7.6852 73.15 6.98923C73.3314 6.65772 72.8432 6.28085 72.6586 6.62235L72.6554 6.62385Z" fill="white"/>
<path d="M86.8015 23.6644C83.1767 28.9436 79.9206 34.5363 75.9948 39.5641C72.0086 44.6883 67.6679 49.4882 63.3773 54.32C61.2472 56.7225 59.1252 59.1339 57.0566 61.5929C55.0488 63.9894 53.0719 66.4524 51.0722 68.8664C47.1431 73.6021 43.1948 78.3552 39.9191 83.6462C38.6223 85.741 37.3579 87.8888 36.187 90.0695C35.0702 92.14 33.9787 94.3902 33.725 96.8372C33.6725 97.3625 33.6763 97.8962 33.7365 98.4284C33.7593 98.5397 33.8216 98.64 33.9103 98.7083C33.999 98.7766 34.1071 98.8074 34.2118 98.7943C36.3341 98.7796 37.3552 96.3195 38.3544 94.7594C38.5138 94.5148 38.155 94.2564 37.9826 94.4815C37.416 95.2183 36.9043 96.0061 36.2875 96.7109C35.7363 97.3469 35.0354 97.9717 34.1342 97.9577L34.505 98.3255C34.3132 95.9371 35.3415 93.6014 36.3349 91.6098C37.3951 89.4934 38.6281 87.4795 39.816 85.4525C42.9401 80.1215 46.7886 75.3468 50.6697 70.6421C54.6818 65.7911 58.626 60.8951 62.7853 56.167C66.9446 51.439 71.2261 46.705 75.1651 41.7476C79.1042 36.7902 82.4255 31.3459 85.9342 26.0102C86.3742 25.3452 86.8142 24.6802 87.2639 24.0193C87.4648 23.7212 86.9977 23.3729 86.7936 23.6724L86.8015 23.6644Z" fill="white"/>
<path d="M62.9838 8.61982C56.2779 18.3925 49.7158 28.2727 43.0423 38.0729C39.7605 42.8899 36.3575 47.6144 33.1032 52.4569C29.8489 57.2994 26.8073 62.1789 23.4491 66.874C22.7149 67.9593 21.922 68.997 21.074 69.9825C20.3228 70.8096 19.5327 71.5952 18.7686 72.4113C17.4642 73.8029 15.7944 75.4415 15.4693 77.509C15.4228 77.8031 15.8589 78.0681 16.0506 77.8424C16.7538 77.0868 17.4016 76.2754 17.9891 75.4144C18.0173 75.357 18.0237 75.2892 18.0071 75.224C17.9905 75.1588 17.9521 75.1008 17.8992 75.0611C17.8464 75.0214 17.7827 75.0028 17.7205 75.0089C17.6583 75.015 17.602 75.0453 17.5623 75.094C16.9502 75.8653 16.2887 76.5904 15.582 77.2648L16.1478 77.6907C16.5436 75.85 17.9811 74.3836 19.1752 73.1073C20.5856 71.6877 21.9129 70.179 23.1507 68.5884C26.5175 63.9787 29.5769 59.1206 32.7302 54.3295C35.9377 49.479 39.3198 44.7515 42.5824 39.9435C45.8449 35.1355 49.1243 30.1962 52.3573 25.2912C55.9694 19.7753 59.5963 14.2908 63.2893 8.84774C63.4201 8.65054 63.1146 8.42264 62.9822 8.61634L62.9838 8.61982Z" fill="white"/>
<path d="M64.2269 37.2067C59.8654 43.319 56.6106 50.4139 51.3172 55.7261C50 57.1204 48.4653 58.2673 46.7716 59.123C46.7029 59.1651 46.6531 59.2337 46.6318 59.3156C46.6105 59.3974 46.6193 59.4868 46.6563 59.5663C46.6934 59.6458 46.7562 59.7099 46.8326 59.7462C46.909 59.7825 46.9936 59.7885 47.07 59.7629C47.5548 59.5794 47.7566 59.166 48.0696 58.7732C48.2468 58.55 47.8956 58.2242 47.6941 58.4118C47.445 58.7219 47.1299 58.9648 46.7716 59.123L47.07 59.7629C50.2627 58.2316 52.7201 55.4253 54.8605 52.6093C57.2819 49.424 59.3507 45.9602 61.4568 42.5344C62.4939 40.846 63.5342 39.156 64.6699 37.5451C64.863 37.272 64.4297 36.9461 64.2335 37.2207L64.2269 37.2067Z" fill="white"/>
<path d="M96.344 36.0593C92.8292 41.3681 89.3188 46.6862 85.8128 52.0136C82.343 57.3071 78.9109 62.6284 75.5166 67.9775C72.1222 73.3266 68.7777 78.766 65.4832 84.2957C62.1912 89.8029 58.9507 95.3201 55.5745 100.747C53.8698 103.492 52.1466 106.22 50.4051 108.931C48.8975 111.286 47.209 113.546 45.9954 116.096C45.6933 116.706 45.4395 117.344 45.2364 118.004L46.0761 118.229C46.0834 118.354 46.0587 118.276 46.1385 118.162C46.2182 118.048 46.2676 117.97 46.3298 117.868C46.4844 117.63 46.6309 117.392 46.7742 117.146C46.9175 116.9 46.5542 116.431 46.3097 116.703C45.9868 117.058 45.2336 117.554 45.2146 118.116C45.2104 118.225 45.2436 118.334 45.3081 118.424C45.3726 118.514 45.4641 118.579 45.5659 118.606C45.6678 118.634 45.7731 118.622 45.8627 118.573C45.9524 118.525 46.0204 118.443 46.0543 118.342C46.5694 117.023 47.1818 115.754 47.8862 114.546C48.603 113.36 49.3729 112.196 50.1333 111.037C51.8534 108.417 53.5072 105.747 55.1642 103.084C58.5484 97.6491 61.8259 92.1444 65.0663 86.6187C68.3067 81.093 71.5993 75.6878 74.9677 70.294C78.336 64.9002 81.7115 59.6223 85.1272 54.3385C88.5428 49.0546 92.0563 43.7124 95.5427 38.4126L96.8531 36.4222C96.89 36.3541 96.9002 36.2721 96.8817 36.1926C96.8631 36.1131 96.8171 36.042 96.753 35.9937C96.6888 35.9454 96.6113 35.9233 96.536 35.9321C96.4607 35.9408 96.3932 35.9797 96.3471 36.0408L96.344 36.0593Z" fill="white"/>
</g>
</g>
</svg>
