<svg width="12" height="12" viewBox="0 0 12 12" fill="none" xmlns="http://www.w3.org/2000/svg">
<path fill-rule="evenodd" clip-rule="evenodd" d="M8.11873 0.581045C8.89346 -0.193681 10.1496 -0.19368 10.9243 0.581039L11.4189 1.07574C12.1937 1.85047 12.1937 3.10657 11.419 3.88124L3.6082 11.692C3.44424 11.856 3.2234 11.9505 2.99153 11.9559L1.10721 11.9997C0.490031 12.0141 -0.0140517 11.51 0.000299013 10.8927L0.0441208 9.00843C0.0495135 8.77663 0.144011 8.55579 0.307986 8.39183L8.11873 0.581045ZM10.1591 1.3462C9.80696 0.994034 9.23607 0.994034 8.88391 1.3462L1.12421 9.10584L1.08208 10.9179L2.89419 10.8758L10.6538 3.11612C11.006 2.76396 11.006 2.19301 10.6538 1.84091L10.1591 1.3462Z" fill="white"/>
<path fill-rule="evenodd" clip-rule="evenodd" d="M6.18127 2.18128C6.42299 1.93957 6.81494 1.93957 7.05665 2.18128L9.81871 4.94334C10.0604 5.18505 10.0604 5.577 9.81871 5.81872C9.57699 6.06043 9.18512 6.06043 8.94333 5.81872L6.18127 3.05666C5.93956 2.81487 5.93956 2.423 6.18127 2.18128Z" fill="white"/>
</svg>
