<svg width="19" height="19" viewBox="0 0 19 19" fill="none" xmlns="http://www.w3.org/2000/svg">
<path fill-rule="evenodd" clip-rule="evenodd" d="M9.5 6.41862C7.79824 6.41862 6.41862 7.79816 6.41862 9.5C6.41862 11.2018 7.79824 12.5814 9.5 12.5814C11.2018 12.5814 12.5814 11.2018 12.5814 9.5C12.5814 7.79816 11.2018 6.41862 9.5 6.41862ZM5 9.5C5 7.01474 7.01474 5 9.5 5C11.9853 5 14 7.01474 14 9.5C14 11.9853 11.9853 14 9.5 14C7.01474 14 5 11.9853 5 9.5Z" fill="black"/>
<path fill-rule="evenodd" clip-rule="evenodd" d="M7.03229 0.346385C9.19359 -0.247454 11.4967 -0.0738274 13.5421 0.837128C15.5876 1.74808 17.246 3.33891 18.2298 5.33338C19.0502 6.99662 19.0226 8.0695 18.9857 9.51409C18.9774 9.83453 18.9688 10.1732 18.9688 10.5408C18.9688 12.419 17.2775 13.5433 15.7284 13.4653C14.9213 13.4247 14.1134 13.0671 13.5373 12.3277C12.9665 11.5952 12.6748 10.5569 12.7397 9.23421C12.759 8.84167 13.0962 8.53894 13.4928 8.558C13.8896 8.57706 14.1954 8.91074 14.1762 9.30319C14.1227 10.393 14.3708 11.0668 14.6763 11.4588C14.9763 11.8438 15.3812 12.023 15.8016 12.0442C16.7076 12.0898 17.5306 11.4377 17.5306 10.5408C17.5306 10.108 17.5392 9.73258 17.5469 9.3962C17.5786 8.01393 17.5951 7.29117 16.9374 5.95756C16.1009 4.26177 14.6908 2.90927 12.9518 2.13473C11.2128 1.36023 9.25461 1.21261 7.41708 1.7175C5.57955 2.22238 3.97869 3.34793 2.89225 4.89877C1.80586 6.4496 1.30251 8.32779 1.46956 10.2075C1.63661 12.0872 2.46352 13.8497 3.80679 15.1891C5.1501 16.5286 6.92491 17.3604 8.82329 17.5402C10.7217 17.7201 12.6238 17.2366 14.1995 16.1736C14.5276 15.9523 14.975 16.0361 15.1987 16.3608C15.4224 16.6854 15.3378 17.128 15.0096 17.3494C13.1563 18.5996 10.9191 19.1683 8.68625 18.9567C6.45336 18.7452 4.36587 17.7669 2.78589 16.1914C1.206 14.6161 0.233407 12.543 0.0369216 10.3321C-0.159564 8.12128 0.432475 5.91211 1.71028 4.08806C2.98812 2.26404 4.87099 0.940216 7.03229 0.346385Z" fill="black"/>
</svg>
