<svg width="21" height="21" viewBox="0 0 21 21" fill="none" xmlns="http://www.w3.org/2000/svg">
<path fill-rule="evenodd" clip-rule="evenodd" d="M1.76844 1.00058C2.84972 -0.265272 4.78042 -0.341063 5.95762 0.836137L8.24512 3.12365C9.37592 4.25445 9.45852 6.06085 8.43552 7.29015L7.92102 7.90845L12.9122 12.8995L13.5304 12.385C14.7597 11.362 16.5661 11.4446 17.697 12.5755L19.9844 14.8629C21.1616 16.0401 21.0859 17.9708 19.82 19.0521C17.2861 21.2166 13.6159 21.4142 10.8643 19.5343L10.5177 19.2975L10.5153 19.2959C7.00392 16.862 3.95852 13.8167 1.52468 10.3052L1.52306 10.3029L1.28628 9.95635C-0.59365 7.20465 -0.396049 3.53445 1.76844 1.00058ZM4.76442 2.02939C4.28302 1.54806 3.49362 1.57905 3.05152 2.09662C1.38203 4.05105 1.22961 6.88195 2.67962 9.00435L2.91322 9.34625C5.23112 12.6897 8.13082 15.5895 11.4743 17.9074L11.4767 17.909L11.8162 18.1409C13.9386 19.5909 16.7695 19.4385 18.724 17.769C19.2415 17.3269 19.2725 16.5375 18.7912 16.0562L16.5037 13.7687C15.9897 13.2547 15.1686 13.2171 14.6098 13.6821L13.7943 14.3608C13.2355 14.8258 12.4144 14.7883 11.9004 14.2743L6.54632 8.92015C6.03222 8.40615 5.99472 7.58505 6.45972 7.02625L7.13842 6.21075C7.60342 5.65195 7.56592 4.83085 7.05182 4.31685L4.76442 2.02939Z" fill="#79777A"/>
<path fill-rule="evenodd" clip-rule="evenodd" d="M14.9788 2.79309C13.3176 2.79309 11.9709 4.13972 11.9709 5.8009C11.9709 7.46209 13.3176 8.80873 14.9788 8.80873C16.6399 8.80873 17.9866 7.46209 17.9866 5.8009C17.9866 4.13972 16.6399 2.79309 14.9788 2.79309ZM11.4553 5.8009C11.4553 3.85497 13.0328 2.27747 14.9788 2.27747C16.9247 2.27747 18.5022 3.85497 18.5022 5.8009C18.5022 7.74683 16.9247 9.32433 14.9788 9.32433C13.0328 9.32433 11.4553 7.74683 11.4553 5.8009Z" fill="#79777A"/>
<path fill-rule="evenodd" clip-rule="evenodd" d="M14.9788 6.23058C14.8364 6.23058 14.721 6.11517 14.721 5.97278V4.51183C14.721 4.36947 14.8364 4.25403 14.9788 4.25403C15.1211 4.25403 15.2366 4.36947 15.2366 4.51183V5.97278C15.2366 6.11517 15.1211 6.23058 14.9788 6.23058Z" fill="#79777A"/>
<path d="M14.5491 7.04699C14.5491 6.8097 14.7414 6.61732 14.9788 6.61732C15.2161 6.61732 15.4085 6.8097 15.4085 7.04699C15.4085 7.28431 15.2161 7.47669 14.9788 7.47669C14.7414 7.47669 14.5491 7.28431 14.5491 7.04699Z" fill="#79777A"/>
</svg>
