<svg width="23" height="24" viewBox="0 0 23 24" fill="none" xmlns="http://www.w3.org/2000/svg">
<path d="M16.151 22V19.1338C16.1889 18.6577 16.1238 18.1789 15.9599 17.7295C15.7961 17.2801 15.5373 16.8703 15.2008 16.5273C18.3747 16.1778 21.7102 14.9894 21.7102 9.53669C21.7099 8.14239 21.1671 6.80156 20.194 5.79171C20.6548 4.57186 20.6222 3.2235 20.1031 2.02676C20.1031 2.02676 18.9104 1.67723 16.151 3.50478C13.8343 2.88443 11.3922 2.88443 9.07555 3.50478C6.31614 1.67723 5.12343 2.02676 5.12343 2.02676C4.60426 3.2235 4.57168 4.57186 5.03246 5.79171C4.05213 6.80905 3.50874 8.162 3.5163 9.56665C3.5163 14.9794 6.85184 16.1678 10.0257 16.5573C9.69312 16.8968 9.43665 17.3017 9.27295 17.7456C9.10925 18.1895 9.04199 18.6626 9.07555 19.1338V22M9.0754 20.0026C6.04309 20.9745 3.51616 20.0026 2 17.0066" stroke="black" stroke-width="2.1" stroke-linecap="round" stroke-linejoin="round"/>
</svg>
