<svg width="24" height="19" viewBox="0 0 24 19" fill="none" xmlns="http://www.w3.org/2000/svg">
<path fill-rule="evenodd" clip-rule="evenodd" d="M18.779 2.57438C19.6235 2.55307 20.437 2.85933 21.0612 3.4299C21.6843 3.9993 22.0695 4.7858 22.1579 5.6318C22.2462 6.4771 22.0336 7.3329 21.5605 8.0392C21.087 8.7461 20.3792 9.2627 19.5627 9.4774C19.112 9.5959 18.6506 9.3267 18.5321 8.876C18.4136 8.4253 18.6829 7.9639 19.1336 7.8454C19.5366 7.7394 19.9049 7.4787 20.1585 7.1001C20.4124 6.7211 20.5268 6.2595 20.4795 5.8071C20.4323 5.3555 20.2289 4.9553 19.9228 4.6755C19.6179 4.3969 19.2268 4.2511 18.8216 4.2613C18.3557 4.2731 17.9686 3.905 17.9568 3.4392C17.945 2.97331 18.3132 2.58614 18.779 2.57438Z" fill="#FDF0FD"/>
<path fill-rule="evenodd" clip-rule="evenodd" d="M5.0253 2.57438C4.1808 2.55307 3.36737 2.85933 2.74309 3.4299C2.12006 3.9993 1.73483 4.7858 1.64644 5.6318C1.55813 6.4771 1.7707 7.3329 2.24383 8.0392C2.71732 8.7461 3.42517 9.2627 4.2416 9.4774C4.6923 9.5959 5.1537 9.3267 5.2722 8.876C5.3907 8.4253 5.1214 7.9639 4.6708 7.8454C4.2677 7.7394 3.89942 7.4787 3.64587 7.1001C3.39196 6.7211 3.27755 6.2595 3.32481 5.8071C3.37199 5.3555 3.57537 4.9553 3.88151 4.6755C4.1864 4.3969 4.5775 4.2511 4.9827 4.2613C5.4486 4.2731 5.8358 3.905 5.8475 3.4392C5.8593 2.97331 5.4912 2.58614 5.0253 2.57438Z" fill="#FDF0FD"/>
<path fill-rule="evenodd" clip-rule="evenodd" d="M19.9831 11.1655C21.7642 10.6645 23.5312 12.0031 23.5312 13.8533C23.5312 16.4714 21.4089 18.5938 18.7908 18.5938H18.75C18.284 18.5938 17.9062 18.216 17.9062 17.75C17.9062 17.2841 18.284 16.9063 18.75 16.9063H18.7908C20.4769 16.9063 21.8438 15.5394 21.8438 13.8533C21.8438 13.1213 21.1447 12.5918 20.44 12.79L20.3087 12.8269C19.8601 12.9531 19.3942 12.6918 19.268 12.2432C19.1418 11.7946 19.4032 11.3287 19.8518 11.2025L19.9831 11.1655Z" fill="#FDF0FD"/>
<path fill-rule="evenodd" clip-rule="evenodd" d="M3.73567 11.1655C1.95453 10.6645 0.1875 12.0031 0.1875 13.8533C0.1875 16.4714 2.30988 18.5938 4.928 18.5938H4.9688C5.4347 18.5938 5.8125 18.216 5.8125 17.75C5.8125 17.2841 5.4347 16.9063 4.9688 16.9063H4.928C3.24186 16.9063 1.875 15.5394 1.875 13.8533C1.875 13.1213 2.57407 12.5918 3.27872 12.79L3.41004 12.8269C3.85862 12.9531 4.3246 12.6918 4.4507 12.2432C4.5769 11.7946 4.3156 11.3287 3.86699 11.2025L3.73567 11.1655Z" fill="#FDF0FD"/>
<path fill-rule="evenodd" clip-rule="evenodd" d="M11.8594 2.28125C10.1981 2.28125 8.9062 3.5702 8.9062 5.0938C8.9062 6.6173 10.1981 7.9062 11.8594 7.9062C13.5206 7.9062 14.8125 6.6173 14.8125 5.0938C14.8125 3.5702 13.5206 2.28125 11.8594 2.28125ZM7.2188 5.0938C7.2188 2.57874 9.3267 0.59375 11.8594 0.59375C14.392 0.59375 16.5 2.57874 16.5 5.0938C16.5 7.6088 14.392 9.5938 11.8594 9.5938C9.3267 9.5938 7.2188 7.6088 7.2188 5.0938Z" fill="#FDF0FD"/>
<path fill-rule="evenodd" clip-rule="evenodd" d="M14.4567 10.1636C16.5614 9.4434 18.75 11.0076 18.75 13.2322C18.75 16.3486 16.2236 18.875 13.1072 18.875H10.6115C7.4951 18.875 4.9688 16.3486 4.9688 13.2322C4.9688 11.0076 7.1573 9.4434 9.2621 10.1636L10.1463 10.4662C11.2567 10.8462 12.462 10.8462 13.5725 10.4662L14.4567 10.1636ZM17.0625 13.2322C17.0625 12.1651 16.0127 11.4147 15.003 11.7602L14.1188 12.0628C12.6542 12.564 11.0645 12.564 9.5999 12.0628L8.7157 11.7602C7.7061 11.4147 6.6562 12.1651 6.6562 13.2322C6.6562 15.4166 8.4271 17.1875 10.6115 17.1875H13.1072C15.2917 17.1875 17.0625 15.4166 17.0625 13.2322Z" fill="#FDF0FD"/>
</svg>
