<svg width="24" height="19" viewBox="0 0 24 19" fill="none" xmlns="http://www.w3.org/2000/svg">
<path fill-rule="evenodd" clip-rule="evenodd" d="M18.779 2.57441C19.6235 2.5531 20.437 2.85936 21.0612 3.42993C21.6843 3.99933 22.0695 4.78583 22.1579 5.63183C22.2462 6.47713 22.0336 7.33293 21.5605 8.03923C21.087 8.74613 20.3792 9.26273 19.5627 9.47743C19.112 9.59593 18.6506 9.32673 18.5321 8.87603C18.4136 8.42533 18.6829 7.96393 19.1336 7.84543C19.5366 7.73943 19.9049 7.47873 20.1585 7.10013C20.4124 6.72113 20.5268 6.25953 20.4795 5.80713C20.4323 5.35553 20.2289 4.95533 19.9228 4.67553C19.6179 4.39693 19.2268 4.25113 18.8216 4.26133C18.3557 4.27313 17.9686 3.90503 17.9568 3.43923C17.945 2.97334 18.3132 2.58617 18.779 2.57441Z" fill="#79777A"/>
<path fill-rule="evenodd" clip-rule="evenodd" d="M5.02538 2.57441C4.18088 2.5531 3.36745 2.85936 2.74317 3.42993C2.12014 3.99933 1.73491 4.78583 1.64652 5.63183C1.55821 6.47713 1.77078 7.33293 2.24391 8.03923C2.7174 8.74613 3.42525 9.26273 4.24168 9.47743C4.69238 9.59593 5.15378 9.32673 5.27228 8.87603C5.39078 8.42533 5.12148 7.96393 4.67088 7.84543C4.26778 7.73943 3.8995 7.47873 3.64595 7.10013C3.39204 6.72113 3.27763 6.25953 3.32489 5.80713C3.37207 5.35553 3.57545 4.95533 3.88159 4.67553C4.18648 4.39693 4.57758 4.25113 4.98278 4.26133C5.44868 4.27313 5.83588 3.90503 5.84758 3.43923C5.85938 2.97334 5.49128 2.58617 5.02538 2.57441Z" fill="#79777A"/>
<path fill-rule="evenodd" clip-rule="evenodd" d="M19.9832 11.1655C21.7643 10.6645 23.5312 12.0031 23.5312 13.8533C23.5312 16.4714 21.4089 18.5938 18.7908 18.5938H18.75C18.284 18.5938 17.9062 18.216 17.9062 17.75C17.9062 17.2841 18.284 16.9063 18.75 16.9063H18.7908C20.4769 16.9063 21.8438 15.5394 21.8438 13.8533C21.8438 13.1213 21.1448 12.5918 20.4401 12.79L20.3088 12.8269C19.8602 12.9531 19.3942 12.6918 19.268 12.2432C19.1418 11.7946 19.4033 11.3287 19.8519 11.2025L19.9832 11.1655Z" fill="#79777A"/>
<path fill-rule="evenodd" clip-rule="evenodd" d="M3.73567 11.1655C1.95453 10.6645 0.1875 12.0031 0.1875 13.8533C0.1875 16.4714 2.30988 18.5938 4.928 18.5938H4.9688C5.4347 18.5938 5.8125 18.216 5.8125 17.75C5.8125 17.2841 5.4347 16.9063 4.9688 16.9063H4.928C3.24186 16.9063 1.875 15.5394 1.875 13.8533C1.875 13.1213 2.57407 12.5918 3.27872 12.79L3.41004 12.8269C3.85862 12.9531 4.3246 12.6918 4.4507 12.2432C4.5769 11.7946 4.3156 11.3287 3.86699 11.2025L3.73567 11.1655Z" fill="#79777A"/>
<path fill-rule="evenodd" clip-rule="evenodd" d="M11.8594 2.28125C10.1981 2.28125 8.90615 3.5702 8.90615 5.0938C8.90615 6.6173 10.1981 7.9062 11.8594 7.9062C13.5206 7.9062 14.8125 6.6173 14.8125 5.0938C14.8125 3.5702 13.5206 2.28125 11.8594 2.28125ZM7.21875 5.0938C7.21875 2.57874 9.32665 0.59375 11.8594 0.59375C14.392 0.59375 16.5 2.57874 16.5 5.0938C16.5 7.6088 14.392 9.5938 11.8594 9.5938C9.32665 9.5938 7.21875 7.6088 7.21875 5.0938Z" fill="#79777A"/>
<path fill-rule="evenodd" clip-rule="evenodd" d="M14.4566 10.1636C16.5613 9.44339 18.75 11.0076 18.75 13.2322C18.75 16.3486 16.2236 18.875 13.1072 18.875H10.6115C7.49505 18.875 4.96875 16.3486 4.96875 13.2322C4.96875 11.0076 7.15725 9.44339 9.26205 10.1636L10.1462 10.4662C11.2566 10.8462 12.462 10.8462 13.5725 10.4662L14.4566 10.1636ZM17.0625 13.2322C17.0625 12.1651 16.0127 11.4147 15.003 11.7602L14.1187 12.0628C12.6541 12.564 11.0645 12.564 9.59985 12.0628L8.71565 11.7602C7.70605 11.4147 6.65615 12.1651 6.65615 13.2322C6.65615 15.4166 8.42705 17.1875 10.6115 17.1875H13.1072C15.2917 17.1875 17.0625 15.4166 17.0625 13.2322Z" fill="#79777A"/>
</svg>
