<svg width="23" height="22" viewBox="0 0 23 22" fill="none" xmlns="http://www.w3.org/2000/svg">
<path d="M18.9001 9.4C18.9001 9.95228 19.3478 10.4 19.9001 10.4C20.4524 10.4 20.9001 9.95228 20.9001 9.4H18.9001ZM2.10008 9.4C2.10008 9.95228 2.54779 10.4 3.10008 10.4C3.65236 10.4 4.10008 9.95228 4.10008 9.4H2.10008ZM2.59068 10.0524L2.34813 9.08221L2.34813 9.08222L2.59068 10.0524ZM4.4172 9.59571L4.65975 10.5659L4.65981 10.5658L4.4172 9.59571ZM4.4172 16.5543L4.65981 15.5841L4.65975 15.5841L4.4172 16.5543ZM2.59068 16.0976L2.34813 17.0678L2.34813 17.0678L2.59068 16.0976ZM20.4094 10.0524L20.652 9.08222L20.6519 9.08221L20.4094 10.0524ZM18.5828 9.59571L18.3402 10.5658L18.3403 10.5659L18.5828 9.59571ZM18.5828 16.5543L18.3403 15.5841L18.3402 15.5841L18.5828 16.5543ZM20.4094 16.0976L20.6519 17.0678L20.652 17.0678L20.4094 16.0976ZM20.9001 9.4C20.9001 4.20852 16.6916 0 11.5001 0V2C15.587 2 18.9001 5.31309 18.9001 9.4H20.9001ZM11.5001 0C6.3086 0 2.10008 4.20852 2.10008 9.4H4.10008C4.10008 5.31309 7.41317 2 11.5001 2V0ZM2 14.0603V12.0897H0V14.0603H2ZM2 12.0897C2 11.5849 2.3435 11.1449 2.83323 11.0225L2.34813 9.08222C0.968136 9.42724 0 10.6671 0 12.0897H2ZM2.83322 11.0225L4.65975 10.5659L4.17466 8.62557L2.34813 9.08221L2.83322 11.0225ZM4.65981 10.5658C4.42619 10.6243 4.2 10.4475 4.2 10.2069H6.2C6.2 9.14647 5.20346 8.36829 4.1746 8.62558L4.65981 10.5658ZM4.2 10.2069V15.9431H6.2V10.2069H4.2ZM4.2 15.9431C4.2 15.7025 4.42619 15.5257 4.65981 15.5841L4.1746 17.5244C5.20347 17.7817 6.2 17.0035 6.2 15.9431H4.2ZM4.65975 15.5841L2.83322 15.1275L2.34813 17.0678L4.17466 17.5244L4.65975 15.5841ZM2.83323 15.1275C2.3435 15.005 2 14.5651 2 14.0603H0C0 15.4829 0.968136 16.7227 2.34813 17.0678L2.83323 15.1275ZM23 14.0603V12.0897H21V14.0603H23ZM23 12.0897C23 10.6671 22.0319 9.42724 20.652 9.08222L20.1668 11.0225C20.6565 11.1449 21 11.5849 21 12.0897H23ZM20.6519 9.08221L18.8254 8.62557L18.3403 10.5659L20.1669 11.0225L20.6519 9.08221ZM18.8254 8.62558C17.7965 8.36829 16.8 9.14651 16.8 10.2069H18.8C18.8 10.4475 18.5739 10.6243 18.3402 10.5658L18.8254 8.62558ZM16.8 10.2069V15.9431H18.8V10.2069H16.8ZM16.8 15.9431C16.8 17.0035 17.7965 17.7817 18.8254 17.5244L18.3402 15.5841C18.5739 15.5257 18.8 15.7025 18.8 15.9431H16.8ZM18.8254 17.5244L20.6519 17.0678L20.1669 15.1275L18.3403 15.5841L18.8254 17.5244ZM20.652 17.0678C22.0319 16.7227 23 15.4829 23 14.0603H21C21 14.5651 20.6565 15.0051 20.1668 15.1275L20.652 17.0678ZM18.9 16.75V17.275H20.9V16.75H18.9ZM18.9 17.275C18.9 17.8825 18.4075 18.375 17.8 18.375V20.375C19.5121 20.375 20.9 18.9871 20.9 17.275H18.9ZM17.8 18.375H14.125V20.375H17.8V18.375ZM13.0751 19.95H9.92508V21.95H13.0751V19.95ZM9.92508 19.95C9.60752 19.95 9.35008 19.6925 9.35008 19.375H7.35008C7.35008 20.7971 8.50293 21.95 9.92508 21.95V19.95ZM9.35008 19.375C9.35008 19.0574 9.60753 18.8 9.92508 18.8V16.8C8.50293 16.8 7.35008 17.9529 7.35008 19.375H9.35008ZM9.92508 18.8H13.0751V16.8H9.92508V18.8ZM13.0751 18.8C13.3926 18.8 13.6501 19.0575 13.6501 19.375H15.6501C15.6501 17.9529 14.4972 16.8 13.0751 16.8V18.8ZM13.6501 19.375C13.6501 19.6925 13.3926 19.95 13.0751 19.95V21.95C14.4972 21.95 15.6501 20.7971 15.6501 19.375H13.6501Z" fill="black"/>
</svg>
