<svg width="15" height="20" viewBox="0 0 15 20" fill="none" xmlns="http://www.w3.org/2000/svg">
<path fill-rule="evenodd" clip-rule="evenodd" d="M6 7.3125C4.56803 7.3125 3.45447 8.31498 3.45447 9.5C3.45447 10.685 4.56803 11.6875 6 11.6875C7.43188 11.6875 8.54545 10.685 8.54545 9.5C8.54545 8.31498 7.43188 7.3125 6 7.3125ZM2 9.5C2 7.54389 3.81692 6 6 6C8.18299 6 10 7.54389 10 9.5C10 11.4561 8.18299 13 6 13C3.81692 13 2 11.4561 2 9.5Z" fill="black"/>
<path fill-rule="evenodd" clip-rule="evenodd" d="M10.5306 17.3192C10.5306 16.0259 9.22396 15.1164 7.96738 15.5352C6.69207 15.9602 5.30784 15.9602 4.03254 15.5352C2.77596 15.1164 1.46931 16.0259 1.46931 17.3192V19.2845C1.46931 19.6796 1.14042 20 0.734653 20C0.328883 20 0 19.6796 0 19.2845V17.3192C0 15.0444 2.29809 13.4447 4.50832 14.1813C5.4752 14.5035 6.52472 14.5035 7.49168 14.1813C9.70183 13.4447 12 15.0444 12 17.3192V19.2845C12 19.6796 11.671 20 11.2653 20C10.8596 20 10.5306 19.6796 10.5306 19.2845V17.3192Z" fill="black"/>
</svg>
