<svg width="20" height="24" viewBox="0 0 20 24" fill="none" xmlns="http://www.w3.org/2000/svg">
<path fill-rule="evenodd" clip-rule="evenodd" d="M10 7.5C8.7574 7.5 7.75 8.5074 7.75 9.75C7.75 10.9926 8.7574 12 10 12C11.2426 12 12.25 10.9926 12.25 9.75C12.25 8.5074 11.2426 7.5 10 7.5ZM6.0625 9.75C6.0625 7.5754 7.8254 5.8125 10 5.8125C12.1746 5.8125 13.9375 7.5754 13.9375 9.75C13.9375 11.9246 12.1746 13.6875 10 13.6875C7.8254 13.6875 6.0625 11.9246 6.0625 9.75Z" fill="#79777A"/>
<path fill-rule="evenodd" clip-rule="evenodd" d="M10 2.4375C7.9086 2.4375 5.9046 3.25985 4.4284 4.7209C2.9525 6.1816 2.125 8.161 2.125 10.223C2.125 13.2364 4.1033 16.1459 6.2501 18.3887C7.3058 19.4915 8.3643 20.394 9.16 21.0211C9.4943 21.2846 9.7811 21.4985 10 21.6572C10.2189 21.4985 10.5057 21.2846 10.84 21.0211C11.6357 20.394 12.6942 19.4915 13.7499 18.3887C15.8967 16.1459 17.875 13.2364 17.875 10.223C17.875 8.161 17.0475 6.1816 15.5716 4.7209C14.0954 3.25985 12.0914 2.4375 10 2.4375ZM10 22.6875C9.5353 23.3918 9.5351 23.3916 9.5348 23.3914L9.5322 23.3897L9.526 23.3856L9.5043 23.371C9.4857 23.3586 9.4591 23.3406 9.425 23.3172C9.3569 23.2705 9.2587 23.2022 9.1347 23.1136C8.8869 22.9365 8.5357 22.6776 8.1154 22.3464C7.2763 21.6851 6.1552 20.7299 5.0311 19.5556C2.8186 17.2441 0.4375 13.9213 0.4375 10.223C0.4375 7.7078 1.44711 5.2974 3.2414 3.52151C5.0353 1.74595 7.4667 0.75 10 0.75C12.5333 0.75 14.9647 1.74595 16.7586 3.52151C18.5529 5.2974 19.5625 7.7078 19.5625 10.223C19.5625 13.9213 17.1814 17.2441 14.9689 19.5556C13.8448 20.7299 12.7237 21.6851 11.8846 22.3464C11.4643 22.6776 11.1131 22.9365 10.8653 23.1136C10.7413 23.2022 10.6431 23.2705 10.575 23.3172C10.5409 23.3406 10.5143 23.3586 10.4957 23.371L10.474 23.3856L10.4678 23.3897L10.4652 23.3914C10.4649 23.3916 10.4647 23.3918 10 22.6875ZM10 22.6875L10.4652 23.3914C10.1833 23.5773 9.8167 23.5773 9.5348 23.3914L10 22.6875Z" fill="#79777A"/>
</svg>
