<svg width="20" height="20" viewBox="0 0 20 20" fill="none" xmlns="http://www.w3.org/2000/svg">
<path fill-rule="evenodd" clip-rule="evenodd" d="M0 9.99998C0 4.47717 4.47719 0 10 0C15.5229 0 20 4.47717 20 9.99998C20 15.5228 15.5229 20 10 20C4.47719 20 0 15.5228 0 9.99998ZM10 18.5366C14.7147 18.5366 18.5366 14.7146 18.5366 9.99998C18.5366 5.28532 14.7147 1.46341 10 1.46341C5.28534 1.46341 1.46342 5.28532 1.46342 9.99998C1.46342 14.7146 5.28534 18.5366 10 18.5366Z" fill="black"/>
<path fill-rule="evenodd" clip-rule="evenodd" d="M10 5.3125C8.56803 5.3125 7.45447 6.31498 7.45447 7.5C7.45447 8.68502 8.56803 9.6875 10 9.6875C11.4319 9.6875 12.5454 8.68502 12.5454 7.5C12.5454 6.31498 11.4319 5.3125 10 5.3125ZM6 7.5C6 5.54389 7.81692 4 10 4C12.183 4 14 5.54389 14 7.5C14 9.45611 12.183 11 10 11C7.81692 11 6 9.45611 6 7.5Z" fill="black"/>
<path fill-rule="evenodd" clip-rule="evenodd" d="M14.5306 15.3192C14.5306 14.0259 13.224 13.1164 11.9674 13.5352C10.6921 13.9602 9.30784 13.9602 8.03254 13.5352C6.77596 13.1164 5.46931 14.0259 5.46931 15.3192V17.2845C5.46931 17.6796 5.14042 18 4.73465 18C4.32888 18 4 17.6796 4 17.2845V15.3192C4 13.0444 6.29809 11.4447 8.50832 12.1813C9.4752 12.5035 10.5247 12.5035 11.4917 12.1813C13.7018 11.4447 16 13.0444 16 15.3192V17.2845C16 17.6796 15.671 18 15.2653 18C14.8596 18 14.5306 17.6796 14.5306 17.2845V15.3192Z" fill="black"/>
</svg>
