<svg width="22" height="22" viewBox="0 0 22 22" fill="none" xmlns="http://www.w3.org/2000/svg">
<path fill-rule="evenodd" clip-rule="evenodd" d="M11.1792 1.6875C6.20862 1.6875 2.17921 5.71695 2.17921 10.6875C2.17921 12.5194 2.4661 13.8972 3.28782 15.212C3.52862 15.5972 3.58622 16.0942 3.39002 16.5422L1.93994 19.8514L5.55362 18.4452C5.96312 18.2859 6.40862 18.3319 6.76932 18.535C8.07172 19.2687 9.57532 19.6875 11.1792 19.6875C16.1498 19.6875 20.1792 15.658 20.1792 10.6875C20.1792 5.71695 16.1498 1.6875 11.1792 1.6875ZM0.491712 10.6875C0.491712 4.78495 5.27662 0 11.1792 0C17.0817 0 21.8667 4.78495 21.8667 10.6875C21.8667 16.59 17.0817 21.375 11.1792 21.375C9.32072 21.375 7.57082 20.9 6.04672 20.0641L1.92029 21.6698C0.753562 22.1238 -0.380167 20.9415 0.122313 19.7948L1.78778 15.994C0.799513 14.36 0.491712 12.6707 0.491712 10.6875Z" fill="#79777A"/>
<path fill-rule="evenodd" clip-rule="evenodd" d="M11.8437 10C12.3097 10 12.6874 10.3777 12.6874 10.8437V11.9687C12.6874 12.4347 12.3097 12.8124 11.8437 12.8124C11.3777 12.8124 11 12.4347 11 11.9687V10.8437C11 10.3777 11.3777 10 11.8437 10Z" fill="#79777A"/>
<path fill-rule="evenodd" clip-rule="evenodd" d="M6.8437 10C7.3097 10 7.6874 10.3777 7.6874 10.8437V11.9687C7.6874 12.4347 7.3097 12.8124 6.8437 12.8124C6.3777 12.8124 6 12.4347 6 11.9687V10.8437C6 10.3777 6.3777 10 6.8437 10Z" fill="#79777A"/>
<path fill-rule="evenodd" clip-rule="evenodd" d="M15.8437 10C16.3097 10 16.6874 10.3777 16.6874 10.8437V11.9687C16.6874 12.4347 16.3097 12.8124 15.8437 12.8124C15.3777 12.8124 15 12.4347 15 11.9687V10.8437C15 10.3777 15.3777 10 15.8437 10Z" fill="#79777A"/>
</svg>
