<svg width="23" height="22" viewBox="0 0 23 22" fill="none" xmlns="http://www.w3.org/2000/svg">
<path fill-rule="evenodd" clip-rule="evenodd" d="M11.4219 1.71875C6.4513 1.71875 2.42189 5.7482 2.42189 10.7188C2.42189 12.5507 2.70878 13.9284 3.5305 15.2432C3.7713 15.6285 3.8289 16.1255 3.6327 16.5735L2.18262 19.8826L5.7963 18.4764C6.2058 18.3171 6.6513 18.3631 7.012 18.5663C8.3144 19.2999 9.818 19.7188 11.4219 19.7188C16.3925 19.7188 20.4219 15.6893 20.4219 10.7188C20.4219 5.7482 16.3925 1.71875 11.4219 1.71875ZM0.734388 10.7188C0.734388 4.8162 5.5193 0.03125 11.4219 0.03125C17.3244 0.03125 22.1094 4.8162 22.1094 10.7188C22.1094 16.6213 17.3244 21.4062 11.4219 21.4062C9.5634 21.4062 7.8135 20.9312 6.2894 20.0953L2.16297 21.701C0.996238 22.155 -0.137491 20.9728 0.364989 19.8261L2.03046 16.0253C1.04219 14.3913 0.734388 12.702 0.734388 10.7188Z" fill="#FDF0FD"/>
<path fill-rule="evenodd" clip-rule="evenodd" d="M11.5625 9.5938C12.0285 9.5938 12.4062 9.9715 12.4062 10.4375V11.5625C12.4062 12.0285 12.0285 12.4062 11.5625 12.4062C11.0965 12.4062 10.7188 12.0285 10.7188 11.5625V10.4375C10.7188 9.9715 11.0965 9.5938 11.5625 9.5938Z" fill="#FDF0FD"/>
<path fill-rule="evenodd" clip-rule="evenodd" d="M7.0625 9.5938C7.5285 9.5938 7.9062 9.9715 7.9062 10.4375V11.5625C7.9062 12.0285 7.5285 12.4062 7.0625 12.4062C6.5965 12.4062 6.2188 12.0285 6.2188 11.5625V10.4375C6.2188 9.9715 6.5965 9.5938 7.0625 9.5938Z" fill="#FDF0FD"/>
<path fill-rule="evenodd" clip-rule="evenodd" d="M16.0625 9.5938C16.5285 9.5938 16.9062 9.9715 16.9062 10.4375V11.5625C16.9062 12.0285 16.5285 12.4062 16.0625 12.4062C15.5965 12.4062 15.2188 12.0285 15.2188 11.5625V10.4375C15.2188 9.9715 15.5965 9.5938 16.0625 9.5938Z" fill="#FDF0FD"/>
</svg>
