<svg width="20" height="23" viewBox="0 0 20 23" fill="none" xmlns="http://www.w3.org/2000/svg">
<path fill-rule="evenodd" clip-rule="evenodd" d="M1.53563 8.35497C1.53563 3.74069 5.34062 0 10.0345 0C14.7283 0 18.5333 3.74069 18.5333 8.35497V9.19703C18.5333 9.59497 18.6025 9.99006 18.7378 10.3651L19.7901 13.2826C20.6203 15.5839 18.8842 18 16.4004 18H3.59983C1.09096 18 -0.647032 15.5385 0.230323 13.2279L1.31231 10.3782C1.45995 9.98937 1.53563 9.5776 1.53563 9.16252V8.35497ZM10.0345 1.92857C6.4241 1.92857 3.49741 4.80583 3.49741 8.35497V9.16252C3.49741 9.80789 3.37977 10.448 3.15028 11.0527L2.06819 13.9023C1.66944 14.9526 2.4595 16.0714 3.59983 16.0714H16.4004C17.5294 16.0714 18.3185 14.9731 17.9412 13.9272L16.8888 11.0097C16.6788 10.4277 16.5715 9.81463 16.5715 9.19703V8.35497C16.5715 4.80583 13.6449 1.92857 10.0345 1.92857Z" fill="black"/>
<path fill-rule="evenodd" clip-rule="evenodd" d="M7.55967 20.0422C7.98824 19.8994 8.45163 20.131 8.59445 20.5597C8.73427 20.9788 8.95671 21.1473 9.17051 21.2381C9.42465 21.3463 9.71777 21.3638 10 21.3638C10.2823 21.3638 10.5754 21.3463 10.8295 21.2381C11.0432 21.1473 11.2658 20.9788 11.4055 20.5597C11.5484 20.131 12.0117 19.8994 12.4404 20.0422C12.8691 20.1851 13.1007 20.6484 12.9578 21.0771C12.6613 21.9669 12.0897 22.4802 11.4701 22.7438C10.8908 22.9902 10.3113 23 10 23C9.68868 23 9.10913 22.9902 8.52997 22.7438C7.91038 22.4802 7.33879 21.9669 7.04218 21.0771C6.89935 20.6484 7.131 20.1851 7.55967 20.0422Z" fill="black"/>
<path fill-rule="evenodd" clip-rule="evenodd" d="M9.99622 4.91679C9.94695 4.36642 9.429 3.95754 8.83931 4.00353C6.61754 4.17691 5.26254 6.01316 5.00871 7.87358C4.93392 8.42147 5.34927 8.92207 5.93617 8.99187C6.52319 9.06168 7.05956 8.67402 7.13435 8.12625C7.3092 6.84512 8.14358 6.06471 9.01784 5.99657C9.60753 5.95047 10.0455 5.46705 9.99622 4.91679Z" fill="black"/>
</svg>
