<svg width="24" height="28" viewBox="0 0 24 28" fill="none" xmlns="http://www.w3.org/2000/svg">
<path fill-rule="evenodd" clip-rule="evenodd" d="M1.84276 10.2116C1.84276 4.57195 6.40874 0 12.0414 0C17.674 0 22.24 4.57195 22.24 10.2116V11.2408C22.24 11.7272 22.323 12.2101 22.4854 12.6685L23.7482 16.2343C24.7444 19.047 22.661 22 19.6805 22H4.3198C1.30915 22 -0.776439 18.9915 0.276388 16.1674L1.57477 12.6844C1.75194 12.2092 1.84276 11.706 1.84276 11.1986V10.2116ZM12.0414 2.35714C7.70892 2.35714 4.1969 5.87379 4.1969 10.2116V11.1986C4.1969 11.9874 4.05572 12.7698 3.78034 13.5088L2.48183 16.9917C2.00333 18.2754 2.9514 19.6429 4.3198 19.6429H19.6805C21.0352 19.6429 21.9822 18.3005 21.5295 17.0221L20.2666 13.4563C20.0146 12.7449 19.8859 11.9957 19.8859 11.2408V10.2116C19.8859 5.87379 16.3738 2.35714 12.0414 2.35714Z" fill="#79777A"/>
<path fill-rule="evenodd" clip-rule="evenodd" d="M8.74622 24.0562C9.31766 23.8658 9.9355 24.1747 10.1259 24.7462C10.3124 25.3051 10.6089 25.5297 10.894 25.6508C11.2329 25.7951 11.6237 25.8184 12 25.8184C12.3764 25.8184 12.7672 25.7951 13.1061 25.6508C13.391 25.5297 13.6877 25.3051 13.874 24.7462C14.0646 24.1747 14.6823 23.8658 15.2538 24.0562C15.8254 24.2468 16.1343 24.8645 15.9437 25.4361C15.5483 26.6225 14.7862 27.3069 13.9601 27.6584C13.1878 27.9869 12.415 28 12 28C11.5849 28 10.8122 27.9869 10.04 27.6584C9.21384 27.3069 8.45172 26.6225 8.05624 25.4361C7.8658 24.8645 8.17466 24.2468 8.74622 24.0562Z" fill="#79777A"/>
</svg>
