<svg width="21" height="15" viewBox="0 0 21 15" fill="none" xmlns="http://www.w3.org/2000/svg">
<path d="M0.5 14.5L20.5 0.5M10.3038 2.93052C5.53428 2.93052 3.35788 6.23944 2.72464 7.45333C2.65441 7.58792 2.6535 7.73016 2.72154 7.8645C3.33458 9.07503 5.46204 12.3806 10.3038 12.3806C15.1456 12.3806 17.2731 9.07503 17.8862 7.8645C17.9542 7.73016 17.9533 7.58792 17.8831 7.45333C17.2498 6.23944 15.0734 2.93052 10.3038 2.93052ZM1.50171 7.05175C2.15091 5.80737 4.63577 1.88056 10.3038 1.88056C15.9719 1.88056 18.4568 5.80737 19.106 7.05175C19.3081 7.43921 19.3118 7.86605 19.1143 8.25594C18.4808 9.50692 16.0462 13.4305 10.3038 13.4305C4.56149 13.4305 2.12695 9.50692 1.49342 8.25594C1.29595 7.86605 1.29961 7.43921 1.50171 7.05175ZM10.3039 5.90556C9.08565 5.90556 8.09804 6.68906 8.09804 7.65556C8.09804 8.62205 9.08565 9.40556 10.3039 9.40556C11.5222 9.40556 12.5098 8.62205 12.5098 7.65556C12.5098 6.68906 11.5222 5.90556 10.3039 5.90556ZM6.77451 7.65556C6.77451 6.10915 8.35467 4.85556 10.3039 4.85556C12.2532 4.85556 13.8333 6.10915 13.8333 7.65556C13.8333 9.20196 12.2532 10.4556 10.3039 10.4556C8.35467 10.4556 6.77451 9.20196 6.77451 7.65556Z" stroke="black"/>
</svg>
