<svg width="20" height="14" viewBox="0 0 20 14" fill="none" xmlns="http://www.w3.org/2000/svg">
<path d="M13.0001 7.00037C13.0001 7.79607 12.6841 8.55917 12.1214 9.12181C11.5588 9.68445 10.7957 10.0005 9.99999 10.0005C9.2043 10.0005 8.44119 9.68445 7.87855 9.12181C7.31592 8.55917 6.99983 7.79607 6.99983 7.00037C6.99983 6.20468 7.31592 5.44158 7.87855 4.87894C8.44119 4.3163 9.2043 4.00021 9.99999 4.00021C10.7957 4.00021 11.5588 4.3163 12.1214 4.87894C12.6841 5.44158 13.0001 6.20468 13.0001 7.00037Z" fill="#3F3D3D"/>
<path d="M19.8945 6.55335C17.7364 2.23612 13.9042 0 10 0C6.09679 0 2.26359 2.23612 0.105472 6.55335C0.0361093 6.69216 0 6.8452 0 7.00037C0 7.15555 0.0361093 7.30859 0.105472 7.4474C2.26359 11.7646 6.09579 14.0007 10 14.0007C13.9032 14.0007 17.7364 11.7646 19.8945 7.4474C19.9639 7.30859 20 7.15555 20 7.00037C20 6.8452 19.9639 6.69216 19.8945 6.55335ZM10 12.0006C7.03084 12.0006 3.99768 10.3806 2.12958 7.00037C3.99768 3.62019 7.02984 2.00011 10 2.00011C12.9692 2.00011 16.0023 3.62019 17.8704 7.00037C16.0023 10.3806 12.9692 12.0006 10 12.0006Z" fill="#3F3D3D"/>
</svg>
