<svg width="22" height="22" viewBox="0 0 22 22" fill="none" xmlns="http://www.w3.org/2000/svg">
<path fill-rule="evenodd" clip-rule="evenodd" d="M2.28968 1.6998C3.37096 0.433946 5.30166 0.358156 6.47886 1.53536L8.76636 3.82287C9.89716 4.95367 9.97976 6.76007 8.95676 7.98937L8.44226 8.60767L13.4335 13.5988L14.0517 13.0843C15.281 12.0613 17.0874 12.1439 18.2183 13.2748L20.5057 15.5622C21.6829 16.7394 21.6072 18.6701 20.3413 19.7514C17.8074 21.9159 14.1372 22.1135 11.3856 20.2336L11.039 19.9968L11.0366 19.9952C7.52516 17.5613 4.47976 14.516 2.04592 11.0045L2.0443 11.0022L1.80752 10.6556C-0.0724099 7.90387 0.125191 4.23367 2.28968 1.6998ZM5.28566 2.72861C4.80426 2.24728 4.01486 2.27827 3.57276 2.79584C1.90327 4.75027 1.75085 7.58117 3.20086 9.70357L3.43446 10.0455C5.75236 13.389 8.65206 16.2888 11.9956 18.6067L11.998 18.6083L12.3375 18.8402C14.4599 20.2902 17.2908 20.1378 19.2453 18.4683C19.7628 18.0262 19.7938 17.2368 19.3125 16.7555L17.025 14.468C16.511 13.954 15.6899 13.9164 15.1311 14.3814L14.3156 15.0601C13.7568 15.5251 12.9357 15.4876 12.4217 14.9736L7.06756 9.61937C6.55346 9.10537 6.51596 8.28427 6.98096 7.72547L7.65966 6.90997C8.12466 6.35117 8.08716 5.53007 7.57306 5.01607L5.28566 2.72861Z" fill="white"/>
</svg>
