<svg width="22" height="24" viewBox="0 0 22 24" fill="none" xmlns="http://www.w3.org/2000/svg">
<path fill-rule="evenodd" clip-rule="evenodd" d="M16.2436 4.27717C17.7281 3.4123 19.633 3.92277 20.4862 5.41397L20.9112 6.15677C21.755 7.63157 21.2514 9.51097 19.7832 10.3664L18.7681 10.9577C18.6048 11.0528 18.4682 11.269 18.4676 11.572C18.467 11.8841 18.6086 12.1072 18.7702 12.2004L19.7371 12.7587C21.2168 13.613 21.7238 15.5051 20.8695 16.9848L20.4234 17.7574C19.5691 19.2371 17.677 19.7441 16.1973 18.8898L15.2304 18.3316C15.0688 18.2383 14.8048 18.2272 14.5348 18.3838C14.2727 18.5358 14.1538 18.7621 14.1531 18.9512L14.1485 20.1259C14.1419 21.8251 12.7661 23.2009 11.0669 23.2076L10.2111 23.2109C8.49312 23.2176 7.09862 21.8232 7.10532 20.1051L7.10982 18.9647C7.11052 18.7832 6.99432 18.5575 6.73332 18.4069C6.47232 18.2562 6.21882 18.2684 6.06192 18.3598L5.07652 18.9338C3.59202 19.7986 1.68714 19.2882 0.833929 17.797L0.408959 17.0542C-0.434881 15.5793 0.0687189 13.6999 1.53695 12.8446L2.55208 12.2532C2.71542 12.1581 2.85202 11.942 2.85262 11.639C2.85312 11.3269 2.71152 11.1038 2.55002 11.0106L1.5831 10.4523C0.103379 9.59797 -0.403611 7.70587 0.450709 6.22617L0.896779 5.45357C1.7511 3.97377 3.64322 3.46682 5.12292 4.32117L6.08982 4.87937C6.25132 4.97267 6.51532 4.98377 6.78532 4.82717C7.04742 4.67517 7.16632 4.44887 7.16702 4.25987L7.17162 3.08505C7.17822 1.38585 8.55402 0.0100244 10.2532 0.00337444L11.109 2.41869e-05C12.827 -0.00669581 14.2215 1.38774 14.2148 3.1058L14.2104 4.24617C14.2096 4.42777 14.3258 4.65337 14.5868 4.80407C14.8478 4.95477 15.1013 4.94257 15.2582 4.85117L16.2436 4.27717ZM19.0215 6.25197C18.6337 5.57417 17.7678 5.34217 17.093 5.73527L16.1077 6.30927C15.3284 6.76327 14.4204 6.65657 13.7431 6.26557C13.0658 5.87447 12.5194 5.14147 12.5229 4.23957L12.5273 3.09923C12.5304 2.31829 11.8965 1.68445 11.1156 1.68751L10.2598 1.69085C9.48752 1.69388 8.86212 2.31926 8.85912 3.09162L8.85452 4.26647C8.85102 5.16447 8.31002 5.89377 7.63182 6.28707C6.95242 6.68097 6.03492 6.79627 5.24612 6.34077L4.27922 5.78257C3.60662 5.39427 2.74652 5.62467 2.3582 6.29727L1.91213 7.06987C1.5238 7.74247 1.75425 8.60257 2.42685 8.99087L3.39382 9.54917C4.18252 10.0046 4.54152 10.8568 4.54002 11.6421C4.53862 12.4262 4.17752 13.2593 3.40152 13.7114L2.38639 14.3027C1.71901 14.6915 1.4901 15.5458 1.87366 16.2162L2.29863 16.9589C2.68642 17.6368 3.55232 17.8688 4.22712 17.4757L5.21242 16.9017C5.99172 16.4477 6.89982 16.5544 7.57712 16.9454C8.25432 17.3365 8.80072 18.0695 8.79722 18.9713L8.79282 20.1117C8.78982 20.8927 9.42362 21.5265 10.2045 21.5234L11.0603 21.5201C11.8326 21.5171 12.458 20.8917 12.461 20.1193L12.4656 18.9446C12.4691 18.0465 13.0101 17.3172 13.6884 16.9239C14.3677 16.53 15.2853 16.4147 16.0741 16.8702L17.041 17.4284C17.7136 17.8167 18.5737 17.5863 18.962 16.9137L19.4081 16.1411C19.7964 15.4685 19.5659 14.6084 18.8933 14.2201L17.9264 13.6618C17.1376 13.2064 16.7787 12.3541 16.7801 11.5689C16.7816 10.7848 17.1427 9.95157 17.9187 9.49957L18.9337 8.90817C19.6011 8.51947 19.83 7.66517 19.4465 6.99477L19.0215 6.25197Z" fill="#79777A"/>
<path fill-rule="evenodd" clip-rule="evenodd" d="M10.6601 8.79297C9.10682 8.79297 7.84762 10.0522 7.84762 11.6055C7.84762 13.1588 9.10682 14.418 10.6601 14.418C12.2134 14.418 13.4726 13.1588 13.4726 11.6055C13.4726 10.0522 12.2134 8.79297 10.6601 8.79297ZM6.16012 11.6055C6.16012 9.12017 8.17482 7.10547 10.6601 7.10547C13.1454 7.10547 15.1601 9.12017 15.1601 11.6055C15.1601 14.0908 13.1454 16.1055 10.6601 16.1055C8.17482 16.1055 6.16012 14.0908 6.16012 11.6055Z" fill="#79777A"/>
</svg>
