<svg width="337" height="337" viewBox="0 0 337 337" fill="none" xmlns="http://www.w3.org/2000/svg">
<path fill-rule="evenodd" clip-rule="evenodd" d="M243.068 88.8009C269.15 113.564 276.435 150.494 274.52 186.4C272.685 220.805 262.436 257.398 233.112 275.479C205.834 292.299 173.118 275.845 142.011 268.106C110.53 260.274 72.8891 259.936 56.9864 231.659C40.0931 201.622 52.0773 165.155 66.5194 133.876C81.9763 100.4 102.084 65.7267 137.814 56.6044C175.208 47.0573 215.073 62.2212 243.068 88.8009Z" fill="#FF597D"/>
<g clip-path="url(#clip0_36_3)">
<path d="M184.597 76.0202C185.911 75.7337 187.257 76.2408 188.494 76.7682C212.182 86.861 230.664 108.421 237.019 133.373C243.373 158.325 237.454 186.099 221.479 206.292C205.504 226.485 179.837 238.637 154.092 238.195C153.569 241.185 153.046 244.176 152.523 247.166C152.522 244.632 152.481 241.949 151.152 239.792C149.822 237.635 146.707 236.371 144.67 237.879C141.888 241.202 144.038 247.223 148.296 248.032C147.463 249.985 144.252 249.376 143.173 247.548C142.093 245.72 142.338 243.443 142.172 241.326C142.005 239.21 141.029 236.776 138.946 236.36C132.765 235.128 126.702 233.301 120.868 230.915C117.093 229.371 112.741 226.337 113.626 222.355C114.279 219.414 117.76 217.839 120.747 218.235C123.734 218.63 126.31 220.452 128.751 222.218C130.025 217.818 131.298 213.417 132.572 209.017C128.564 209.203 127.439 203.33 124.062 201.164C108.611 191.251 98.3112 173.731 97.1643 155.41C96.0173 137.089 104.052 118.42 118.145 106.659C132.239 94.8968 152.044 90.3323 169.864 94.7388C171.978 92.1378 175.931 91.2371 178.963 92.6652C181.799 91.2184 181.654 87.2052 181.298 84.0421C180.942 80.8789 181.487 76.6982 184.597 76.0202ZM134.592 223.622C133.425 222.329 134.571 223.094 134.571 223.094L134.592 223.768V224.076C134.592 224.076 131.763 222.981 130.404 222.537C153.644 230.388 180.69 225.821 200.064 210.774C219.438 195.728 230.558 170.654 228.704 146.194C226.851 121.733 212.08 98.6218 190.66 86.6662C190.15 86.381 189.577 86.0925 189.006 86.2166C188.271 86.376 187.854 87.1329 187.532 87.8116C186.456 90.0732 185.381 92.3348 184.306 94.5965C186.839 96.0837 188.192 99.3324 187.464 102.178C201.959 111.365 212.053 127.193 214.269 144.21C216.486 161.228 210.782 179.112 199.124 191.705C187.465 204.299 170.072 211.361 152.935 210.461C148.918 210.25 144.592 209.694 141.131 211.743C137.13 214.112 135.692 219.104 134.592 223.622Z" fill="white"/>
<path d="M190.998 161.056C191.019 161.654 190.733 161.928 190.582 162.456C190.461 162.878 190.63 161.577 190.598 161.139C190.576 160.832 190.488 161.364 190.482 161.404C190.448 161.605 190.456 162.779 190.242 162.95C190.211 162.975 190.096 162.146 190.095 162.027C190.093 161.901 190.047 161.791 190.043 161.668C190.026 161.212 189.973 160.901 190.471 160.667C190.601 160.606 190.989 160.458 191.014 160.258C191.021 160.202 191.097 159.987 190.928 159.997C190.684 160.01 190.563 160.537 190.52 160.719C190.403 161.211 190.582 161.46 191.046 161.659C191.258 161.749 191.948 161.632 191.734 161.718C191.377 161.86 190.896 162.33 190.711 162.68C190.688 162.723 190.601 163.053 190.581 163.054C190.551 163.056 190.917 162.744 190.981 162.699C191.399 162.401 191.819 162.131 192.124 161.703C192.327 161.419 191.831 160.792 191.554 160.678C191.441 160.632 191.727 160.85 191.822 160.925C192.117 161.158 191.439 160.874 191.362 160.848C191.138 160.773 190.869 160.728 190.658 160.622C190.409 160.498 191.21 160.701 191.481 160.765C191.993 160.886 192.671 160.913 193.116 161.21C193.341 161.36 191.9 161.316 192.893 161.83C193.33 162.057 191.929 161.828 193.211 161.961C193.713 162.013 192.787 161.502 193.411 161.68C193.438 161.688 193.755 161.76 193.698 161.777C193.26 161.909 192.773 161.913 192.32 161.967C191.377 162.081 193.581 162.092 193.791 162.085C194.261 162.069 194.241 162.079 194.548 161.874C194.806 161.703 194.719 161.476 195.036 161.386C195.178 161.345 195.27 161.089 195.128 161.464C194.992 161.825 194.804 162.108 194.656 162.447C194.593 162.59 194.559 162.791 194.559 162.95C194.559 163.139 194.875 162.507 194.898 162.465C195.351 161.628 194.698 162.765 194.698 163.141C194.698 163.212 194.665 163.49 194.75 163.324C194.966 162.905 195.393 162.294 195.393 161.838" stroke="#FF597D" stroke-linecap="round"/>
<path d="M128.222 117.295C127.766 117.295 126.807 116.841 127.759 116.841C128.323 116.841 129.654 116.014 129.393 117.091C129.115 118.241 128.222 118.923 128.222 120.174C128.222 120.253 128.224 120.822 128.254 120.604C128.374 119.703 128.931 118.815 128.931 117.904C128.931 117.357 128.903 118.549 128.903 118.722C128.903 119.157 128.895 119.58 128.805 120.004C128.658 120.697 128.437 121.385 128.249 122.045C128.079 122.639 127.784 121.033 128.225 121.805C128.54 122.357 130.466 122.038 130.761 121.507C130.913 121.234 130.551 120.818 130.406 120.62C129.884 119.905 129.325 119.32 129.108 118.429C129.046 118.174 128.939 117.893 128.824 117.663C128.534 117.083 128.844 118.96 128.846 119.608C128.847 119.955 128.846 120.302 128.846 120.648C128.846 121.434 129.265 121.637 129.924 121.307C130.178 121.18 130.98 121.17 130.577 120.796C130.06 120.318 129.562 119.995 129.322 119.274C129.131 118.7 128.75 116.996 129.123 117.471C129.726 118.238 129.029 119.606 129.612 120.466C129.915 120.912 130.501 120.812 130.974 120.812C131.327 120.812 131.28 121.346 131.059 121.493" stroke="#FF597D" stroke-linecap="round"/>
<path d="M128.727 118.066C128.401 118.07 128.26 118.474 128.208 118.796C128.009 120.02 127.81 121.245 127.611 122.47C129.142 122.438 130.868 122.32 131.864 121.157C130.492 120.926 129.467 119.444 129.735 118.079C130.222 118.832 130.882 119.474 131.648 119.941C132.03 120.174 132.47 120.402 132.62 120.823C132.866 121.52 132.173 122.164 131.568 122.588C130.962 123.012 130.285 123.688 130.571 124.37C130.011 123.725 129.192 123.311 128.34 123.245C127.853 123.207 127.314 123.264 126.924 122.968C126.295 122.493 126.51 121.503 126.857 120.796C127.204 120.088 127.627 119.249 127.237 118.564C126.946 118.051 126.263 117.798 126.109 117.228C125.885 116.398 126.914 115.819 127.747 115.606C128.327 115.458 128.937 115.326 129.518 115.471C130.099 115.615 130.634 116.119 130.613 116.717C130.337 117.492 129.549 118.055 128.727 118.066ZM130.087 116.48C129.254 116.009 128.145 116.084 127.383 116.663C127.134 116.853 126.906 117.185 127.057 117.46C128.142 117.53 129.248 117.172 130.087 116.48Z" fill="black"/>
<path d="M188.873 161.785C188.507 161.64 188.182 161.393 187.945 161.079C188.829 160.693 189.554 159.956 189.926 159.065C190.162 158.499 191.008 158.488 191.516 158.832C192.024 159.176 192.342 159.738 192.804 160.142C193.267 160.545 194.037 160.747 194.461 160.304C194.955 159.786 195.915 160.203 196.166 160.873C196.418 161.543 196.197 162.288 195.975 162.969C195.847 163.364 195.706 163.778 195.399 164.058C195.091 164.337 194.56 164.417 194.275 164.114C193.159 162.924 190.93 163.117 190.035 164.482C189.141 163.943 188.651 162.806 188.873 161.785ZM190.488 159.949C189.689 160.757 189.418 162.044 189.824 163.105C189.917 163.35 190.23 163.61 190.392 163.404C191.135 162.459 192.488 162.045 193.632 162.414C193.849 162.484 194.041 162.198 193.979 161.979C193.917 161.76 193.713 161.618 193.522 161.494C192.705 160.963 191.888 160.432 191.071 159.901C190.976 159.839 190.871 159.775 190.758 159.786C190.651 159.797 190.564 159.873 190.488 159.949ZM194.889 163.8C195.222 163.034 195.448 162.221 195.558 161.392C195.583 161.209 195.492 160.934 195.321 161.005C194.31 161.472 194.066 163.048 194.889 163.8Z" fill="black"/>
<path d="M163.424 162.247C161.905 161.079 159.982 160.143 159.349 158.336C158.272 155.262 154.857 153.656 153.166 150.872C151.739 148.522 151.696 145.578 152.122 142.862C153.19 136.056 157.398 129.437 163.842 127.001C166.917 125.838 170.273 125.676 173.56 125.71C176.389 125.739 179.314 125.928 181.834 127.214C184.355 128.499 186.378 131.145 186.113 133.962C186.006 135.095 185.546 136.183 185.524 137.321C185.466 140.44 188.522 142.59 191.223 144.15C193.828 145.655 196.434 147.159 199.039 148.663C200.384 149.439 200.567 151.271 200.596 152.823C200.673 157.068 200.75 161.313 200.828 165.558C200.843 166.406 200.857 167.268 200.638 168.087C200.402 168.972 199.906 169.762 199.418 170.536C194.548 178.256 189.264 186.357 181.047 190.332C179.249 191.202 177.352 191.849 175.461 192.494C173.694 193.096 171.926 193.699 170.159 194.301C168.853 194.746 167.508 195.197 166.13 195.119C164.753 195.04 163.32 194.304 162.836 193.012C162.556 192.262 162.623 191.43 162.74 190.638C163.14 187.941 164.079 185.325 165.486 182.99C167.449 179.731 168.628 175.931 168.4 172.133C168.172 168.335 166.44 164.565 163.424 162.247ZM157.374 153.247C161.033 156.65 164.284 160.491 167.035 164.662C167.983 166.098 168.881 167.593 169.386 169.238C170.366 172.428 169.783 175.908 168.651 179.047C167.518 182.186 165.858 185.108 164.601 188.199C163.904 189.91 163.473 192.201 164.935 193.332C166.137 194.262 167.864 193.779 169.292 193.257C171.434 192.475 173.576 191.692 175.717 190.909C177.495 190.259 179.277 189.608 180.965 188.751C188.676 184.838 193.614 177.145 198.181 169.801C198.594 169.137 199.012 168.461 199.227 167.708C199.45 166.925 199.443 166.097 199.433 165.283C199.391 161.692 199.348 158.101 199.306 154.51C199.291 153.247 199.264 151.932 198.692 150.805C197.673 148.795 195.296 147.984 193.252 147.036C190.184 145.615 187.44 143.501 185.283 140.898C184.727 140.227 184.195 139.492 184.023 138.638C183.719 137.118 184.608 135.625 184.74 134.082C184.956 131.554 183.048 129.227 180.748 128.156C178.448 127.086 175.826 127.008 173.289 126.988C170.883 126.969 168.448 126.989 166.121 127.596C159.19 129.405 154.448 136.315 153.43 143.405C153.142 145.416 153.12 147.556 154.019 149.378C154.779 150.918 156.117 152.078 157.374 153.247Z" fill="black"/>
<path d="M124.009 260.45C126.712 262.093 129.924 262.639 133.056 263.087C138.038 263.8 143.043 264.347 148.061 264.727C154.526 265.217 161.407 265.339 167.03 262.112C167.446 261.873 167.87 261.599 168.097 261.177C168.787 259.896 167.212 258.509 165.78 258.253C164.347 257.997 162.692 258.143 161.645 257.133C163.753 256.085 166.406 256.229 168.389 257.499C170.371 258.768 171.612 261.118 171.543 263.471C171.487 265.4 170.62 267.257 170.71 269.185C170.819 271.537 168.422 273.169 166.234 274.038C159.279 276.799 151.585 276.87 144.103 276.761C137.473 276.663 130.587 276.39 124.696 273.348C123.215 272.583 121.767 271.598 120.948 270.145C120.213 268.842 120.059 267.301 119.92 265.81C119.641 262.813 119.465 259.462 121.396 257.153C123.237 254.951 126.381 254.451 129.244 254.244C130.626 254.144 131.112 252.309 130.86 250.946C130.607 249.583 130.006 248.131 130.599 246.879C131.783 244.378 135.897 245.608 138.011 243.823C138.713 243.23 139.841 244.285 139.568 245.162C139.295 246.039 138.265 246.449 137.346 246.466C136.428 246.483 135.514 246.231 134.599 246.314C133.685 246.398 132.698 246.983 132.621 247.898C141.05 251.28 150.569 251.885 159.358 249.596C157.845 247.744 155.422 246.674 153.034 246.803C153.073 246.214 153.732 245.88 154.313 245.773C156.944 245.286 159.653 247.127 160.661 249.606C161.669 252.085 161.196 254.983 159.94 257.346C158.797 256.99 158.888 255.375 159.072 254.193C159.257 253.01 158.771 251.303 157.596 251.53C149.567 253.086 141.13 252.482 133.404 249.798C132.814 249.594 132.44 250.423 132.368 251.043C132.099 253.361 131.961 256.061 133.675 257.645C134.516 258.423 135.66 258.769 136.77 259.049C142.808 260.574 149.157 260.849 155.304 259.853C156.164 259.713 157.26 259.654 157.68 260.418C153.023 262.529 147.656 262.049 142.57 261.527C140.166 261.28 137.714 261.02 135.509 260.03C133.359 259.064 131.54 257.442 129.343 256.592C127.145 255.741 124.2 255.962 123.002 257.991C122.87 258.215 122.762 258.46 122.743 258.719C122.689 259.471 123.365 260.058 124.009 260.45ZM169.263 269.729C170.242 267.54 169.341 265.029 169.052 262.649C162.373 267.21 153.591 266.816 145.548 265.972C140.885 265.483 136.231 264.902 131.591 264.23C128.582 263.794 125.421 263.252 123.069 261.326C122.437 260.809 121.735 261.893 121.631 262.702C121.327 265.056 121.063 267.617 122.285 269.652C123.626 271.883 126.349 272.811 128.876 273.434C139.998 276.177 151.77 276.247 162.924 273.636C165.433 273.049 168.211 272.081 169.263 269.729Z" fill="black"/>
<path d="M183.008 75.5709C184.323 75.2843 185.668 75.7915 186.906 76.3188C210.594 86.4116 229.076 107.972 235.43 132.924C241.784 157.875 235.865 185.65 219.89 205.843C203.915 226.036 178.249 238.188 152.504 237.746C151.981 240.736 151.458 243.726 150.934 246.716C150.934 244.182 150.893 241.5 149.563 239.343C148.234 237.185 145.118 235.921 143.082 237.43C140.3 240.752 142.45 246.774 146.708 247.582C145.875 249.535 142.664 248.927 141.584 247.099C140.505 245.27 140.75 242.994 140.584 240.877C140.417 238.76 139.44 236.326 137.358 235.911C131.177 234.678 125.114 232.852 119.28 230.466C115.505 228.921 111.153 225.888 112.038 221.906C112.691 218.965 116.171 217.39 119.158 217.785C122.145 218.181 124.722 220.003 127.163 221.769C128.437 217.368 129.71 212.968 130.983 208.567C126.975 208.753 125.85 202.881 122.473 200.714C107.023 190.802 96.7229 173.281 95.576 154.96C94.4291 136.639 102.463 117.971 116.557 106.209C130.651 94.4474 150.455 89.883 168.276 94.2894C170.39 91.6884 174.343 90.7877 177.375 92.2159C180.21 90.7691 180.066 86.7559 179.709 83.5927C179.353 80.4296 179.898 76.2488 183.008 75.5709V75.5709ZM207.846 171.413C214.793 153.159 211.527 131.384 199.53 115.971C198.661 114.855 197.68 113.72 196.338 113.271C193.306 112.258 190.274 111.245 187.242 110.232C187.572 111.51 186.549 112.823 185.314 113.29C184.079 113.757 182.707 113.599 181.398 113.432C179.065 113.135 176.657 112.808 174.642 111.595C172.628 110.381 171.1 108.033 171.588 105.732C171.978 103.894 169.725 102.716 167.915 102.212C163.191 100.895 158.466 99.5776 153.741 98.2605C152.711 97.9734 151.609 97.6398 150.951 96.7971C150.293 95.9544 150.423 94.4426 151.435 94.0999C143.518 94.3115 135.654 96.3453 128.626 99.9992C134.229 102.903 139.938 105.885 144.324 110.422C147.764 113.981 150.35 118.75 149.933 123.682C149.572 127.955 146.966 131.82 143.572 134.441C140.178 137.063 136.053 138.57 131.893 139.615C125.757 141.158 118.323 141.401 114.101 136.688C112.873 135.317 110.678 135.672 108.898 136.14C105.894 136.93 102.89 137.72 99.8866 138.51C99.1873 138.694 98.3407 139.051 98.3169 139.774C98.2447 141.966 99.8691 144.096 102.002 144.607C104.135 145.118 106.548 143.954 107.476 141.967C108.036 140.77 109.722 140.583 110.957 141.052C112.193 141.52 113.215 142.439 114.444 142.925C116.392 143.694 118.678 143.308 120.562 144.223C123.704 145.748 124.24 150.028 123.64 153.469C122.528 159.855 118.907 165.771 113.725 169.666C110.324 172.222 110.915 177.52 112.626 181.415C114.337 185.31 116.882 189.226 116.288 193.438C113.954 188.559 111.978 183.509 110.381 178.341C109.5 175.491 108.995 171.791 111.425 170.059C116.588 166.381 120.419 160.873 122.071 154.753C123.061 151.084 122.569 146.075 118.933 144.972C117.523 144.545 115.965 144.862 114.565 144.404C113.393 144.02 112.454 143.133 111.328 142.628C110.203 142.124 108.618 142.167 108.024 143.248C106.001 146.931 99.7898 147.081 97.5899 143.501C95.0355 161.741 101.944 181.049 115.491 193.528C129.037 206.006 148.846 211.31 166.816 207.269C184.785 203.229 200.417 189.957 207.318 172.88C205.401 172.026 204.315 169.906 204.034 167.826C203.754 165.745 204.128 163.641 204.335 161.551C204.752 157.35 204.491 153.082 203.563 148.962C203.314 147.855 202.825 146.565 201.713 146.336C198.375 145.647 195.208 144.146 192.56 142.001C190.549 140.371 188.861 137.14 190.818 135.446C191.73 134.656 190.436 133.356 189.964 132.246C188.969 129.902 192.016 127.977 194.452 127.234C197.308 126.363 200.163 125.491 203.019 124.62C203.327 124.526 203.654 124.431 203.967 124.508C204.877 124.73 204.813 126.2 204.047 126.74C203.281 127.279 202.259 127.192 201.322 127.17C197.596 127.081 193.855 128.445 191.059 130.91C192.303 132.285 192.623 134.421 191.837 136.1C190.891 138.122 192.234 140.574 194.09 141.814C195.947 143.053 198.212 143.475 200.295 144.276C202.379 145.076 204.479 146.498 204.983 148.672C206.005 153.077 206.228 157.666 205.637 162.149C205.19 165.533 204.772 169.93 207.846 171.413ZM133.004 223.173C131.837 221.88 132.125 219.83 132.853 218.248C133.581 216.665 134.68 215.216 134.988 213.502C135.296 211.788 134.367 209.649 132.63 209.516C131.359 213.707 130.087 217.897 128.816 222.088C152.056 229.938 179.102 225.371 198.476 210.325C217.85 195.278 228.969 170.205 227.116 145.745C225.263 121.284 210.492 98.1724 189.072 86.2168C188.561 85.9317 187.989 85.6431 187.417 85.7672C186.683 85.9266 186.266 86.6836 185.943 87.3623C184.868 89.6239 183.793 91.8855 182.718 94.1471C185.251 95.6344 186.604 98.8831 185.876 101.729C200.371 110.916 210.465 126.743 212.681 143.761C214.897 160.778 209.194 178.663 197.536 191.256C185.877 203.849 168.484 210.912 151.346 210.012C147.33 209.801 143.004 209.244 139.543 211.293C135.542 213.662 134.104 218.654 133.004 223.173H133.004ZM187.722 78.301C186.4 77.7116 184.962 77.1453 183.543 77.4268C182.123 77.7082 180.862 79.2123 181.379 80.5639C206.264 90.7232 224.841 114.93 228.216 141.596C231.592 168.262 219.633 196.334 198.065 212.374C176.497 228.414 146.171 231.788 121.605 220.881C119.219 219.822 115.961 218.831 114.387 220.914C113.418 222.196 113.743 224.112 114.72 225.388C115.697 226.664 117.178 227.438 118.629 228.13C144.835 240.619 177.666 237.884 201.445 221.232C225.225 204.58 239.021 174.664 236.246 145.766C233.472 116.869 214.235 90.124 187.722 78.301ZM99.3519 137.351C102.41 136.516 105.468 135.681 108.526 134.847C110.635 134.271 113.246 133.829 114.703 135.46C117.055 138.092 120.697 139.297 124.227 139.364C127.757 139.431 131.224 138.48 134.581 137.389C139.158 135.902 144.033 133.805 146.224 129.52C147.511 127.002 148.834 124.327 148.659 121.504C148.498 118.903 147.086 116.567 145.713 114.351C144.56 112.488 143.377 110.592 141.692 109.192C138.817 106.804 134.756 106.092 132.129 103.434C130.611 101.897 128.198 101.522 126.092 102.001C123.985 102.479 122.123 103.687 120.384 104.97C110.417 112.323 102.905 122.947 99.2943 134.795C99.0358 135.643 98.8202 136.642 99.3519 137.351ZM186.149 109.708C187.125 108.305 189.329 108.794 190.783 109.692C192.237 110.591 193.804 111.807 195.459 111.382C186.417 102.211 174.304 96.1203 161.549 94.3323C158.247 93.8694 154.461 93.8403 152.088 96.1819C158.027 97.9634 163.967 99.7448 169.906 101.526C170.687 101.761 171.512 102.022 172.047 102.638C172.988 103.72 172.652 105.365 172.913 106.775C173.29 108.808 174.997 110.39 176.906 111.185C178.814 111.98 180.921 112.121 182.984 112.253C183.701 112.298 184.5 112.318 185.042 111.846C185.652 111.314 185.687 110.373 186.149 109.708ZM184.346 100.706C184.901 99.4928 184.401 98.003 183.479 97.0379C182.558 96.0728 181.293 95.5234 180.054 95.0266C177.883 94.1557 175.629 93.3609 173.29 93.298C172.704 93.2822 172.058 93.3363 171.638 93.745C171.217 94.1537 171.256 95.0229 171.817 95.1927C176.195 96.5169 180.412 98.3728 184.346 100.706ZM141.669 208.62C137.411 207.826 133.268 206.426 129.401 204.475C129.081 204.314 128.741 204.144 128.384 204.178C128.028 204.211 127.676 204.545 127.766 204.892C127.827 205.127 128.054 205.273 128.264 205.396C130.486 206.703 132.728 208.018 135.167 208.855C137.606 209.692 140.286 210.028 142.77 209.336C142.686 208.876 142.128 208.706 141.669 208.62ZM184.657 83.7862C184.323 83.2967 183.539 83.3321 183.076 83.7018C182.613 84.0715 182.39 84.6575 182.187 85.2145C181.339 87.5434 180.492 89.8723 179.644 92.2012C179.566 92.4151 179.487 92.6385 179.513 92.8648C179.586 93.5221 180.519 93.7602 181.085 93.4179C181.65 93.0756 181.919 92.4108 182.151 91.7916C182.966 89.6196 183.78 87.4475 184.594 85.2755C184.776 84.7908 184.949 84.2137 184.657 83.7862V83.7862Z" fill="black"/>
</g>
<defs>
<clipPath id="clip0_36_3">
<rect width="201.301" height="201.301" fill="white" transform="translate(66.052 75.488)"/>
</clipPath>
</defs>
</svg>
