<svg width="302" height="302" viewBox="0 0 302 302" fill="none" xmlns="http://www.w3.org/2000/svg">
<path fill-rule="evenodd" clip-rule="evenodd" d="M67.1083 211.677C85.2321 231.385 167.92 204.467 195.758 211.677C214.724 216.588 281.194 221.54 254.888 153.187C171.441 -63.635 9.68295 149.23 67.1083 211.677Z" fill="#FF597D"/>
<ellipse cx="141.955" cy="60.9568" rx="13.6689" ry="16.2597" fill="white"/>
<path fill-rule="evenodd" clip-rule="evenodd" d="M30.0001 264.527C25.7935 266.636 22.3393 269.171 23.6264 272.322C25.8692 277.812 32.9157 279.837 40.9286 281.455C52.1387 283.72 67.6997 284.004 87.8334 283.128C121.49 281.665 117.672 278.444 149.611 276.929C171.349 275.898 209.055 281.622 239.302 281.519C257.808 281.455 338.521 259.146 223.942 254.192C109.363 249.239 46.344 256.332 30.0001 264.527Z" fill="white"/>
<path fill-rule="evenodd" clip-rule="evenodd" d="M30.0001 264.527C25.7935 266.636 22.3393 269.171 23.6264 272.322C25.8692 277.812 119.061 260.124 151 258.609C172.737 257.578 205.873 264.631 236.12 264.527C254.626 264.464 296.885 260.704 223.942 254.192C151 247.68 46.344 256.332 30.0001 264.527Z" fill="#E7EAEE"/>
<path fill-rule="evenodd" clip-rule="evenodd" d="M90.065 253.425C59.5499 255.494 38.4412 259.168 29.5489 263.627C27.0605 264.875 25.2409 266.061 24.0238 267.34C22.4527 268.992 21.9213 270.81 22.6945 272.703C23.8591 275.554 26.2053 277.657 29.6943 279.256C32.4136 280.502 35.6435 281.404 40.4158 282.378L40.7293 282.442C51.4436 284.606 66.3099 285.072 87.8772 284.134L89.6617 284.054C102.169 283.475 108.744 282.764 118.47 281.212L121.124 280.783C130.887 279.216 136.999 278.544 149.21 277.956L150.232 277.909C158.81 277.534 166.721 277.939 188.558 279.672L200.946 280.662C203.768 280.884 206.163 281.064 208.578 281.238L211.149 281.418C222.026 282.165 230.864 282.54 238.884 282.526L239.306 282.525C244.071 282.509 252.691 281.072 261.075 278.893L261.73 278.721C270.858 276.304 278.322 273.389 282.138 270.491C287.375 266.513 285.944 262.406 277.605 259.589C268.578 256.54 250.995 254.354 223.986 253.187C170.264 250.864 124.924 251.061 90.065 253.425ZM223.899 255.198L225.497 255.269C251.423 256.445 268.34 258.585 276.96 261.497L277.351 261.631C280.805 262.844 282.666 264.134 283.083 265.33C283.421 266.301 282.755 267.494 280.92 268.888C277.369 271.585 270.101 274.422 261.207 276.777L260.569 276.944C252.441 279.057 244.086 280.46 239.479 280.511L239.299 280.512C230.804 280.541 221.384 280.126 209.556 279.289L205.708 279.009C203.237 278.824 200.6 278.618 197.35 278.358L189.431 277.722C166.45 275.893 158.582 276.301 149.564 276.729L147.787 276.816C136.365 277.394 130.279 278.08 120.808 279.6L117.82 280.082C108.012 281.64 101.394 282.327 88.2406 282.908L87.7897 282.928C66.5875 283.85 51.9381 282.602 41.4446 280.532L41.1279 280.469C31.0932 278.442 25.2207 276.944 23.5129 271.981C22.8059 269.927 25.6925 267.813 30.4514 265.427C39.0287 261.126 59.945 257.485 90.2012 255.433C124.98 253.075 170.247 252.879 223.899 255.198Z" fill="#00160A"/>
<path fill-rule="evenodd" clip-rule="evenodd" d="M130.386 53.1038C132.789 47.3552 139.26 43.5987 145.448 44.3604C141.467 42.2556 136.851 38.966 137.579 34.5247C138.139 31.1097 141.799 29.0398 145.235 28.5994C150.283 27.9521 155.983 30.2429 157.952 34.932C159.922 39.6212 156.409 46.1038 151.323 45.9045C155.602 50.1339 157.154 56.8969 155.148 62.5665C154.141 65.4133 149.782 65.5793 147.552 63.5419C145.321 61.5045 144.681 58.302 144.161 55.3276C141.652 56.9536 138.742 57.956 135.763 58.2202C137.168 58.693 138.349 59.7937 138.918 61.1619C136.437 59.2267 133.542 57.8258 130.484 57.0816C129.372 60.8151 128.248 64.6855 128.76 68.547C129.273 72.4085 131.887 76.2784 135.726 76.9617C144.425 78.5103 150.382 63.4734 159.182 64.281C162.806 64.6137 165.545 63.0042 166.86 59.6136C168.175 56.2231 166.984 52.0294 164.082 49.8348C162.358 49.9154 160.699 48.4821 160.531 46.765C160.363 45.0479 161.711 43.3205 163.419 43.0652C159.793 37.9004 160.706 30.0754 165.423 25.8822C170.14 21.6889 178.025 21.694 182.737 25.8933C180.157 21.7315 182.602 15.4438 187.286 14.005C191.969 12.5662 197.466 16.261 198.014 21.1259C198.562 25.9907 194.161 30.7722 189.261 30.7526C190.077 34.5172 193.526 37.5535 197.367 37.8869C195.725 39.7837 192.581 37.9961 191.22 35.889C189.859 33.782 188.567 31.0428 186.069 30.8095C189.138 34.4251 191.164 38.9159 191.841 43.6088C189.726 40.327 188.21 36.6606 187.39 32.8438C187.69 35.8967 187.119 39.0301 185.762 41.7816C187.361 41.0132 189.126 43.0498 188.869 44.8036C188.612 46.5573 187.202 47.8763 185.944 49.1258C182.363 52.6824 179.253 58.0842 181.615 62.5431C183.207 65.5477 186.686 66.9013 189.554 68.7296C195.737 72.6702 199.621 79.4999 201.499 86.583C203.377 93.6661 203.47 101.082 203.55 108.409C203.722 124.092 203.895 139.774 204.067 155.456C204.124 160.627 203.849 166.545 199.837 169.811C202.29 166.409 203.351 162.034 202.727 157.887C198.608 171.815 195.371 185.74 194.244 201.882C193.117 218.024 195.347 224.788 190.606 246.796C190.18 248.777 191.112 251.113 192.292 253.008C194.352 256.319 202.13 258.173 200.645 260.876C198.75 264.324 190.444 263.513 185.207 263.274C183.053 263.175 180.74 262.823 179.199 261.317C177.283 259.446 177.174 256.454 177.181 253.777C177.247 225.359 176.166 196.938 173.94 168.607C173.515 190.553 173.086 212.548 170.31 234.322C169.529 240.456 167.946 246.875 168.193 253.008C168.327 256.347 169.878 259.925 170.417 263.274C170.845 265.933 168.914 266.847 166.86 266.697C166.316 266.658 165.884 267.113 165.326 267.078C164.862 267.048 164.393 266.734 163.868 266.697C163.307 266.658 162.686 266.895 162.084 266.847C161.633 266.811 161.531 266.438 160.722 266.438C159.913 266.438 159.672 266.689 158.864 266.562C158.055 266.434 156.587 267.435 155.852 266.329C154.522 264.328 157.952 258.966 157.75 256.174C157.547 253.381 156.483 244.482 156.399 242.118C155.675 221.693 151.201 182.726 151.201 182.726C151.201 182.726 148.59 213.694 139.771 232.317C137.583 236.937 134.603 244.538 137.579 248.454C140.555 252.37 138.847 255.844 139.912 259.832C140.762 263.018 142.885 265.744 143.081 269.535C143.177 271.407 140.416 271.007 140.145 270.815C139.874 270.623 139.415 269.528 139.185 269.622C138.84 269.762 139.751 270.74 138.665 271.416C137.579 272.092 137.147 271.349 136.631 271.571C136.128 271.787 135.862 272.462 135.29 272.365C134.132 272.169 134.068 271.71 133.947 271.75C133.82 271.792 134.007 272.509 133.532 272.645C133.058 272.782 131.684 272.185 131.405 271.914C130.997 271.516 131.145 272.962 130.597 272.892C128.366 272.607 127.603 270.559 127.808 269.342C126.636 272.152 125.014 273.995 122.164 275.014C121.518 275.245 121.173 274.519 120.845 274.557C120.665 274.577 120.995 275.148 120.457 275.323C119.918 275.498 119.659 275.432 118.977 275.23C118.295 275.028 118.471 273.311 118.304 273.311C118.137 273.311 118.146 274.197 117.848 274.446C117.276 274.926 116.947 274.968 116.452 274.319C116.174 273.955 116.499 273.353 116.301 273.311C116.167 273.283 115.915 274.01 115.456 274.119C114.653 274.31 114.391 274.383 113.777 273.553C113.51 273.191 114.017 272.183 113.694 272.092C113.371 272.001 112.97 273.682 112.552 273.995C112.135 274.308 111.856 274.038 111.478 273.752C109.39 269.776 112.413 265.202 114.499 261.224C120.396 249.978 118.914 236.324 115.729 224.034C112.543 211.743 107.78 199.645 107.53 186.951C107.433 182.007 108.027 177.03 107.347 172.132C106.606 166.796 104.39 161.798 102.774 156.659C99.7061 146.897 98.8039 136.592 98.4027 126.368C98.0868 118.317 98.0845 110.136 100.198 102.36C102.311 94.5845 106.782 87.1621 113.694 83.0123C118.005 80.4242 123.349 78.9698 126.133 74.7849C128.738 70.87 128.283 65.7518 127.729 61.0838C125.886 60.7491 124.518 58.7603 124.867 56.9214C125.215 55.0825 127.216 53.7308 129.054 54.0925C128.257 52.5363 127.46 50.9801 126.664 49.424C127.174 50.1647 129.634 54.6021 129.48 48.9299C129.674 50.3389 130.02 50.7662 130.386 53.1038Z" fill="white"/>
<path fill-rule="evenodd" clip-rule="evenodd" d="M119.766 153.267C118.968 153.728 117.935 154.326 117.271 153.701C115.459 151.992 112.437 151.767 110.373 153.147L110.25 153.233L110.152 154.391C112.216 152.839 115.393 153.016 117.271 154.787C117.867 155.348 118.76 154.924 119.514 154.497L119.936 154.256C122.061 153.099 124.855 153.286 126.798 154.731C127.885 155.539 129.193 155.029 130.547 154.501C131.678 154.06 132.841 153.606 133.934 153.898C134.446 154.035 134.95 154.329 135.444 154.618C136.35 155.147 137.221 155.656 138.04 155.136C139.662 154.107 141.902 154.159 143.474 155.262L143.332 154.422L143.27 154.041C141.712 153.071 139.593 153.065 138.04 154.05C137.221 154.57 136.35 154.061 135.444 153.532C134.95 153.243 134.446 152.949 133.934 152.812C132.841 152.52 131.678 152.974 130.547 153.415C129.193 153.943 127.885 154.453 126.798 153.645C124.815 152.17 121.946 152.005 119.807 153.243L119.766 153.267ZM119.75 165.617C118.971 166.109 117.961 166.747 117.274 166.147C115.397 164.509 110.187 167.11 110.187 167.11C110.501 167.251 111.22 167.104 112.108 166.924C113.779 166.584 116.046 166.124 117.316 167.233C117.933 167.771 118.809 167.312 119.546 166.857L119.959 166.6C122.037 165.362 124.837 165.442 126.834 166.811C127.951 167.577 129.238 167.017 130.571 166.437C131.684 165.953 132.829 165.455 133.933 165.705C134.449 165.822 134.964 166.097 135.469 166.366C136.394 166.86 137.285 167.335 138.083 166.784L138.194 166.71C139.105 166.121 141.119 166.488 142.944 166.82C144.272 167.062 145.5 167.285 146.131 167.11C146.131 167.11 139.555 164.655 138.041 165.699C137.243 166.25 136.353 165.774 135.427 165.281C134.923 165.011 134.407 164.736 133.891 164.619C132.787 164.37 131.642 164.868 130.529 165.352C129.196 165.932 127.909 166.492 126.792 165.726C124.754 164.328 121.881 164.274 119.791 165.592L119.75 165.617ZM120.401 120.978C119.688 121.491 118.568 121.809 118.027 121.117C116.328 118.944 112.365 119.303 111.085 121.745C112.581 120.917 114.345 120.067 115.928 120.715C116.368 120.896 116.772 121.186 117.172 121.474C117.839 121.952 118.493 122.423 119.284 122.362C119.872 122.317 120.379 121.976 120.884 121.638C121.426 121.274 121.965 120.913 122.597 120.92C123.3 120.928 123.872 121.385 124.444 121.842C125.015 122.297 125.586 122.753 126.286 122.765C126.859 122.774 127.381 122.477 127.898 122.182C128.476 121.853 129.048 121.528 129.68 121.637C130.434 121.767 130.886 122.441 131.339 123.114C131.79 123.785 132.241 124.456 132.989 124.594C133.433 124.675 133.872 124.54 134.3 124.375L134.724 124.208C135.724 123.819 136.841 123.603 137.871 123.902C138.757 124.16 139.545 124.876 139.754 125.753C139.741 125.558 139.727 125.364 139.71 125.171L139.684 124.063C138.549 123.125 136.961 122.761 135.531 123.113C135.285 123.173 135.044 123.253 134.802 123.333C134.338 123.487 133.875 123.64 133.389 123.651C132.65 123.669 131.812 123.186 131.807 122.448L131.804 122.369C131.725 121.145 129.995 120.74 128.776 121.059C128.518 121.127 128.255 121.21 127.99 121.292C126.983 121.608 125.953 121.931 125.04 121.481C124.687 121.307 124.388 121.029 124.093 120.754C123.68 120.369 123.272 119.989 122.728 119.907C122.059 119.806 121.464 120.19 120.901 120.606L120.401 120.978ZM111.144 112.183C111.63 111.022 111.617 109.739 111.559 108.711C111.559 108.711 110.716 110.195 109.595 110.035L109.516 110.026C109.012 109.99 108.483 110.278 107.985 110.55C107.313 110.916 106.697 111.253 106.271 110.717C105.227 109.403 103.52 108.645 101.844 108.751C101.368 108.781 100.864 108.893 100.534 109.237C100.204 109.581 100.148 110.214 100.527 110.503C100.914 109.534 102.269 109.348 103.237 109.74C103.79 109.963 104.274 110.312 104.76 110.661C105.126 110.925 105.492 111.189 105.889 111.399C106.811 111.89 108.107 112.007 108.774 111.203L108.826 111.144C109.347 110.597 110.354 110.608 110.851 111.185C111.086 111.458 111.178 111.826 111.144 112.183ZM115.83 97.3918C114.692 97.9032 113.436 97.0028 112.588 96.0876L112.182 95.6513C111.434 94.8619 110.587 94.0992 109.536 94.1559C108.969 94.1866 108.446 94.4638 107.96 94.7575C106.508 95.6341 105.181 96.7172 104.032 97.964C105.147 98.0586 106.075 97.2919 106.995 96.5322C107.96 95.7344 108.917 94.9443 110.07 95.1671C110.95 95.3371 111.562 96.0517 112.173 96.7639C112.8 97.496 113.425 98.2256 114.337 98.3589C114.941 98.4473 115.533 98.2421 116.119 98.0392C116.261 97.9898 116.403 97.9406 116.545 97.8958C119.359 97.0055 122.666 97.9613 124.57 100.215C125.439 101.245 127.062 100.756 128.292 100.135L128.63 99.96C129.86 99.3391 131.489 98.8587 132.35 99.8948L132.431 99.9897C133.816 101.537 136.245 101.402 138.355 101.045L138.731 100.979C138.753 101.105 138.774 101.243 138.795 101.391L138.837 101.701C139.291 100.109 139.112 99.7449 138.731 100.589C138.048 99.9768 136.716 100.163 135.821 100.364L135.739 100.381C134.855 100.56 133.73 100.49 133.4 99.6648C132.796 98.1551 130.591 98.3658 129.087 98.9885L128.893 99.0682C127.42 99.6663 125.592 100.248 124.522 99.1154C122.36 96.8253 118.704 96.1003 115.83 97.3918ZM139.347 95.7483C139.364 95.2415 139.417 94.6383 139.514 93.9527L139.538 93.7862C138.502 93.1394 137.187 92.9572 136.014 93.2979C135.048 93.5783 134.235 92.9127 133.401 92.2308C132.659 91.6238 131.901 91.004 131.007 91.0267C130.285 91.0451 129.694 91.4772 129.095 91.9145C128.612 92.2676 128.124 92.6241 127.56 92.7686C126.184 93.1206 124.918 92.1578 123.793 91.2146L123.344 90.8366C122.111 89.7996 120.163 88.9616 119.017 90.095L118.944 90.1637C117.978 91.0272 116.4 90.7205 115.258 90.07C114.896 89.8639 114.547 89.6287 114.198 89.3937C113.417 88.8681 112.637 88.3437 111.726 88.149C110.408 87.8673 108.708 88.7692 108.886 90.1044C109.852 89.0814 111.478 88.7471 112.77 89.3058C113.379 89.5689 113.946 90.0087 114.504 90.4414C115.521 91.2293 116.507 91.9937 117.657 91.625C118.006 91.5129 118.309 91.3016 118.611 91.0898C118.868 90.9106 119.125 90.731 119.411 90.6109C120.865 90.0014 122.219 91.0369 123.589 92.085C124.913 93.0974 126.252 94.1216 127.711 93.6858C128.252 93.5241 128.727 93.1679 129.195 92.8166C129.836 92.3354 130.464 91.8632 131.237 91.9126C132.026 91.963 132.634 92.5497 133.216 93.1114C133.253 93.1479 133.291 93.1843 133.329 93.2205L133.489 93.3729C134.158 93.9979 135.167 94.534 135.945 94.0527C137.193 93.2818 138.876 94.3514 139.347 95.7483ZM140.449 89.6194C140.705 89.3126 140.945 88.9236 141.17 88.4524C141.474 87.8155 141.479 86.7194 141.17 87.3662C140.795 88.1516 139.928 88.7754 139.08 88.5761C138.707 88.4884 138.388 88.2594 138.071 88.0315C137.718 87.7779 137.367 87.5255 136.944 87.47C136.466 87.4072 136.015 87.6096 135.566 87.8109C135.422 87.8755 135.279 87.9399 135.134 87.9955C134.54 88.2241 133.719 88.2254 133.428 87.6597C132.425 85.7095 129.306 85.3554 127.89 87.0312C127.307 87.7216 126.149 87.279 125.535 86.6153C125.382 86.4496 125.237 86.2701 125.091 86.0903C124.652 85.5498 124.211 85.0063 123.557 84.8263C122.82 84.6234 122.106 84.9542 121.385 85.2884C120.734 85.5898 120.078 85.8939 119.394 85.8117C118.689 85.7271 118.13 85.2584 117.574 84.7918C117.387 84.6346 117.2 84.4775 117.008 84.3355C116.244 83.7721 115.009 83.4991 114.46 84.2724C115.402 84.4107 116.22 84.9181 117.039 85.4263C117.385 85.6408 117.731 85.8554 118.087 86.0425C119.286 86.673 120.948 86.9177 121.85 85.9074L121.904 85.8509C122.568 85.2056 123.752 85.7355 124.394 86.4407C124.511 86.5694 124.626 86.7053 124.743 86.8422C125.283 87.4763 125.843 88.133 126.646 88.2057C127.366 88.2709 127.985 87.8354 128.604 87.3996C129.22 86.9666 129.835 86.5332 130.552 86.5903C131.285 86.6488 131.825 87.1949 132.366 87.7424C132.898 88.2796 133.43 88.8181 134.147 88.898C134.532 88.9409 134.91 88.8399 135.288 88.7388C135.446 88.6967 135.603 88.6545 135.762 88.6227C137.235 88.3269 138.712 88.9339 140.082 89.5838L140.364 89.7186L140.449 89.6194ZM113.333 102.359C113.544 102.475 113.747 102.669 113.77 102.924C113.793 103.179 113.537 103.447 113.325 103.332C112.499 102.881 111.501 103.23 110.67 103.67C110.573 103.721 110.475 103.774 110.377 103.827C109.638 104.227 108.875 104.64 108.062 104.565C107.357 104.5 106.703 104.078 106.063 103.665C105.213 103.116 104.389 102.584 103.505 102.927C103.057 103.101 102.721 103.472 102.383 103.845C102.132 104.122 101.88 104.4 101.579 104.601C101.493 104.658 101.396 104.711 101.296 104.695C101.021 104.65 101.034 104.211 101.153 103.94C101.926 102.179 104.131 101.355 105.746 102.224C106.027 102.376 106.291 102.57 106.554 102.763L106.554 102.763C107.007 103.096 107.458 103.428 107.991 103.535C108.853 103.709 109.694 103.253 110.486 102.824C110.541 102.794 110.595 102.765 110.649 102.736C111.488 102.285 112.497 101.9 113.333 102.359ZM120.021 104.638C121.225 105.294 122.806 105.215 123.935 104.442C124.738 103.892 125.855 104.356 126.613 104.966C126.762 105.086 126.91 105.214 127.059 105.341C127.662 105.86 128.274 106.387 129.051 106.497C129.685 106.587 130.297 106.38 130.912 106.171C131.421 105.998 131.932 105.825 132.461 105.817C133.344 105.805 134.138 106.248 134.919 106.684L134.919 106.684L134.919 106.684L134.919 106.684L134.919 106.684C135.086 106.778 135.253 106.871 135.42 106.959C136.364 107.459 137.582 107.801 138.463 107.2L134.438 105.506C133.883 105.273 133.312 105.036 132.709 105.011C132.16 104.989 131.622 105.144 131.087 105.298C130.468 105.477 129.853 105.654 129.226 105.556C128.438 105.434 127.816 104.911 127.198 104.39C126.994 104.218 126.79 104.047 126.581 103.891C125.738 103.259 124.413 102.892 123.701 103.665C123.065 104.356 121.933 104.333 121.049 103.994C120.631 103.834 120.238 103.618 119.845 103.402C119.408 103.161 118.971 102.921 118.5 102.758C117.605 102.448 116.458 102.505 115.894 103.255C115.84 103.499 116.135 103.697 116.389 103.683C116.552 103.673 116.704 103.612 116.856 103.551C116.941 103.517 117.027 103.482 117.114 103.457C117.887 103.233 118.592 103.707 119.292 104.178L119.292 104.178L119.292 104.178L119.292 104.178L119.292 104.178C119.535 104.341 119.777 104.504 120.021 104.638ZM140.58 143.423C140.256 144.257 139.109 144.382 138.327 143.994C137.868 143.767 137.48 143.425 137.091 143.082L137.091 143.082L137.091 143.082C136.816 142.84 136.54 142.597 136.238 142.394C135.51 141.904 134.444 141.704 133.839 142.349C132.337 143.952 129.953 144.596 127.888 143.958C127.097 143.714 126.37 143.305 125.643 142.896L125.643 142.895L125.643 142.895L125.643 142.895L125.643 142.895L125.643 142.895C125.235 142.666 124.828 142.436 124.409 142.236C123.24 141.676 121.849 141.348 120.683 141.914C120.238 142.13 119.861 142.46 119.483 142.79C119.16 143.073 118.835 143.356 118.468 143.569C117.221 144.29 115.614 144.079 114.385 143.328C114.174 143.2 113.97 143.056 113.766 142.912L113.766 142.912C113.3 142.583 112.835 142.255 112.293 142.111C111.515 141.903 110.497 142.3 110.412 143.129C109.865 142.304 110.745 141.122 111.707 141.045C112.669 140.967 113.543 141.575 114.334 142.148C115.125 142.722 116.014 143.315 116.973 143.204C117.775 143.112 118.398 142.563 119.029 142.008C119.457 141.631 119.889 141.25 120.384 141.006C122.024 140.197 123.95 141.026 125.551 141.915C127.152 142.804 128.944 143.794 130.69 143.278C131.378 143.075 131.974 142.656 132.571 142.237L132.571 142.237C132.802 142.075 133.033 141.913 133.269 141.763C134.115 141.226 135.176 140.84 136.086 141.249C136.486 141.429 136.806 141.74 137.127 142.051L137.127 142.051C137.272 142.192 137.417 142.333 137.57 142.462C138.404 143.167 139.507 143.519 140.58 143.423ZM149.068 176.688C148.133 177.895 146.244 177.483 144.815 176.945C143.385 176.408 141.512 175.968 140.547 177.151C140 177.824 138.916 177.717 138.158 177.295C137.833 177.115 137.533 176.889 137.235 176.665C136.837 176.366 136.44 176.067 135.984 175.874C134.207 175.123 132.272 176.167 130.545 177.098L130.39 177.181L130.239 177.262C128.437 178.227 125.898 178.842 124.595 177.268C123.706 176.192 121.977 176.464 120.725 177.084C120.471 177.21 120.218 177.347 119.963 177.485L119.963 177.485C118.963 178.026 117.949 178.575 116.84 178.477C115.856 178.39 114.969 177.804 114.101 177.23C112.999 176.503 111.927 175.795 110.726 176.152C110.348 176.264 110.008 176.477 109.67 176.69L109.67 176.69C109.24 176.96 108.814 177.228 108.317 177.285C108.319 176.054 109.665 175.179 110.896 175.201C112.075 175.221 113.152 175.814 114.189 176.385L114.328 176.461C115.407 177.053 116.589 177.627 117.813 177.487C118.658 177.39 119.405 176.967 120.153 176.543C120.476 176.36 120.798 176.178 121.129 176.021C122.228 175.5 123.726 175.341 124.503 176.276C125.514 177.494 127.411 177.517 128.901 176.984C129.605 176.732 130.27 176.384 130.933 176.035C131.675 175.646 132.416 175.257 133.212 175.003C134.72 174.523 136.639 174.691 137.518 176.007C138.056 176.814 139.277 176.755 140.171 176.38C140.42 176.275 140.665 176.152 140.91 176.03L140.91 176.03L140.911 176.03C141.546 175.712 142.182 175.394 142.882 175.39C143.626 175.385 144.35 175.735 145.057 176.077C145.996 176.531 146.907 176.972 147.801 176.55L149.068 176.688ZM129.08 132.814C128.067 132.991 127.159 132.449 126.239 131.899C125.45 131.426 124.651 130.949 123.77 130.917C122.72 130.879 121.779 131.473 120.847 132.062C119.82 132.709 118.805 133.35 117.669 133.132C117.217 133.046 116.808 132.828 116.399 132.609L116.399 132.609C116.195 132.5 115.991 132.391 115.782 132.298C114.212 131.602 112.268 131.882 110.949 132.992C111.202 131.824 112.372 131.025 113.544 130.929C114.716 130.833 115.866 131.315 116.859 131.956C117.705 132.502 118.832 132.276 119.727 131.82C120.085 131.637 120.427 131.421 120.769 131.206C121.281 130.882 121.793 130.559 122.357 130.35C123.929 129.767 125.818 130.206 126.986 131.426C127.697 132.167 128.911 131.969 129.854 131.579C129.989 131.523 130.126 131.463 130.263 131.404C131.08 131.05 131.925 130.683 132.774 130.885C133.527 131.064 134.123 131.656 134.707 132.235C135.418 132.941 136.111 133.629 137.048 133.532C137.353 133.501 137.638 133.382 137.924 133.263L137.924 133.263L137.924 133.263L137.924 133.263C138.134 133.176 138.344 133.088 138.563 133.035C139.081 132.909 139.762 133.088 139.874 133.618C138.391 134.183 136.662 134.731 135.299 133.911C134.872 133.653 134.508 133.274 134.149 132.899C133.58 132.305 133.022 131.722 132.239 131.654C131.599 131.599 131.029 131.916 130.451 132.236C130.009 132.481 129.564 132.729 129.08 132.814ZM122.345 113.17C122.886 112.829 123.427 112.487 124.059 112.436C125.021 112.358 125.829 112.959 126.613 113.542C126.787 113.672 126.961 113.801 127.134 113.922C128.087 114.582 129.651 114.92 130.279 113.973C130.647 113.419 131.528 113.386 132.141 113.688C132.588 113.907 132.941 114.251 133.295 114.594C133.428 114.723 133.56 114.852 133.698 114.974C134.273 115.486 134.983 115.904 135.769 115.976C136.555 116.048 137.414 115.706 137.758 115.032C135.896 115.412 133.828 114.58 132.823 113.048C132.317 112.275 131.063 112.647 130.242 113.12C129.421 113.592 128.214 114.027 127.636 113.3C126.288 111.607 123.377 111.307 121.676 112.686C120.846 113.36 119.541 112.911 118.707 112.243C118.488 112.067 118.278 111.877 118.067 111.686L118.067 111.686L118.067 111.686C117.474 111.149 116.88 110.611 116.102 110.41C114.736 110.058 113.171 111.106 113.066 112.444C113.45 112.489 113.853 112.289 114.031 111.964C114.429 111.24 115.517 111.104 116.311 111.421C116.942 111.674 117.445 112.127 117.946 112.578C118.075 112.694 118.204 112.81 118.334 112.922C118.973 113.471 119.763 113.97 120.622 113.905C121.257 113.858 121.801 113.514 122.345 113.17Z" fill="#FFB61D"/>
<path fill-rule="evenodd" clip-rule="evenodd" d="M130.386 53.1038C132.789 47.3552 139.26 43.5987 145.448 44.3604C141.467 42.2556 136.851 38.966 137.579 34.5247C138.139 31.1097 141.799 29.0398 145.235 28.5994C150.283 27.9521 155.983 30.2429 157.952 34.932C159.922 39.6212 156.409 46.1038 151.323 45.9045C155.602 50.1339 157.154 56.8969 155.148 62.5665C154.141 65.4133 149.782 65.5793 147.552 63.5419C145.321 61.5045 144.681 58.302 144.161 55.3276C141.652 56.9536 138.742 57.956 135.763 58.2202C137.168 58.693 138.349 59.7937 138.918 61.1619C136.437 59.2267 133.542 57.8258 130.484 57.0816C129.372 60.8151 128.248 64.6855 128.76 68.547C129.273 72.4085 131.887 76.2784 135.726 76.9617C140.15 77.7493 143.865 74.247 147.605 70.7208C151.22 67.3136 154.858 63.8841 159.182 64.281C162.806 64.6137 165.545 63.0042 166.86 59.6136C168.175 56.2231 166.984 52.0294 164.082 49.8348C162.358 49.9154 160.699 48.4821 160.531 46.765C160.363 45.0479 161.711 43.3205 163.419 43.0652C159.793 37.9004 160.706 30.0754 165.423 25.8822C170.14 21.6889 178.025 21.694 182.737 25.8933C180.157 21.7315 182.602 15.4438 187.286 14.005C191.969 12.5662 197.466 16.261 198.014 21.1259C198.562 25.9907 194.161 30.7722 189.261 30.7526C190.077 34.5172 193.526 37.5535 197.367 37.8869C195.725 39.7837 192.581 37.9961 191.22 35.889C191.026 35.5882 190.833 35.2745 190.638 34.957C189.466 33.0509 188.211 31.0095 186.069 30.8095C189.138 34.4251 191.164 38.9159 191.841 43.6088C189.726 40.327 188.21 36.6606 187.39 32.8438C187.69 35.8967 187.119 39.0301 185.762 41.7816C187.361 41.0132 189.126 43.0498 188.869 44.8036C188.625 46.4713 187.337 47.7459 186.13 48.9414L185.944 49.1258C182.363 52.6824 179.253 58.0842 181.615 62.5431C182.838 64.8514 185.175 66.1853 187.493 67.5086L187.493 67.5087C188.192 67.9078 188.89 68.306 189.554 68.7296C195.737 72.6702 199.621 79.4999 201.499 86.583C203.377 93.6661 203.47 101.082 203.55 108.409L204.067 155.456C204.124 160.627 203.849 166.545 199.837 169.811C202.29 166.409 203.351 162.034 202.727 157.887C198.608 171.815 195.371 185.74 194.244 201.882C193.878 207.122 193.866 211.374 193.855 215.481C193.83 224.022 193.808 231.933 190.606 246.796C190.18 248.777 191.112 251.113 192.292 253.008C193.184 254.443 195.151 255.604 196.972 256.679C199.354 258.085 201.487 259.345 200.645 260.876C198.928 263.999 191.954 263.628 186.763 263.353L186.761 263.353L186.759 263.352C186.22 263.324 185.7 263.296 185.207 263.274C183.053 263.175 180.74 262.823 179.199 261.317C177.283 259.446 177.174 256.454 177.181 253.777C177.247 225.359 176.166 196.938 173.94 168.607C173.515 190.553 173.086 212.548 170.31 234.322C170.078 236.145 169.775 237.993 169.47 239.852C168.75 244.246 168.02 248.698 168.193 253.008C168.272 254.969 168.839 257.013 169.404 259.045C169.8 260.471 170.195 261.892 170.417 263.274C170.845 265.933 168.914 266.847 166.86 266.697C166.589 266.677 166.345 266.781 166.1 266.885C165.854 266.99 165.605 267.095 165.326 267.078C165.1 267.063 164.872 266.981 164.638 266.897C164.391 266.808 164.137 266.716 163.868 266.697C163.595 266.678 163.308 266.724 163.015 266.771L163.015 266.771L163.015 266.771C162.707 266.821 162.393 266.871 162.084 266.847C161.899 266.832 161.773 266.761 161.633 266.682C161.431 266.568 161.2 266.438 160.722 266.438C160.379 266.438 160.138 266.483 159.912 266.525C159.606 266.583 159.329 266.635 158.864 266.562C158.594 266.519 158.25 266.603 157.884 266.691C157.156 266.868 156.342 267.066 155.852 266.329C155.097 265.194 155.875 262.977 156.652 260.761C157.245 259.071 157.838 257.382 157.75 256.174C157.663 254.981 157.419 252.672 157.162 250.235C156.817 246.969 156.447 243.471 156.399 242.118C155.675 221.693 154.095 201.111 150.901 180.924C145.65 184.488 139.915 187.337 133.903 189.369C131.789 190.083 131.291 192.792 131.145 195.016C130.071 211.3 129.071 228.14 134.667 243.472C141.928 224.526 147.391 204.892 150.96 184.92C149.211 201.138 145.302 217.121 139.368 232.317C137.37 237.434 134.603 244.538 137.579 248.454C139.449 250.915 139.47 253.201 139.491 255.549C139.503 256.938 139.516 258.35 139.912 259.832C140.236 261.046 140.744 262.193 141.261 263.357C142.1 265.249 142.96 267.188 143.081 269.535C143.177 271.407 140.416 271.007 140.145 270.815C140.031 270.734 139.882 270.492 139.732 270.246C139.527 269.91 139.317 269.567 139.185 269.622C139.062 269.671 139.098 269.827 139.147 270.037C139.235 270.419 139.365 270.98 138.665 271.416C137.992 271.835 137.57 271.709 137.224 271.605C137.011 271.541 136.827 271.486 136.631 271.571C136.434 271.656 136.273 271.811 136.116 271.962C135.873 272.197 135.638 272.424 135.29 272.365C134.469 272.226 134.198 271.954 134.066 271.823C134.012 271.769 133.982 271.739 133.947 271.75C133.904 271.765 133.897 271.857 133.888 271.978C133.871 272.213 133.845 272.555 133.532 272.645C133.058 272.782 131.761 272.232 131.482 271.961C131.28 271.764 131.195 272.007 131.095 272.294C130.993 272.587 130.874 272.927 130.597 272.892C128.366 272.607 127.603 270.559 127.808 269.342C126.636 272.152 125.014 273.995 122.164 275.014C121.768 275.156 121.485 274.938 121.25 274.756C121.101 274.642 120.972 274.542 120.845 274.557C120.779 274.564 120.782 274.645 120.785 274.754C120.79 274.942 120.798 275.212 120.457 275.323C119.918 275.498 119.659 275.432 118.977 275.23C118.523 275.095 118.449 274.289 118.401 273.765C118.377 273.503 118.36 273.311 118.304 273.311C118.228 273.311 118.189 273.493 118.14 273.715C118.082 273.983 118.011 274.31 117.848 274.446C117.276 274.926 116.947 274.968 116.452 274.319C116.297 274.116 116.329 273.839 116.354 273.627C116.374 273.458 116.389 273.33 116.301 273.311C116.249 273.301 116.18 273.403 116.087 273.539C115.941 273.754 115.737 274.052 115.456 274.119L115.429 274.126C114.647 274.311 114.384 274.374 113.777 273.553C113.644 273.373 113.703 273.034 113.755 272.727C113.809 272.416 113.857 272.138 113.694 272.092C113.523 272.043 113.329 272.494 113.123 272.974C112.941 273.4 112.749 273.848 112.552 273.995C112.168 274.282 111.902 274.078 111.568 273.821C111.539 273.798 111.509 273.775 111.478 273.752C109.628 270.228 111.791 266.236 113.759 262.604C114.012 262.138 114.262 261.677 114.499 261.224C120.396 249.978 118.914 236.324 115.729 224.034C114.906 220.857 113.977 217.693 113.048 214.529L113.048 214.528C110.383 205.449 107.716 196.364 107.53 186.951C107.496 185.212 107.548 183.469 107.599 181.726C107.693 178.515 107.788 175.307 107.347 172.132C106.821 168.343 105.55 164.723 104.28 161.103C103.761 159.626 103.243 158.148 102.774 156.659C99.7061 146.897 98.8039 136.592 98.4027 126.368C98.0868 118.317 98.0845 110.136 100.198 102.36C102.311 94.5845 106.782 87.1621 113.694 83.0123C114.951 82.2576 116.296 81.5994 117.639 80.9417C120.904 79.3439 124.161 77.7496 126.133 74.7849C128.738 70.87 128.283 65.7518 127.729 61.0838C125.886 60.7491 124.518 58.7603 124.867 56.9214C125.215 55.0825 127.216 53.7308 129.054 54.0925L126.664 49.424C126.712 49.4945 126.779 49.5985 126.859 49.7242L126.859 49.7244L126.859 49.7245C127.619 50.9187 129.62 54.0615 129.48 48.9299C129.568 49.5712 129.688 50.0091 129.827 50.5163C129.993 51.1235 130.187 51.8301 130.386 53.1038ZM197.524 158.371C198.024 157.772 198.217 156.981 198.378 156.218C200.926 144.171 199.114 132.057 193.349 121.174C180.562 122.268 167.666 122.088 154.914 120.638C153.027 120.424 151.822 122.559 151.222 124.359C147.89 134.366 146.704 145.08 147.766 155.572C147.949 157.381 150.123 158.168 151.92 158.455C156.039 159.114 158.314 158.691 161.689 158.065C164.28 157.584 167.519 156.983 172.738 156.659C173.354 156.621 173.327 154.512 173.291 151.825C173.253 148.957 173.207 145.431 173.924 143.055C176.137 180.964 177.684 218.912 178.564 256.876C178.591 258.058 178.642 259.318 179.324 260.284C180.29 261.654 182.163 261.97 183.837 262.086C189.02 262.446 198.902 262.656 199.306 260.758C199.052 259.064 197.123 258.099 195.316 257.195L195.315 257.195C194.953 257.014 194.597 256.836 194.259 256.655C191.361 255.098 189.821 251.73 189.531 248.454C189.271 245.528 189.841 242.61 190.406 239.718L190.406 239.715L190.476 239.36L190.517 239.146L190.558 238.936L190.606 238.684C192.319 229.725 193.051 220.579 192.782 211.463C192.759 210.673 192.728 209.883 192.698 209.093V209.093C192.59 206.322 192.482 203.549 192.696 200.787C192.963 197.348 193.723 193.974 194.483 190.605C194.639 189.91 194.796 189.215 194.948 188.521C197.013 179.09 198.287 169.487 198.75 159.844C191.204 163.124 182.096 162.549 175.024 158.347C181.161 160.765 187.945 160.713 194.464 159.698C195.588 159.523 196.796 159.245 197.524 158.371ZM202.586 99.6951C201.788 92.6995 200.13 85.8023 197.661 79.2078C197.213 78.0121 196.519 77.1106 195.776 76.1451C195.567 75.8743 195.355 75.5985 195.143 75.3097C193.375 72.9007 190.819 71.3278 188.249 69.7468C186.24 68.5109 184.224 67.27 182.569 65.6207C180.298 67.7239 177.152 68.8522 174.061 68.6717C170.97 68.4913 167.976 67.0046 165.966 64.6516C165.817 64.4777 165.554 64.4743 165.326 64.4867C161.524 64.6921 157.703 65.3842 154.258 67.003C150.812 68.6217 147.754 71.2249 146.03 74.6168C145.326 76.003 144.853 77.4934 144.41 78.9839C142.173 86.5231 140.633 94.2687 139.816 102.09C139.767 102.558 139.737 103.083 140.038 103.444C140.242 103.688 140.557 103.805 140.86 103.902C143.515 104.753 146.396 104.891 149.121 104.297L141.531 103.229C141.08 103.166 140.494 102.685 140.859 102.412C140.978 102.323 141.142 102.337 141.289 102.355L150.232 103.475C150.63 103.525 150.865 103.042 150.93 102.647C151.12 101.503 150.973 100.299 150.828 99.1097C150.61 97.326 150.396 95.5746 151.328 94.1061C152.147 102.065 151.997 110.124 150.883 118.047C150.753 118.972 151.963 119.428 152.891 119.538C165.597 121.044 178.442 121.386 191.211 120.559C193.206 120.43 194.715 118.521 195.072 116.555C195.428 114.589 194.905 112.582 194.385 110.653L190.473 96.1275C190.236 95.2481 190.058 94.1566 190.745 93.5583L193.117 102.717C193.215 103.095 193.35 103.519 193.703 103.685C193.962 103.806 194.266 103.75 194.545 103.692L200.774 102.398C201.298 102.289 201.859 102.16 202.221 101.766C202.711 101.232 202.668 100.415 202.586 99.6951ZM139.528 96.0408C139.528 95.1425 139.819 93.7588 140.141 92.223C141.121 87.561 142.394 81.4975 136.726 83.3564L136.626 83.3889C134.375 84.1277 131.714 85.0007 129.301 84.2342C126.853 83.4564 124.775 81.5856 123.747 79.2332C124.4 78.7507 125.207 79.5526 125.702 80.1955C128.102 83.3126 132.767 84.4301 136.321 82.7393C138.061 81.9113 138.073 79.4794 137.82 77.57C133.995 78.8606 129.342 76.1708 128.555 72.2147C127.8 74.8453 126.044 77.1762 123.724 78.6304C122.851 79.1773 121.91 79.6004 120.969 80.0233L120.968 80.0238L120.967 80.0242L120.967 80.0245L120.966 80.0248C120.672 80.1572 120.377 80.2896 120.085 80.4258C108.508 85.8198 100.315 97.8344 99.5268 110.573C99.4919 111.138 99.6064 111.883 100.165 111.975L108.756 113.387C108.858 113.404 108.953 113.423 109.043 113.441C109.508 113.535 109.862 113.606 110.626 113.255C111.538 112.836 111.71 108.394 111.624 107.017C111.538 105.64 111.447 103.883 112.694 103.291C112.808 107.747 112.077 112.153 111.346 116.563C110.752 120.143 110.157 123.727 110.014 127.344C109.968 128.508 110.004 129.675 110.039 130.842C110.079 132.126 110.118 133.409 110.048 134.685C109.125 151.492 108.958 189.643 108.958 189.643C108.958 189.643 125.183 188.376 131.145 186.951C139.934 184.851 145.683 182.286 148.584 180.992C149.913 180.399 150.645 180.073 150.797 180.18C150.262 177.061 148.853 170.965 147.22 163.898C144.015 150.033 139.945 132.426 139.912 126.218C139.909 125.787 139.71 125.208 139.546 124.731C139.301 124.02 139.134 123.535 139.814 124.106L139.682 118.558C139.652 117.279 139.562 114.474 139.468 113.84C138.454 107.023 138.919 102.712 139.268 99.4837C139.407 98.1934 139.528 97.076 139.528 96.0408ZM161.083 264.707C161.227 266.438 162.412 266.681 163.419 265.846C163.751 265.571 163.873 264.588 163.997 263.593C164.019 263.412 164.042 263.23 164.066 263.052C164.251 263.485 164.278 264.134 164.304 264.736C164.338 265.546 164.368 266.271 164.777 266.271C166.403 266.271 166.144 263.439 166.021 262.1L166.021 262.098C166.013 262.01 166.006 261.929 165.999 261.855C166.333 261.37 166.873 262.67 166.736 263.422C166.598 264.174 166.581 265.139 167.123 265.679C167.987 266.537 169.321 265.15 169.482 263.944C169.762 261.837 169.051 259.817 168.334 257.78C167.828 256.343 167.319 254.898 167.154 253.408C166.937 251.464 167.313 249.511 167.683 247.587L167.738 247.298C171.097 229.768 171.647 211.839 172.187 193.999L173.264 158.467C165.388 160.363 157.12 160.615 149.144 159.202C148.699 159.123 148.549 159.776 148.599 160.225C149.528 168.533 150.825 176.812 152.122 185.087C154.584 200.799 157.045 216.499 156.977 232.373C156.973 233.459 156.956 234.548 156.94 235.638L156.94 235.638C156.867 240.483 156.794 245.34 157.75 250.077C157.838 250.514 157.935 250.954 158.032 251.395C158.516 253.588 159.007 255.813 158.467 257.966C158.249 258.836 157.865 259.69 157.485 260.538C156.756 262.162 156.037 263.764 156.507 265.417C156.642 265.891 157.01 266.413 157.496 266.329C158.094 266.226 158.097 265.495 158.099 264.778C158.102 264.056 158.104 263.348 158.713 263.309C158.607 264.383 159.223 266.173 159.924 265.959C160.371 265.959 160.452 265.153 160.539 264.29C160.599 263.69 160.663 263.061 160.853 262.656C161.204 263.222 161.147 263.793 161.102 264.234C161.084 264.417 161.067 264.578 161.083 264.707ZM146.318 147.354C146.275 142.191 147.282 137.083 148.285 132.018C149.1 127.901 149.967 123.658 152.336 120.193C151.629 120.525 150.757 120.014 150.419 119.311C150.08 118.608 150.129 117.788 150.185 117.01L150.959 106.267C151.001 105.686 150.739 104.842 150.184 105.019C147.319 105.93 144.147 105.846 141.335 104.785C140.914 104.626 140.656 105.247 140.636 105.696C139.72 126.476 146.382 155.186 146.318 147.354ZM135.607 268.47C136.021 268.412 136.334 269.353 136.594 270.137C136.721 270.519 136.836 270.863 136.943 271.036C137.289 271.592 138.232 271.38 138.565 270.815C138.741 270.516 138.712 269.822 138.688 269.235C138.666 268.714 138.648 268.277 138.78 268.277C139.519 268.277 139.757 268.868 139.983 269.431C140.207 269.988 140.42 270.518 141.097 270.421C141.65 270.342 142.007 269.786 142.163 269.25C142.728 267.309 141.671 265.524 140.592 263.701C140.009 262.716 139.419 261.72 139.076 260.683C138.616 259.294 138.608 257.813 138.601 256.334C138.593 254.776 138.585 253.22 138.049 251.775C137.705 250.85 137.16 250.018 136.617 249.19C136.506 249.021 136.394 248.851 136.285 248.681C130.689 239.972 129.68 229.151 129.48 218.804C129.298 209.437 129.652 200.06 130.537 190.734L127.031 191.235L109.357 193.763C112.052 209.728 116.516 225.334 120.971 240.901C121.541 242.89 122.112 244.885 122.905 246.796C123.753 248.839 124.852 250.778 126.171 252.555C128.148 255.219 127.999 258.812 127.86 262.151C127.854 262.293 127.848 262.435 127.843 262.576C127.834 262.796 127.824 263.02 127.814 263.245C127.666 266.563 127.495 270.389 130.386 271.856C131.097 272.217 130.999 271.554 130.878 270.733C130.784 270.097 130.677 269.366 130.919 268.942C130.998 269.707 131.086 270.5 131.482 271.16C131.878 271.819 132.675 272.305 133.414 272.092C133.622 271.978 133.536 271.47 133.432 270.861C133.321 270.207 133.19 269.437 133.381 268.909C133.612 269.286 133.713 269.68 133.819 270.091C133.931 270.529 134.049 270.987 134.334 271.463C134.829 272.289 136.076 271.823 136.159 271.059C136.206 270.63 136.025 270.231 135.848 269.84C135.643 269.385 135.442 268.941 135.607 268.47ZM107.179 167.292C108.21 154.691 109.242 142.067 109.099 129.425C109.097 129.194 109.094 128.963 109.091 128.733C109.066 126.813 109.041 124.891 109.239 122.982C109.446 120.993 109.895 119.03 110.574 117.149L100.068 115.87C99.923 115.853 99.7543 115.843 99.6529 115.948C99.5764 116.028 99.5648 116.147 99.5576 116.258C98.4208 133.552 101.039 151.083 107.179 167.292ZM194.066 105.515L195.347 110.688C195.782 112.445 196.22 114.235 196.117 116.042C196.014 117.849 195.287 119.71 193.808 120.756C198.33 127.135 199.875 135.178 200.124 142.991C200.256 147.145 200.055 151.298 199.854 155.452V155.452V155.452V155.452V155.452V155.452V155.452V155.452V155.453V155.453V155.453V155.453V155.453V155.453V155.453V155.454C199.677 159.111 199.501 162.769 199.551 166.428C202.6 158.328 202.722 149.466 202.807 140.812L203.035 117.459C203.082 112.67 203.128 107.863 202.5 103.115L195.143 104.568C194.615 104.672 193.937 104.993 194.066 105.515ZM167.476 25.5922C164.134 27.2772 162.401 31.2444 162.479 34.9841C162.511 36.5445 162.952 38.3034 164.325 39.0482C165.208 39.5274 166.366 39.446 167.173 38.8482C167.98 38.2504 168.395 37.1672 168.193 36.1837C168.097 35.7168 168.731 35.3615 169.168 35.5531C169.605 35.7446 169.816 36.2488 169.878 36.7214C169.902 36.9035 169.91 37.0879 169.918 37.272C169.932 37.5657 169.945 37.8589 170.022 38.1417C170.233 38.9222 170.96 39.5353 171.765 39.6127C172.571 39.6901 173.401 39.2266 173.758 38.5007C173.85 38.3131 173.913 38.1098 173.977 37.9073C174.085 37.5624 174.193 37.22 174.438 36.962C174.827 36.5525 175.769 36.7488 175.644 37.2999C175.39 38.4271 176.579 39.5387 177.729 39.4123C178.879 39.2859 179.763 38.1887 179.892 37.0403L179.902 36.953C179.971 36.3246 180.06 35.5157 180.671 35.4612C181.18 35.9686 181.297 36.7284 181.412 37.4776C181.541 38.3144 181.667 39.138 182.337 39.5818C183.287 40.2114 184.597 39.5002 185.243 38.5617C186.166 37.2216 186.348 35.4706 186.018 33.878C185.688 32.2854 184.89 30.8272 183.982 29.4778C183.298 28.4619 182.537 27.4843 181.602 26.693C178.691 24.2303 174.487 23.9103 170.734 24.5906C169.612 24.7939 168.494 25.0791 167.476 25.5922ZM120.176 241.377C119.776 243.521 119.611 245.682 119.446 247.842C119.282 250.003 119.117 252.164 118.717 254.307C118.603 254.915 117.734 256.572 116.629 258.678C114.415 262.901 111.254 268.927 111.342 271.914C111.358 272.453 111.602 273.515 112.059 273.449C112.918 273.325 113.077 272.377 113.226 271.495C113.244 271.387 113.262 271.28 113.281 271.176C113.456 270.219 113.601 269.928 114.564 270.069C114.859 270.162 114.859 270.534 114.526 271.176C114.193 271.818 113.949 272.627 114.339 273.236C114.729 273.845 115.961 273.682 115.9 272.962C115.852 272.386 116.262 271.806 116.821 271.659C117.009 271.987 116.929 272.431 116.853 272.847C116.76 273.362 116.674 273.835 117.114 273.995C117.716 274.214 118.04 273.32 118.153 272.689C118.265 272.059 119.119 271.381 119.391 271.961C118.67 272.836 117.925 274.905 119.918 274.905C120.472 274.905 120.464 274.001 120.456 273.098C120.452 272.646 120.448 272.195 120.514 271.856C121.047 271.822 121.263 272.551 121.168 273.075C121.145 273.2 121.117 273.309 121.091 273.408C121.007 273.726 120.949 273.945 121.204 274.262C121.677 274.852 122.631 274.411 123.175 273.885C125.277 271.85 126.4 269.33 126.83 266.438C127.26 263.546 127.055 260.601 126.849 257.684C126.742 256.168 126.599 254.554 125.67 253.351C122.962 249.845 121.067 245.716 120.176 241.377ZM174.029 39.866C172.986 40.9453 171.03 40.9338 169.999 39.8425C169.904 39.7413 169.815 39.6324 169.727 39.5236C169.546 39.3007 169.365 39.0783 169.125 38.9236C168.768 38.6933 168.205 38.692 167.999 39.063C167.137 40.6144 164.797 41.0811 163.405 39.979L166.291 50.9686C166.829 53.0144 167.422 55.1615 168.914 56.6623C169.855 57.6097 171.086 58.2199 172.344 58.6696C173.02 58.9114 173.726 59.1138 174.444 59.0935C175.248 59.0708 176.02 58.7699 176.731 58.3946C179.713 56.8204 181.835 53.917 183.032 50.7662C184.229 47.6153 184.583 44.2106 184.726 40.8436C183.107 41.395 181.146 40.6447 180.31 39.1539C179.194 40.2319 177.432 40.5825 175.988 40.014C175.933 39.9926 175.878 39.9702 175.821 39.9474C175.202 39.6981 174.474 39.4053 174.029 39.866ZM154.464 52.7902C153.474 49.6026 151.013 46.7935 147.81 45.8463C146.653 45.5043 145.436 45.4054 144.23 45.4321C138.472 45.5598 132.575 49.0853 130.935 54.6021C130.804 55.0418 130.707 55.5422 130.938 55.9386C131.161 56.3202 131.619 56.4869 132.046 56.6024C135.778 57.6118 139.961 56.7836 143.026 54.4288L143.106 54.3674C143.443 54.1068 143.792 53.8368 144.211 53.7728C144.662 53.7037 145.204 54.0005 145.202 54.4568C145.182 58.3709 147.145 62.561 150.797 63.9749C151.559 64.2696 152.487 64.4138 153.14 63.9246C153.558 63.6118 153.773 63.1032 153.952 62.6129C155.093 59.4766 155.453 55.9777 154.464 52.7902ZM138.962 37.2221C139.66 38.7986 140.944 40.0375 142.287 41.1194C144.624 43.0022 147.38 44.5871 150.38 44.6947C153.38 44.8024 156.597 43.0497 157.37 40.1512C157.772 38.6424 157.489 37.032 157.008 35.5464C156.506 33.9953 155.716 32.4297 154.321 31.5857C150.554 29.3084 145.675 28.9815 141.638 30.7358C140.777 31.11 139.933 31.5898 139.345 32.3208C138.264 33.6642 138.264 35.6456 138.962 37.2221ZM194.534 25.6169C196.208 22.5341 195.887 18.48 193.749 15.6986C193.44 15.2966 193.087 14.9123 192.636 14.6795C192.195 14.4518 191.689 14.3839 191.193 14.3656C188.687 14.2728 186.166 15.4272 184.6 17.3841C183.033 19.341 182.461 22.0528 183.103 24.4749C183.46 24.3061 183.596 23.8772 183.697 23.4952C183.797 23.1133 183.937 22.6845 184.297 22.5217C184.657 22.3589 185.182 22.7875 184.942 23.1008C184.138 24.1475 183.753 25.5066 183.889 26.8188C184.023 27.106 184.436 26.7839 184.551 26.4887L185.065 25.1649C185.186 24.8536 185.321 24.5229 185.598 24.3362C185.876 24.1495 186.336 24.2031 186.448 24.5177L185.175 27.1494C185.01 27.489 184.92 28.0208 185.28 28.1343L188.832 25.4212C189.286 25.9357 188.868 26.7649 188.316 27.1719C188.146 27.2967 187.963 27.4075 187.779 27.5181C187.365 27.7682 186.951 28.0174 186.708 28.426C187.914 28.5693 189.136 28.575 190.342 28.4431C190.987 28.3727 191.636 28.2604 192.224 27.9887C193.244 27.5177 193.998 26.6035 194.534 25.6169ZM167.728 64.7434C169.024 66.0815 170.915 66.6391 172.738 67.022C175.443 67.5899 178.547 67.7988 180.688 66.0533C181.127 65.6954 181.536 65.116 181.298 64.6023C180.291 62.4315 179.918 59.9722 180.235 57.601C179.79 57.5259 179.433 57.9392 179.144 58.2849C178.047 59.5938 176.447 60.5333 174.74 60.6092C172.369 60.7146 170.259 59.2252 168.358 57.8044C168.214 59.4081 167.77 60.9844 167.057 62.4284C166.677 63.1972 167.131 64.1272 167.728 64.7434ZM109.219 192.073C109.834 192.461 110.618 192.408 111.342 192.34C122.133 191.335 133.256 190.044 142.678 184.692C134.794 187.602 126.391 188.762 118.064 189.904C115.043 190.319 111.968 190.733 108.958 190.248C108.363 190.666 108.604 191.685 109.219 192.073ZM138.533 77.8598L138.78 80.8851C138.801 81.1411 138.825 81.4062 138.951 81.6297C139.105 81.9012 139.387 82.0706 139.657 82.2278L141.777 83.4633C141.878 83.5227 141.997 83.5842 142.109 83.5483C142.244 83.5053 142.298 83.3478 142.334 83.211L144.262 75.8768C142.302 76.38 140.384 77.0439 138.533 77.8598ZM109.713 115.894C109.892 115.901 110.079 115.907 110.245 115.84C110.696 115.656 110.777 115.064 110.789 114.577C107.043 114.247 103.325 113.611 99.6822 112.68C99.1437 113.073 99.2466 113.968 99.7184 114.44C100.19 114.912 100.886 115.066 101.543 115.18C104.239 115.645 106.98 115.78 109.713 115.894ZM127.448 59.4671C128.016 59.6647 128.547 59.039 128.671 58.4511C128.712 58.2567 128.732 58.0556 128.752 57.8549C128.792 57.4486 128.833 57.0443 129.045 56.7028C129.36 56.1978 128.926 55.4832 128.349 55.3387C127.771 55.1941 127.167 55.4641 126.692 55.8232C125.913 56.4122 125.317 57.4824 125.766 58.3494C126.083 58.9627 126.796 59.24 127.448 59.4671ZM187.695 43.5688C187.644 43.3685 187.571 43.1675 187.434 43.013C187.028 42.5565 186.223 42.7229 185.826 43.1867C185.429 43.6505 185.33 44.2923 185.254 44.898C185.159 45.6541 185.074 46.4114 184.998 47.1697C184.979 47.368 185.055 47.6571 185.249 47.6108C186.954 47.2038 188.127 45.2672 187.695 43.5688ZM163.76 48.1136C163.887 48.0416 164.009 47.9479 164.073 47.8173C164.173 47.6161 164.12 47.3761 164.064 47.1585L163.736 45.8679C163.606 45.3597 163.408 44.7743 162.909 44.612C162.351 44.4308 161.787 44.9155 161.531 45.442C161.151 46.2204 161.186 47.2517 161.804 47.8582C162.308 48.352 163.147 48.4615 163.76 48.1136ZM188.461 29.8358C188.035 29.622 187.533 29.5627 187.069 29.6713C187.458 30.1063 188.115 30.2786 188.668 30.0903C188.826 30.0055 188.665 29.7037 188.506 29.7877L188.461 29.8358ZM193.491 102.264L200.764 100.499C200.89 100.468 201.033 100.44 201.144 100.502C201.43 100.663 201.085 101.035 200.773 101.153C198.791 101.897 196.684 102.376 194.545 102.569C194.152 102.604 193.66 102.583 193.491 102.264ZM132.819 62.1798C133.042 62.0578 133.125 61.8259 133.208 61.5927C133.244 61.4939 133.279 61.3948 133.325 61.3038C133.481 60.998 134.038 60.8037 134.17 61.1185C134.64 62.2421 135.923 63.0399 137.244 63.0294C137.717 63.0257 137.909 63.6677 137.623 64.0113C137.337 64.3549 136.819 64.4476 136.348 64.4853C135.952 63.9268 135.27 63.6347 134.589 63.3429C133.899 63.0472 133.209 62.7518 132.819 62.1798ZM144.926 69.4186C144.693 69.3831 144.536 69.1733 144.382 68.9684C144.212 68.7408 144.046 68.5193 143.786 68.5499C142.878 68.6571 142.321 67.596 142.034 66.7207C141.919 66.3708 142.031 65.78 142.371 65.9163C143.24 66.8719 144.443 67.5127 145.716 67.6979C146.209 67.7697 146.844 67.8879 146.929 68.383L145.468 69.2469C145.301 69.3455 145.117 69.4477 144.926 69.4186ZM140.676 71.6492C137.839 72.6376 134.29 71.3639 132.948 68.8754C132.799 68.5991 132.283 68.7156 132.16 69.0026C132.037 69.2896 132.179 69.6109 132.341 69.8809C133.171 71.2619 134.628 72.3166 136.289 72.739C137.95 73.1613 139.794 72.9458 141.285 72.155C141.193 71.885 140.965 71.5485 140.676 71.6492ZM137.906 65.3766C138.151 65.0517 138.421 64.7222 138.795 64.5639C139.168 64.4056 139.672 64.4817 139.874 64.8343C139.128 65.5053 138.455 66.2566 137.868 67.071C137.645 67.3802 137.425 67.7399 137.486 68.1165C137.546 68.4931 138.051 68.7822 138.321 68.5131C138.522 68.3118 138.915 68.5218 138.932 68.8065C138.948 69.0912 138.692 69.3339 138.415 69.3984C138.138 69.4629 137.849 69.3924 137.576 69.3141C137.094 69.1763 136.56 68.9569 136.395 68.4825C136.245 68.0475 136.47 67.5789 136.703 67.1821C137.07 66.5581 137.472 65.9549 137.906 65.3766ZM170.493 42.6413C171.066 42.6866 171.81 43.0699 171.576 43.5555C171.171 43.871 170.613 43.7648 170.067 43.6608L170.067 43.6608C169.904 43.6299 169.743 43.5992 169.586 43.5798C168.921 43.4972 168.255 43.6449 167.591 43.7921C166.859 43.9546 166.129 44.1164 165.406 43.9676C165.21 43.8435 165.242 43.5476 165.408 43.3903C165.573 43.233 165.819 43.178 166.051 43.1301C167.512 42.8278 169.001 42.5235 170.493 42.6413ZM179.195 43.0432C180.186 43.1652 181.199 43.1408 182.182 42.9714C182.333 42.5109 181.629 42.2399 181.103 42.189L178.633 41.9503C178.099 41.8988 177.525 41.8545 177.06 42.0977C176.595 42.3408 176.365 42.9955 176.764 43.3209C177.324 42.8068 178.229 42.9213 179.034 43.023L179.035 43.0231L179.106 43.0321L179.195 43.0432ZM180.31 46.6576C180.276 46.7606 180.14 46.7965 180.024 46.8117C178.963 46.9514 177.846 46.6862 176.99 46.0915C176.785 45.9497 176.582 45.7664 176.56 45.5316C176.538 45.2968 176.813 45.0473 177.039 45.1576C178.221 45.7348 179.774 45.5873 180.804 44.7999C181.049 44.613 181.461 44.8399 181.494 45.1311C181.527 45.4224 181.296 45.6895 181.025 45.8417C180.862 45.9327 180.684 45.9949 180.506 46.0571C180.387 46.0989 180.267 46.1408 180.152 46.1914C180.103 46.3573 180.167 46.5471 180.31 46.6576ZM177.027 51.5924C177.847 51.0013 178.597 50.0055 178.243 49.0646C176.771 51.0392 174.212 52.1651 171.744 51.9236C171.322 51.8823 170.957 52.2886 170.92 52.7063C170.882 53.1241 171.092 53.5265 171.35 53.8588C172.546 55.3951 174.883 55.8114 176.675 55.026C178.467 54.2406 179.682 52.4391 180.033 50.5315C180.105 50.1414 180.136 49.7081 179.914 49.3781C179.692 49.0481 179.123 48.9433 178.905 49.276C179.286 49.8189 179.274 50.5478 179.102 51.1867C178.746 52.5133 177.74 53.6527 176.458 54.179C175.177 54.7053 173.651 54.6065 172.45 53.9195C172.257 53.8093 172.06 53.6692 171.993 53.4592C171.926 53.2492 172.07 52.9692 172.292 52.9809C173.968 53.069 175.67 52.57 177.027 51.5924ZM171.514 45.5944C170.657 47.4592 168.226 47.9144 166.349 47.291C165.811 47.1121 165.89 46.1844 166.371 45.8728C166.852 45.5613 167.468 45.6761 168.019 45.8047C168.571 45.9333 169.183 46.0566 169.671 45.7576C169.863 45.6403 170.014 45.4688 170.166 45.2969C170.296 45.1498 170.426 45.0025 170.582 44.8886C170.92 44.6417 171.515 44.6701 171.609 45.0912C171.647 45.261 171.587 45.4374 171.514 45.5944ZM172.751 45.0416L172.353 48.4491C172.323 48.708 172.295 48.9824 172.407 49.2189C172.577 49.5781 173.045 49.7382 173.438 49.6433C173.83 49.5484 174.143 49.2481 174.346 48.9054C174.552 48.5561 174.42 47.8968 174.032 48.0324C173.928 48.0687 173.854 48.1594 173.781 48.2483C173.694 48.3552 173.608 48.4596 173.475 48.464C173.168 48.4742 173.173 48.0138 173.275 47.7297C173.701 46.5478 173.767 45.2439 173.462 44.0267C172.999 44.0106 172.804 44.5909 172.751 45.0416ZM143.973 63.2492C145.294 63.7317 146.484 64.5617 147.391 65.6316C147.497 65.7568 147.602 65.893 147.629 66.0545C147.668 66.2932 147.496 66.547 147.259 66.6017C145.898 65.0661 144.013 63.9967 141.99 63.6119C142.301 62.9432 143.277 62.9951 143.973 63.2492ZM135.7 219.785C135.338 219.754 134.967 219.723 134.66 219.595C134.494 219.526 134.348 219.427 134.202 219.328L134.202 219.328C134.063 219.234 133.923 219.139 133.766 219.071C133.444 218.93 132.967 218.95 132.819 219.235C133.883 220.197 135.561 220.614 137.052 220.286C136.807 219.878 136.264 219.832 135.7 219.785ZM188.824 200.534L191.501 199.956C191.733 199.906 192.066 199.946 192.08 200.238C190.865 201.281 189.271 201.616 187.847 201.129C188.039 200.73 188.454 200.613 188.824 200.534ZM151.283 135.653C150.747 135.784 150.207 135.916 149.751 136.203C150.772 136.686 152.012 136.367 153.052 135.921C155.389 134.918 157.416 133.295 158.83 131.292C159.378 130.516 159.849 129.56 159.517 128.684C158.985 128.782 158.737 129.337 158.535 129.806C157.344 132.567 154.723 134.757 151.647 135.562C151.527 135.593 151.405 135.623 151.283 135.653ZM197.018 136.879C196.739 137.286 196.102 137.165 195.646 136.964C192.111 135.408 189.752 131.596 189.978 127.806C189.988 127.639 190.01 127.455 190.135 127.341C190.26 127.226 190.519 127.259 190.544 127.424C190.776 128.92 191.012 130.43 191.577 131.838C192.142 133.246 193.072 134.563 194.407 135.322C194.684 135.479 194.979 135.614 195.273 135.748L195.273 135.748L195.273 135.748L195.273 135.748C195.923 136.046 196.572 136.342 197.018 136.879ZM161.496 202.444C160.643 202.215 159.785 201.985 158.922 202.074C160.619 203.482 163.192 203.866 165.264 203.019C165.34 202.687 164.773 202.658 164.424 202.741C163.454 202.97 162.478 202.708 161.496 202.444ZM169.408 127.968C169.752 128.04 170.025 127.692 170.203 127.389C170.947 126.119 171.433 125.657 172.406 124.731L172.471 124.67C172.522 125.375 172.577 125.787 172.632 126.198C172.688 126.61 172.743 127.021 172.794 127.726C172.811 127.955 172.833 128.198 172.974 128.379C173.367 128.884 174.197 128.45 174.531 127.904C175.306 126.639 175.076 124.848 174.006 123.819C173.732 123.555 174.137 123.059 174.511 123.133C174.885 123.206 175.114 123.578 175.274 123.923C175.737 124.928 176.006 126.067 175.761 127.145C175.515 128.224 174.664 129.209 173.569 129.37C173.183 129.427 172.753 129.368 172.471 129.097C172.161 128.801 172.104 128.335 172.064 127.909L171.936 126.52C171.572 126.741 171.339 127.113 171.108 127.484C170.854 127.891 170.601 128.296 170.178 128.495C169.512 128.808 168.661 128.415 168.316 127.765C167.971 127.115 168.057 126.304 168.368 125.637C168.679 124.97 169.187 124.418 169.694 123.885C170.001 123.563 170.328 123.231 170.751 123.093C171.174 122.956 171.72 123.086 171.903 123.491C170.275 123.874 169.004 125.438 168.963 127.108C168.955 127.459 169.064 127.895 169.408 127.968ZM117.36 214.329C117.425 214.421 117.528 214.467 117.627 214.505C119.498 215.22 121.514 214.253 123.301 213.305C123.504 213.197 123.744 212.947 123.608 212.745C123.539 212.642 123.406 212.631 123.291 212.638C122.598 212.675 121.928 212.986 121.266 213.293C120.365 213.71 119.48 214.121 118.573 213.828C118.504 213.806 118.435 213.779 118.366 213.753C118.154 213.672 117.941 213.59 117.724 213.626C117.434 213.673 117.177 214.072 117.36 214.329Z" fill="#00160A"/>
<path fill-rule="evenodd" clip-rule="evenodd" d="M145.727 38.6209C145.919 39.8342 146.633 40.977 147.691 41.7659C148.128 42.0917 148.371 42.6107 148.324 43.1149C148.437 43.3591 147.918 43.3775 147.682 43.2159C146.302 42.2698 145.297 40.901 144.882 39.3991C144.803 39.1124 144.753 38.7827 144.951 38.545C145.148 38.3073 145.681 38.3285 145.727 38.6209V38.6209Z" fill="#00160A"/>
<path fill-rule="evenodd" clip-rule="evenodd" d="M140.648 53.5158C141.509 52.9849 142.436 52.3028 143.401 52.541C140.652 55.6639 136.26 56.4835 132.338 55.7897C132.011 55.732 131.648 55.639 131.471 55.335C131.293 55.031 131.52 54.5007 131.838 54.6035C134.748 55.5464 138.005 55.1443 140.648 53.5158V53.5158Z" fill="#00160A"/>
<circle cx="131.269" cy="66.8427" r="1.61067" fill="#FFB61D"/>
<circle cx="143.349" cy="72.0773" r="1.61067" fill="#FFB61D"/>
<circle cx="168.516" cy="51.34" r="1.00667" fill="#FFB61D"/>
<circle cx="181.804" cy="50.5347" r="1.00667" fill="#FFB61D"/>
</svg>
