<svg width="337" height="337" viewBox="0 0 337 337" fill="none" xmlns="http://www.w3.org/2000/svg">
<path d="M62.0109 164.425C59.8563 164.698 58.5518 163.09 56.9647 162.169C56.7322 162.034 56.5504 161.417 56.6387 161.12C57.1603 159.361 57.6771 157.588 58.3822 155.907C58.8048 154.899 59.6799 154.76 60.5966 155.441C61.1963 155.886 61.8395 156.266 62.4565 156.686C64.4437 158.04 64.6792 158.855 63.6746 161.088C63.1829 162.181 62.6328 163.245 62.0109 164.425ZM59.3597 158.13C59.0274 159.157 58.6952 160.184 58.363 161.21C59.3326 161.44 60.6193 162.171 61.191 161.772C61.8957 161.28 62.4743 159.706 62.2446 158.857C61.998 157.946 60.8843 156.869 59.3597 158.13Z" fill="#92763A"/>
<path d="M277.691 83.5453C275.536 83.8181 274.232 82.2099 272.645 81.2885C272.412 81.1535 272.23 80.5374 272.319 80.2401C272.84 78.4813 273.357 76.7085 274.062 75.0268C274.485 74.0188 275.36 73.8798 276.277 74.5605C276.876 75.0059 277.52 75.3859 278.137 75.8063C280.124 77.1602 280.359 77.9746 279.355 80.2078C278.863 81.3009 278.313 82.3649 277.691 83.5453ZM275.04 77.2499C274.708 78.2768 274.375 79.3036 274.043 80.3305C275.013 80.5602 276.299 81.2913 276.871 80.892C277.576 80.3996 278.154 78.8257 277.925 77.9772C277.678 77.0662 276.564 75.9888 275.04 77.2499Z" fill="#92763A"/>
<path d="M123.385 291.609C92.896 290.214 56.0368 223.993 89.8772 200.986C123.718 177.979 113.718 111.509 113.718 111.509C117.897 84.3604 120.775 57.7039 150.275 44.1479C166.428 36.7256 189.823 48.2911 204.127 42.0964C237.066 27.831 246.088 22.6777 259.399 43.8661C298.023 105.349 237.205 153.91 250.669 204.16C257.923 231.232 266.912 258.162 257.284 278.31C247.657 298.458 243.53 287.898 216.735 295.078C203.361 298.661 188.623 306.503 172.821 307.446C157.018 308.389 161.462 301.17 147.429 294.985C138.643 291.112 130.534 299.187 123.385 291.609Z" fill="#FF597D"/>
<path fill-rule="evenodd" clip-rule="evenodd" d="M150.751 256.12C147.943 254.66 145.652 251.6 145.294 248.385C144.951 245.297 147.056 241.892 148.617 239.382C148.996 238.773 149.408 238.199 149.819 237.627C150.458 236.738 151.093 235.854 151.595 234.85C151.693 234.653 151.794 234.449 151.897 234.24C152.524 232.968 153.241 231.511 154.074 230.47C155.102 229.185 155.987 227.851 156.888 226.491L156.89 226.487L156.895 226.48C157.048 226.249 157.202 226.018 157.356 225.786C157.771 225.164 158.233 224.564 158.696 223.964C159.402 223.048 160.109 222.131 160.649 221.131C161.421 219.702 162.617 218.249 163.667 217.016C164.384 216.174 164.982 215.258 165.581 214.342C166.102 213.545 166.623 212.747 167.224 211.996C167.875 211.182 168.396 210.277 168.917 209.374C169.301 208.708 169.684 208.042 170.12 207.413C170.968 206.188 171.884 204.432 172.213 202.982C172.356 202.352 172.567 201.767 172.775 201.187C173.083 200.333 173.386 199.49 173.463 198.532C173.605 196.75 173.464 195.527 172.823 193.877C172.728 193.633 172.649 193.375 172.569 193.116C172.437 192.687 172.304 192.253 172.095 191.865C171.983 191.387 171.66 191.668 171.191 192.076C170.213 192.926 168.598 194.331 166.928 190.573C166.551 189.818 166.34 188.922 166.14 188.074C166.091 187.867 166.043 187.663 165.994 187.464C165.472 185.378 165.47 182.904 165.965 180.814C166.134 180.101 166.254 179.361 166.374 178.624C166.435 178.244 166.497 177.866 166.565 177.492C166.742 176.516 167.027 174.436 166.927 173.443C166.491 170.932 164.94 167.36 163.306 163.595C161.577 159.613 159.754 155.415 159.058 152.03C158.459 149.752 157.53 147.873 156.475 145.762C153.777 144.67 151.042 143.749 148.285 142.83C144.77 141.658 142.281 139.788 140.096 136.753C138.376 134.363 137.148 131.264 136.501 128.417C136.28 127.445 136.196 126.469 136.112 125.491C136.055 124.819 135.997 124.147 135.895 123.475C135.73 122.394 136.067 121.072 136.377 119.856C136.502 119.368 136.622 118.896 136.704 118.464C137.254 115.547 138.885 112.91 140.454 110.373C140.81 109.797 141.164 109.226 141.5 108.658C142.869 106.348 144.846 104.252 146.758 102.225C147.383 101.563 148.001 100.908 148.589 100.255C148.92 99.887 149.197 99.478 149.475 99.0681C149.737 98.6819 149.999 98.2948 150.307 97.9407C150.819 97.3537 151.355 96.8426 151.898 96.325C152.172 96.0637 152.447 95.8007 152.723 95.5255C153.386 94.8622 153.981 94.1374 154.576 93.4127C155.211 92.6389 155.847 91.8653 156.564 91.1669C158.15 89.6245 165.579 79.0827 166.853 75.424C167.442 74.1146 168.078 72.8187 168.714 71.523C169.48 69.962 170.246 68.4014 170.929 66.8182C171.195 66.2027 171.573 65.6424 171.952 65.0819C172.39 64.4324 172.829 63.7827 173.092 63.0468C173.432 62.1002 173.94 61.237 174.448 60.3738C174.754 59.8536 175.06 59.3333 175.329 58.7947C176.964 55.5258 179.133 52.4937 181.421 49.6343C183.642 46.8577 187.334 44.8721 190.729 44.0234C191.729 43.7735 192.128 43.7816 192.973 43.7988C193.228 43.804 193.523 43.81 193.887 43.81C195.893 43.3764 196.945 43.7083 197.876 44.0022C198.197 44.1034 198.504 44.2001 198.83 44.2594C200.103 44.4908 201.583 45.2865 202.649 46.0567C204.836 47.6362 208.838 52.8709 208.266 59.0873C207.858 63.5252 204.29 74.5155 203.323 76.836C203.061 77.4655 202.921 78.477 202.794 79.3851C202.728 79.8598 202.666 80.3063 202.593 80.6553C202.441 81.3751 202.281 82.3939 202.2 83.1267C202.018 84.7668 202.209 85.7863 202.593 87.4086C202.665 87.7141 202.741 88.0193 202.816 88.3246L202.816 88.3265C202.935 88.8047 203.053 89.2831 203.159 89.763C203.28 90.3039 203.594 90.8938 203.885 91.4385L203.885 91.4389C203.977 91.6119 204.067 91.7803 204.148 91.9411C204.177 91.9989 204.206 92.0577 204.235 92.1175C204.256 92.1597 204.277 92.2023 204.298 92.2453L204.35 92.3504C204.996 93.6644 205.81 95.3191 207.037 96.0205C207.561 96.1514 207.957 96.2912 208.359 96.433C208.736 96.566 209.118 96.7007 209.614 96.8313L209.845 96.8919C210.74 97.1259 211.612 97.3539 212.432 97.7717C214.952 99.0553 216.8 101.115 218.324 103.459C218.597 103.879 218.827 104.388 219.014 104.854C219.262 105.475 219.514 105.822 219.979 106.305C220.041 106.369 220.105 106.433 220.169 106.498C220.557 106.888 220.977 107.311 221.109 107.848C221.21 108.264 221.385 108.568 221.578 108.907L221.579 108.908L221.58 108.909C221.626 108.991 221.674 109.074 221.722 109.162C221.843 109.381 221.901 109.597 221.958 109.811C222.034 110.094 222.109 110.373 222.325 110.649C222.65 111.064 222.743 111.488 222.85 111.977C222.859 112.018 222.868 112.059 222.877 112.1C222.981 112.567 223.137 113.03 223.294 113.494C223.437 113.916 223.58 114.339 223.684 114.767C223.81 115.283 224.046 115.751 224.282 116.219C224.528 116.705 224.772 117.19 224.891 117.725C224.939 117.94 225.48 119.196 225.861 118.712C226.066 118.451 226.155 118.021 226.237 117.624C226.279 117.421 226.319 117.226 226.372 117.067C226.432 116.885 226.521 116.712 226.61 116.54C226.749 116.269 226.888 116 226.913 115.703C227.065 115.072 227.29 114.596 227.509 114.133C227.614 113.91 227.718 113.69 227.812 113.457C228.051 112.864 228.216 112.492 228.469 111.921L228.486 111.884C228.769 111.247 229.103 110.595 229.43 109.956C229.568 109.688 229.704 109.423 229.834 109.162C229.948 108.933 230.066 108.694 230.187 108.45L230.187 108.449C230.512 107.791 230.854 107.098 231.182 106.492C231.443 106.011 231.719 105.567 231.997 105.119C232.175 104.833 232.354 104.545 232.53 104.245C232.713 103.934 232.807 103.517 232.894 103.132C232.92 103.014 232.946 102.898 232.974 102.79C233.12 102.572 233.184 102.387 233.244 102.212C233.278 102.113 233.311 102.016 233.358 101.92C233.679 101.252 233.964 100.587 234.247 99.9015C234.785 98.5954 235.432 97.3767 236.093 96.1303C236.168 95.9899 236.243 95.8492 236.317 95.708C236.391 95.5692 236.467 95.4368 236.543 95.3062C236.761 94.9276 236.97 94.5645 237.074 94.1086C237.113 93.9378 237.136 93.7666 237.159 93.5982C237.213 93.2071 237.264 92.8309 237.501 92.5086C236.734 92.6312 235.605 92.5811 234.829 92.5034C234.208 92.4413 230.659 92.0309 230.059 91.8887C229.95 91.8629 229.853 91.853 229.768 91.8443C229.657 91.8329 229.564 91.8235 229.489 91.7829C229.128 91.5888 229.151 90.6828 229.284 85.4485C229.334 83.4449 229.401 80.8069 229.468 77.3322C229.885 76.8285 230.507 76.6953 231.11 76.566C231.262 76.5336 231.413 76.5013 231.558 76.4635C232.384 76.2495 232.639 76.2957 233.021 76.3649C233.267 76.4094 233.565 76.4635 234.103 76.4635C234.489 76.4635 234.891 76.501 235.292 76.5384C235.65 76.5718 236.007 76.605 236.349 76.6113C237.041 76.6241 238.981 77.6581 239.27 78.184L248.839 79.0826C250.106 79.3361 253.199 82.228 251.833 86.8882C251.592 87.4842 251.219 87.9861 250.819 88.4853C250.572 88.7945 250.276 89.0484 249.98 89.3029C249.764 89.4875 249.549 89.6724 249.352 89.8788C249.034 90.2103 248.773 90.5829 248.512 90.956C248.367 91.1627 248.222 91.3698 248.068 91.5699C247.133 93.2367 243.27 98.1745 242.64 98.8533C242.399 99.3493 241.507 100.861 240.712 102.208L240.712 102.208L240.712 102.209C240.021 103.379 239.404 104.425 239.35 104.573C239.143 105.143 238.788 105.693 238.446 106.222C238.331 106.4 238.218 106.576 238.112 106.749C238.068 106.822 238.02 106.896 237.972 106.972L237.972 106.973C237.717 107.372 237.438 107.812 237.417 108.277C237.401 108.643 237.305 109.033 237.198 109.382C237.042 109.892 236.815 110.377 236.587 110.863C236.33 111.412 236.073 111.961 235.917 112.549C235.802 112.982 235.61 113.367 235.415 113.757L235.415 113.757C235.314 113.959 235.213 114.161 235.122 114.372C234.933 114.809 234.819 115.259 234.703 115.713C234.675 115.825 234.647 115.937 234.617 116.049C234.507 116.467 234.37 116.884 234.234 117.301L234.234 117.302C234.148 117.564 234.063 117.825 233.984 118.087C233.887 118.407 233.827 118.73 233.766 119.053C233.714 119.328 233.663 119.604 233.589 119.877C233.121 121.605 232.74 123.387 232.446 125.153C232.229 126.455 232.113 127.768 231.997 129.081C231.853 130.707 231.71 132.332 231.374 133.934C231.21 134.718 231.012 135.479 230.779 136.243C230.682 136.562 230.537 136.751 230.363 136.979C230.311 137.048 230.255 137.12 230.198 137.2C230.096 137.343 230.004 137.49 229.913 137.636C229.678 138.013 229.448 138.382 229.065 138.643C229.03 138.667 228.997 138.689 228.966 138.711C228.927 138.739 228.89 138.765 228.855 138.79C228.606 138.966 228.439 139.085 228.074 139.2C227.94 139.242 227.806 139.29 227.672 139.337C227.408 139.431 227.142 139.525 226.87 139.581C226.497 139.658 226.093 139.646 225.704 139.635L225.703 139.635C225.606 139.633 225.511 139.63 225.417 139.629C223.7 139.321 221.963 136.445 221.325 135.389C221.267 135.293 221.218 135.212 221.179 135.15C220.749 134.458 220.394 133.716 220.038 132.973C219.562 131.978 219.085 130.981 218.425 130.101C217.639 129.054 217.023 127.89 216.407 126.726C215.739 125.463 215.07 124.2 214.184 123.083C213.377 122.065 212.707 120.667 212.04 119.277C211.415 117.973 210.793 116.676 210.063 115.703C209.025 116.617 208.41 119 208.214 120.351C208.064 121.38 207.823 122.324 207.428 123.294C206.963 124.437 206.642 125.715 206.347 126.908C206.209 127.469 206.02 128.022 205.831 128.575C205.697 128.967 205.563 129.36 205.448 129.754C205.319 130.192 205.22 130.634 205.122 131.076C205.014 131.558 204.906 132.041 204.759 132.52C204.15 134.505 203.664 136.415 203.587 138.508C203.572 138.895 203.547 139.29 203.522 139.688C203.428 141.16 203.331 142.681 203.763 144.063C203.922 144.573 203.991 145.146 203.991 145.679C203.991 146.159 204.089 146.627 204.188 147.096C204.247 147.376 204.305 147.656 204.343 147.939C204.541 149.403 204.895 151.865 205.152 152.79C205.179 152.886 205.207 152.985 205.236 153.086C205.396 153.639 205.57 154.246 205.57 154.795C205.57 155.619 205.686 156.398 205.802 157.172C205.895 157.799 205.989 158.422 206.019 159.064C206.166 159.812 206.26 160.599 206.353 161.386C206.441 162.12 206.529 162.854 206.659 163.557C206.762 164.116 206.762 164.676 206.761 165.233C206.76 165.876 206.759 166.517 206.918 167.152C207.133 168.01 207.398 174.363 207.599 179.164C207.688 181.278 207.763 183.092 207.817 184.002C207.875 185.003 207.758 185.862 207.646 186.684C207.561 187.309 207.478 187.912 207.478 188.54V198.585C207.478 202.693 207.474 206.781 207.283 210.879C207.244 211.723 207.164 212.563 207.084 213.403C206.971 214.578 206.859 215.752 206.859 216.934C206.859 218.608 206.74 220.283 206.446 221.934C205.841 225.336 205.827 228.649 205.827 232.094C205.827 233.362 205.775 234.624 205.724 235.887C205.672 237.15 205.621 238.414 205.621 239.686L205.612 255.073C205.579 255.404 205.561 255.747 205.544 256.093C205.502 256.923 205.46 257.764 205.197 258.476C205.191 258.737 205.168 258.995 205.145 259.253C205.119 259.552 205.093 259.851 205.093 260.154C205.093 260.258 205.096 260.364 205.1 260.471C205.111 260.787 205.123 261.112 205.041 261.406C204.963 261.688 204.9 261.959 204.839 262.223C204.667 262.966 204.508 263.653 204.049 264.371C203.957 264.514 203.868 264.655 203.782 264.794C203.197 265.726 202.694 266.529 201.751 267.129C199.634 268.476 196.915 268.657 194.381 268.49C194.839 269.241 194.727 271.496 194.636 273.335C194.552 275.032 194.486 276.373 194.901 275.851C195.017 275.706 195.144 275.565 195.271 275.424L195.272 275.423C195.491 275.18 195.711 274.937 195.877 274.665C196.097 274.308 196.306 273.974 196.655 273.72C197.493 273.108 198.475 273.733 198.828 274.57C198.972 274.911 199.183 275.224 199.393 275.535C199.649 275.916 199.905 276.295 200.036 276.723C200.266 277.477 200.955 278.311 201.495 278.876C202.872 280.313 204.316 281.452 206.105 282.346C207.448 283.018 208.933 283.385 210.398 283.748C210.795 283.846 211.19 283.944 211.581 284.047C211.956 284.146 212.327 284.273 212.699 284.401L212.7 284.401C213.205 284.574 213.711 284.747 214.227 284.85C215.013 285.008 215.556 285.528 215.556 286.363C215.556 287.943 214.341 289.657 213.004 290.421C211.846 291.083 210.571 291.284 209.285 291.487L209.282 291.488C208.986 291.534 208.69 291.581 208.394 291.634C206.892 291.901 205.311 291.878 203.762 291.856C203.336 291.85 202.912 291.844 202.493 291.844C202.032 291.844 201.569 291.84 201.104 291.837C199.153 291.822 197.176 291.806 195.258 292.054C192.858 292.363 190.468 292.146 188.075 291.927C187.376 291.864 186.676 291.8 185.975 291.749C185.855 291.779 185.79 291.805 185.758 291.825C185.734 291.799 185.676 291.761 185.555 291.707C185.376 291.628 185.192 291.596 185.01 291.565C184.824 291.532 184.639 291.5 184.458 291.419L184.383 291.385C183.937 291.185 183.486 290.983 183.151 290.61C182.998 290.44 182.873 290.21 182.75 289.982C182.664 289.822 182.578 289.664 182.484 289.528C181.635 288.309 181.817 286.757 181.987 285.298C182.036 284.884 182.083 284.478 182.106 284.089C182.169 283.008 182.566 281.799 182.993 280.829C183.162 280.444 183.211 280.036 183.26 279.626C183.303 279.267 183.346 278.907 183.471 278.561C183.731 277.837 184.377 276.225 185.125 275.851C187.257 277.248 186.896 273.269 186.663 270.693C186.552 269.469 186.47 268.562 186.698 268.701C187.821 268.252 189.659 267.737 190.517 268.252C190.884 268.252 191.288 268.257 191.701 268.261C191.872 268.263 192.045 268.265 192.217 268.267C191.649 268.185 191.084 268.086 190.52 267.987C189.911 267.88 189.301 267.772 188.689 267.687C187.536 267.527 186.321 267.529 185.147 267.531H185.145C185.018 267.531 184.892 267.532 184.767 267.532C184.321 267.532 183.898 267.571 183.465 267.611L183.464 267.611C183.355 267.621 183.245 267.632 183.134 267.641C183.049 267.649 182.91 267.719 182.759 267.795C182.439 267.956 182.067 268.144 182.044 267.82C181.984 266.964 182.005 266.042 182.025 265.142C182.034 264.7 182.044 264.263 182.044 263.842C182.044 260.882 182.044 257.883 181.71 254.946C181.483 252.955 181.263 250.995 181.104 249.005C180.93 246.836 180.736 244.641 180.279 242.51C178.84 243.333 177.783 244.208 176.726 245.466C176.237 246.048 175.727 246.619 175.216 247.191C174.382 248.125 173.545 249.061 172.796 250.052C170.602 252.95 168.372 255.546 165.551 257.855C165.314 258.049 165.062 258.266 164.8 258.494C163.637 259.499 162.249 260.699 160.869 260.938C159.978 261.092 158.79 260.994 157.77 260.734C156.779 261.598 155.801 262.475 154.825 263.351L154.821 263.354C154.276 263.843 153.732 264.331 153.187 264.816C153.138 264.859 153.056 264.925 152.952 265.008C152.337 265.499 150.987 266.577 151.687 266.948C152.126 267.18 152.673 267.203 153.209 267.226C153.549 267.241 153.885 267.255 154.187 267.323C155.064 267.518 155.316 268.293 155.561 269.047C155.619 269.226 155.676 269.404 155.742 269.572C156.391 271.241 155.932 273.026 155.504 274.69C155.46 274.862 155.416 275.033 155.374 275.202C155.135 276.158 154.936 277.336 154.936 278.32C154.936 279.04 155.274 279.763 155.594 280.449C155.717 280.713 155.838 280.971 155.936 281.222C156.405 282.42 157.012 283.551 157.62 284.683C158.02 285.429 158.421 286.176 158.783 286.942C159.194 287.815 159.56 288.973 159.56 289.941C159.56 291.126 159.365 291.842 158.435 292.566C157.028 293.66 154.187 293.015 152.944 291.842C151.284 291.54 149.822 290.299 148.432 289.12C147.801 288.584 147.184 288.06 146.571 287.644C146.071 286.45 145.051 285.536 143.924 284.832C142.688 284.059 141.735 282.974 140.792 281.899C140.592 281.672 140.393 281.445 140.192 281.222C139.864 280.857 139.484 280.266 139.111 279.684C138.78 279.167 138.453 278.656 138.17 278.32C137.904 278.002 137.665 277.469 137.418 276.922C137.115 276.245 136.801 275.546 136.414 275.202C136.06 274.888 135.803 274.516 135.545 274.142C135.32 273.816 135.093 273.488 134.8 273.195C134.463 272.858 134.348 272.583 134.216 272.268C134.136 272.076 134.049 271.868 133.901 271.622C133.766 271.397 133.704 271.33 133.631 271.253C133.508 271.122 133.357 270.961 132.778 269.954C132.6 269.645 132.428 269.561 132.279 269.489C132.103 269.404 131.959 269.334 131.879 268.926C131.546 268.202 131.345 267.902 131.244 267.752C131.189 267.67 131.164 267.633 131.164 267.595C131.163 267.563 131.18 267.531 131.211 267.472C131.257 267.385 131.333 267.238 131.43 266.948C131.69 266.167 132.1 266.063 132.618 265.932C132.994 265.836 133.428 265.726 133.901 265.331C134.182 265.097 134.408 264.873 134.618 264.665C135.129 264.157 135.541 263.747 136.414 263.534C136.604 263.487 136.78 263.445 136.943 263.406L136.952 263.404L136.953 263.404C138.657 262.995 138.844 262.95 138.844 261.961C139.744 261.961 139.838 261.528 139.916 261.164C139.962 260.953 140.002 260.766 140.192 260.699C140.585 260.562 140.85 260.537 141.094 260.515C141.409 260.486 141.689 260.46 142.162 260.199C142.417 260.059 142.686 259.853 142.965 259.639C143.544 259.194 144.17 258.714 144.814 258.714C145.054 258.714 145.25 258.86 145.45 259.008C145.64 259.15 145.833 259.294 146.071 259.318C146.583 259.369 146.919 259.006 147.243 258.656C147.311 258.583 147.378 258.511 147.445 258.443C147.975 257.913 148.635 257.463 149.279 257.025L149.279 257.024C149.547 256.842 149.811 256.662 150.063 256.478C150.327 256.286 150.584 256.194 150.836 256.171C150.806 256.151 150.778 256.134 150.751 256.12ZM167.596 156.628C167.05 155.049 166.627 153.828 166.478 153.447C166.105 152.75 165.904 151.776 165.71 150.84C165.583 150.223 165.459 149.623 165.291 149.131C164.951 148.129 166.33 148.335 167.231 148.47C167.477 148.507 167.687 148.538 167.817 148.538C169.126 148.538 170.4 148.277 171.677 148.015C172.588 147.828 173.499 147.641 174.425 147.549C174.94 147.497 175.45 147.385 175.957 147.273C176.171 147.225 176.394 147.2 176.616 147.176C176.885 147.146 177.153 147.116 177.403 147.047C177.67 146.973 177.974 146.747 178.277 146.523C178.968 146.011 179.652 145.505 179.863 146.821C180.011 147.738 179.982 148.577 179.953 149.459C179.946 149.668 179.939 149.879 179.934 150.095C179.917 150.84 179.73 151.52 179.541 152.211C179.457 152.519 179.372 152.829 179.301 153.148C179.14 153.87 178.794 154.482 178.447 155.096C178.255 155.435 178.062 155.775 177.9 156.136C177.674 156.638 177.366 157.068 177.054 157.504C176.961 157.634 176.867 157.765 176.775 157.898C176.557 158.215 176.361 158.548 176.166 158.88C175.976 159.204 175.786 159.528 175.575 159.836C175.429 160.05 175.268 160.265 175.105 160.482C174.801 160.89 174.491 161.304 174.259 161.734C174.201 161.843 174.142 161.953 174.084 162.064C173.843 162.515 173.598 162.974 173.336 163.406C173.256 163.537 173.172 163.667 173.087 163.799C172.815 164.22 172.535 164.652 172.392 165.124C172.353 165.251 172.295 165.436 172.229 165.65C172.027 166.297 171.743 167.21 171.645 167.601C171.008 166.485 168.931 160.486 167.596 156.628Z" fill="white"/>
<path fill-rule="evenodd" clip-rule="evenodd" d="M151.129 295.66C137.972 295.66 124.904 295.66 111.837 295.661C111.159 295.661 110.468 295.646 110.131 295.022C109.897 294.588 110.633 293.832 111.201 293.865C111.667 293.892 112.133 293.935 112.599 293.935C145.506 293.938 232.334 293.937 265.241 293.947C265.532 293.947 265.938 294.009 266.087 294.178C266.307 294.428 266.534 295.011 266.428 295.084C266.03 295.358 265.498 295.636 265.016 295.637C256.065 295.669 193.195 295.66 184.245 295.66C173.236 295.66 162.227 295.66 151.129 295.66Z" fill="black"/>
<path fill-rule="evenodd" clip-rule="evenodd" d="M85.261 296.104C77.1448 296.104 69.1181 296.105 61.0914 296.102C60.5877 296.101 60.0297 296.226 59.826 295.561C59.6222 294.895 59.9016 294.412 60.6439 294.325C60.8494 294.301 61.0611 294.321 61.27 294.321C75.175 294.321 89.08 294.322 102.985 294.319C103.627 294.319 104.272 294.261 104.245 295.125C104.223 295.798 103.824 296.104 102.896 296.104C97.0474 296.104 91.1989 296.104 85.261 296.104Z" fill="black"/>
<path d="M188.761 64.0171C188.179 64.3242 187.598 64.6312 187.016 64.9383C186.77 65.0681 186.457 64.8217 186.428 64.5454C186.399 64.2691 186.562 64.0094 186.746 63.8014C187.268 63.2119 188.024 62.8348 188.809 62.7718C188.987 62.7575 189.184 62.7645 189.32 62.88C189.512 63.0422 189.497 63.3589 189.356 63.5667C189.214 63.7746 188.983 63.8997 188.761 64.0171Z" fill="black"/>
<path d="M191.749 73.5993C192.075 73.275 192.709 73.4948 193.026 73.1616C193.297 72.8762 193.136 72.3985 192.893 72.0887C192.649 71.7789 192.324 71.4907 192.281 71.0993C192.237 70.7079 192.755 70.3017 193.014 70.5987C193.431 71.0777 193.81 71.6184 193.938 72.2405C194.065 72.8626 193.889 73.5806 193.373 73.9512C192.857 74.3218 192.001 74.182 191.749 73.5993Z" fill="black"/>
<path d="M197.135 67.8369C197.012 67.5841 196.996 67.2813 197.093 67.0174C197.154 66.8492 197.259 66.6973 197.395 66.5807C197.836 66.2026 198.595 66.293 198.934 66.764C199.273 67.235 199.118 67.9829 198.619 68.2802C198.121 68.5776 197.388 68.3589 197.135 67.8369Z" fill="black"/>
<path d="M189.457 66.0856C189.814 65.9997 190.207 66.0762 190.505 66.2899C190.743 66.4604 190.92 66.7147 190.997 66.9972C191.173 67.6492 190.736 68.4028 190.082 68.5732C189.428 68.7436 188.678 68.2994 188.513 67.6443C188.349 66.9891 188.8 66.2438 189.457 66.0856Z" fill="black"/>
<path d="M242.711 82.8053C242.72 82.4848 242.731 82.1542 242.865 81.8625C242.998 81.5707 243.286 81.3249 243.606 81.3432C243.927 81.3615 244.204 81.734 244.054 82.0177C243.543 82.9863 243.466 84.1742 243.85 85.2002C244.001 85.6043 243.317 85.8851 242.992 85.6016C242.667 85.318 242.654 84.8262 242.666 84.395C242.681 83.8651 242.696 83.3352 242.711 82.8053Z" fill="black"/>
<path d="M193.306 79.5725C192.25 80.616 190.578 80.9836 189.181 80.4792C187.785 79.9748 186.734 78.6239 186.59 77.1469C186.538 76.6125 186.644 75.9872 187.106 75.7129C187.745 75.3338 188.511 75.8642 189.136 76.2658C190.07 76.8664 191.164 77.216 192.273 77.2684C192.766 77.2918 193.323 77.2818 193.668 77.635C194.178 78.1585 193.826 79.0585 193.306 79.5725ZM193.234 78.4539C193.002 78.1277 192.539 78.0982 192.14 78.0678C190.759 77.9628 189.41 77.4714 188.285 76.664C188.052 76.4967 187.697 76.6605 187.579 76.9218C187.461 77.1832 187.52 77.4897 187.618 77.7592C188.014 78.8534 189.057 79.6849 190.213 79.8279C191.368 79.9708 192.583 79.4185 193.234 78.4539Z" fill="black"/>
<path d="M210.128 116.349C207.836 123.947 205.529 131.627 205.036 139.547C204.538 147.546 205.906 155.524 206.783 163.49C210.07 193.333 206.483 223.452 206.14 253.473C206.098 257.197 206.067 261.084 204.353 264.39C202.64 267.696 198.651 270.157 195.165 268.844C195.075 270.762 194.985 272.679 194.896 274.596C195.556 273.683 196.635 273.086 197.76 273.01C200.59 279.12 206.8 283.528 213.505 284.188C215.729 284.407 216.269 287.798 214.766 289.452C213.263 291.105 210.816 291.415 208.587 291.59C201.441 292.151 194.271 292.402 187.103 292.341C184.145 292.315 181.849 289.431 181.425 286.505C181.001 283.579 181.971 280.65 182.927 277.852C183.5 276.173 186.018 274.435 186.481 276.147C186.262 273.67 186.042 271.193 185.823 268.716C184.552 268.597 183.28 268.478 182.009 268.36C181.491 260.053 180.973 251.746 180.455 243.44C173.941 247.758 170.209 255.558 163.371 259.343C159.459 261.508 154.428 262.492 152.221 266.38C155.113 266.517 156.621 270.004 156.541 272.896C156.461 275.787 155.501 278.744 156.337 281.514C157.421 285.102 161.361 288.601 159.409 291.802C157.494 294.943 152.626 293.158 149.755 290.857C141.732 284.429 135.095 276.283 130.421 267.13C134.938 263.413 140.008 260.369 145.412 258.129C147.085 259.004 149.454 257.634 149.528 255.748C146.053 253.894 144.738 249.367 145.434 245.492C146.129 241.617 148.395 238.234 150.609 234.978C156.046 226.978 161.483 218.978 166.921 210.978C170.834 205.221 174.894 198.002 171.894 191.721C146.772 224.125 121.65 256.529 96.5273 288.932C94.7079 291.279 90.2672 289.784 89.8162 286.85C89.3652 283.916 92.4071 281.194 95.3657 281.459C89.2671 276.909 83.1685 272.36 77.0699 267.811C75.8873 266.929 74.6145 265.905 74.3646 264.452C74.102 262.924 75.0614 261.481 75.9784 260.231C84.2214 248.994 92.9251 238.095 102.06 227.57C104.722 224.504 107.506 221.402 111.112 219.534C114.717 217.667 119.368 217.272 122.7 219.592C127.646 223.037 132.591 226.481 137.537 229.926C147.308 217.235 157.079 204.544 166.85 191.853C163.233 186.397 166.93 179.096 166.145 172.598C165.289 165.501 159.089 159.812 158.635 152.678C158.412 149.193 155.517 146.448 152.442 144.79C149.366 143.132 145.918 142.164 143.049 140.171C136.572 135.67 134.456 126.654 136.197 118.964C137.937 111.273 142.826 104.69 148.079 98.8072C153.332 92.9247 159.118 87.4234 163.278 80.7237C167.095 74.5755 169.408 67.6295 172.644 61.1573C175.881 54.6851 180.356 48.4168 186.903 45.3269C193.449 42.237 202.391 43.3673 206.407 49.3877C209.645 54.2423 208.951 60.7152 207.212 66.2848C205.473 71.8543 202.801 77.2386 202.413 83.0603C202.026 88.8819 204.804 95.5245 210.423 97.1061C219.015 99.5245 222.72 109.398 225.182 117.974C229.211 109.653 233.24 101.332 237.27 93.0118C234.44 92.7377 231.611 92.4635 228.782 92.1894C228.818 87.4324 229.062 82.7234 229.141 77.976C229.155 77.0685 229.848 76.3022 230.752 76.229C240.493 75.4409 237.394 79.2633 247.31 78.1754C248.687 78.3905 250.246 79.6843 251.309 80.5842C254.561 83.3378 251.484 88.4574 248.688 91.6727C239.358 102.402 233.473 116.078 232.099 130.227C231.881 132.472 231.753 134.803 230.715 136.806C229.678 138.81 227.418 140.394 225.228 139.846C223.277 139.357 222.082 137.447 221.091 135.697C217.436 129.248 213.782 122.799 210.128 116.349ZM157.128 259.168C158.197 259.68 159.359 260.144 160.534 259.995C162.008 259.808 163.18 258.712 164.237 257.669C167.341 254.61 170.425 251.532 173.492 248.435C182.7 239.138 192.126 228.971 194.86 216.177C195.589 212.766 195.811 209.269 196.032 205.787C196.523 198.042 197.013 190.257 196.251 182.533C195.864 178.601 195.215 174.348 197.192 170.926C197.25 177.844 197.308 184.761 197.367 191.679C197.431 199.277 197.491 206.927 196.15 214.406C194.809 221.886 191.967 229.267 186.871 234.905C184.162 237.902 180.577 241.137 181.254 245.119C182.452 252.172 182.823 259.365 182.356 266.503C182.317 267.102 183.087 267.37 183.684 267.436C188.832 268.005 194.043 268.009 199.192 267.447C200.979 267.253 203.2 266.556 203.358 264.767C206.101 233.899 207.243 202.89 206.779 171.904C206.696 166.412 206.555 160.86 205.137 155.554C204.993 155.016 204.58 154.344 204.064 154.553C196.31 157.694 187.19 157.272 179.759 153.428C177.568 157.065 175.5 160.776 173.56 164.553C172.468 166.68 171.398 169.173 172.328 171.376C174.09 175.547 174.398 180.316 173.187 184.679C172.431 187.407 171.179 190.589 172.92 192.821C174.677 195.073 174.785 198.271 173.924 200.994C173.064 203.718 171.366 206.085 169.72 208.42C161.081 220.676 153.16 233.438 146.013 246.62C144.868 248.731 146.496 251.261 148.214 252.94C150.818 255.484 153.843 257.597 157.128 259.168ZM180.545 96.887C180.106 96.5213 179.64 96.1396 179.077 96.0437C178.555 95.9549 178.028 96.1252 177.527 96.2932C175.877 96.8457 174.228 97.3982 172.579 97.9506C171.151 98.4289 169.696 98.9213 168.493 99.826C167.066 100.899 166.106 102.465 165.206 104.007C163.924 106.202 162.691 108.425 161.509 110.676C161.285 111.102 161.057 111.554 161.076 112.035C161.095 112.526 161.369 112.968 161.643 113.376C163.987 116.864 167.018 119.888 170.512 122.225C170.641 122.311 170.777 122.398 170.932 122.41C171.142 122.426 171.334 122.299 171.5 122.169C173.73 120.424 174.524 117.078 173.316 114.518C173.789 114.199 174.282 114.902 174.423 115.455C177.499 127.458 179.498 139.736 180.388 152.095C180.46 153.098 181.629 153.582 182.604 153.835C186.169 154.76 189.792 155.595 193.475 155.674C197.158 155.754 200.94 155.031 204.042 153.044C204.316 152.869 204.619 152.59 204.522 152.281C202.588 146.161 202.565 139.564 203.563 133.225C204.562 126.886 206.549 120.749 208.587 114.664C208.73 114.235 209.066 113.705 209.491 113.861C210.158 115.801 211.561 117.478 213.352 118.48C216.081 116.226 219.372 114.656 222.841 113.954C221.538 111.05 220.234 108.146 218.93 105.242C218.134 103.468 217.293 101.633 215.812 100.372C214.298 99.0838 212.299 98.5518 210.373 98.0566C206.636 97.0955 202.899 96.1345 199.161 95.1734C198.401 94.9779 197.504 94.8106 196.905 95.3175C196.253 95.8693 196.342 96.8759 196.434 97.7247C196.769 100.781 196.411 103.91 195.395 106.812C195.327 107.007 195.242 107.217 195.061 107.316C194.787 107.465 194.456 107.287 194.197 107.113C189.473 103.943 184.914 100.529 180.545 96.887ZM156.118 144.913C152.894 132.665 156.237 119.571 161.588 108.09C163.017 105.023 164.622 101.976 166.965 99.5322C169.307 97.0885 172.495 95.2863 175.881 95.2575C180.24 95.2204 183.145 90.4741 183.526 86.1342C183.907 81.7943 182.684 77.4318 183.069 73.0923C183.274 70.7862 183.929 68.5472 184.386 66.2775C184.756 64.4408 184.998 62.5783 185.109 60.708C185.131 60.3253 185.137 59.904 184.896 59.6058C184.522 59.1442 183.815 59.2372 183.222 59.2163C182.628 59.1953 181.89 58.7369 182.113 58.187C188.851 59.3902 196.072 57.5564 201.418 53.2849C201.936 54.7978 198.713 55.6365 199.187 57.1638C200.69 62.0022 201.734 67.0803 201.224 72.1209C200.714 77.1615 198.489 82.191 194.448 85.2498C194.037 85.5606 193.584 85.8846 193.429 86.3755C193.309 86.7537 193.391 87.1625 193.474 87.5504C194.08 90.397 195.252 93.8164 198.126 94.288C200.494 94.6767 202.862 95.0653 205.231 95.454C203.281 93.7213 201.92 91.3388 201.418 88.7802C201.004 86.6733 201.162 84.4919 201.529 82.3764C202.37 77.5262 204.28 72.9363 205.681 68.2172C207.082 63.4981 207.973 58.436 206.73 53.6729C205.487 48.9098 201.703 44.8062 196.808 44.2593C195.168 44.0761 193.449 44.065 191.861 44.5111C183.959 46.7301 178.3 53.7098 174.525 60.9944C170.751 68.279 168.294 76.2488 163.848 83.1441C160.064 89.0113 154.973 93.8939 150.206 98.9947C145.438 104.095 140.867 109.612 138.476 116.171C136.086 122.73 136.209 130.562 140.345 136.187C143.986 141.138 150.099 143.662 156.118 144.913ZM115.887 219.486C111.589 220.673 107.604 222.972 104.424 226.097C102.858 227.636 101.492 229.364 100.13 231.087C92.3185 240.968 84.5074 250.849 76.6963 260.729C76.0239 261.58 75.3182 262.523 75.3282 263.607C75.3421 265.111 76.6921 266.214 77.9167 267.089C78.8979 267.79 79.8792 268.491 80.8604 269.192C81.2827 269.494 81.9248 269.775 82.2554 269.375C95.3377 253.544 108.42 237.713 121.502 221.882C121.832 221.482 122.362 221.043 122.802 221.316C123.325 221.641 122.972 222.444 122.58 222.918C109.54 238.68 96.4991 254.441 83.4585 270.202C83.0748 270.666 83.6031 271.318 84.0851 271.679C85.4652 272.712 86.8452 273.745 88.2253 274.778C88.455 274.95 88.7204 275.132 89.0034 275.084C89.2561 275.042 89.4402 274.829 89.6017 274.631C102.852 258.323 116.101 242.015 129.351 225.707C126.614 223.74 123.877 221.773 121.14 219.806C119.665 218.746 117.638 219.002 115.887 219.486ZM90.8192 276.736C93.3929 278.696 95.9665 280.655 98.5402 282.614C98.7268 282.756 98.9368 282.906 99.1707 282.888C99.4463 282.867 99.6456 282.625 99.8104 282.404C112.427 265.434 125.045 248.464 137.662 231.494C135.502 229.967 133.343 228.44 131.184 226.913C131.018 226.795 130.827 226.671 130.626 226.706C130.443 226.738 130.31 226.892 130.193 227.036C117.026 243.225 103.859 259.415 90.6914 275.605C90.545 275.785 90.3898 275.994 90.4212 276.224C90.4512 276.444 90.6422 276.602 90.8192 276.736ZM164.853 134.41C165.483 132.428 166.409 130.554 167.395 128.723C168.356 126.938 169.377 125.186 170.456 123.471C166.682 120.442 162.828 117.326 160.32 113.189C158.46 118.488 156.711 123.88 156.12 129.465C154.789 142.04 159.404 154.461 164.828 165.885C166.028 168.414 167.297 171.016 167.402 173.814C167.502 176.478 166.533 179.057 166.194 181.701C165.761 185.079 166.386 188.584 167.961 191.604C168.223 192.107 168.545 192.627 169.067 192.847C169.589 193.068 170.338 192.8 170.393 192.236C170.612 190.033 171.489 187.956 172.035 185.81C173.482 180.123 172.559 174.084 170.899 168.455C169.239 162.826 166.856 157.425 165.307 151.765C163.758 146.104 163.074 140.003 164.853 134.41ZM194.934 83.6586C196.235 82.7609 197.057 81.3286 197.72 79.8945C199.302 76.475 200.231 72.7553 200.443 68.994C200.488 68.1929 200.498 67.3681 200.223 66.6141C199.948 65.8602 199.332 65.1832 198.54 65.0512C198.089 64.976 198.144 64.2174 198.555 64.018C198.967 63.8186 199.453 63.9918 199.876 64.1656C199.746 62.0345 199.271 59.9248 198.477 57.9426C198.279 57.4486 197.835 56.8636 197.348 57.0777C194.095 58.5062 190.568 59.3055 187.017 59.4182C186.373 59.4387 186.268 60.341 186.311 60.9836C186.665 66.3245 182.833 71.4961 183.986 76.7232C185.303 82.6953 184.802 89.3799 181.135 94.2759C180.897 94.5943 180.632 94.9769 180.753 95.3554C180.825 95.5778 181.016 95.737 181.199 95.8832C185.554 99.3737 189.981 102.775 194.475 106.085C195.435 103.527 195.483 100.732 195.519 97.9999C195.542 96.2986 195.546 94.516 194.755 93.0093C194.257 92.0599 193.464 91.2693 193.095 90.2624C192.79 89.4277 192.803 88.5135 192.619 87.644C192.435 86.7744 191.962 85.8653 191.116 85.5922C189.8 85.1676 188.551 84.539 187.426 83.7357C187.044 83.4627 186.642 83.1051 186.634 82.6357C186.625 82.1663 187.322 81.7856 187.575 82.1809C189.082 84.5303 192.636 85.2441 194.934 83.6586ZM223.508 127.105C222.825 126.36 223.28 125.185 223.683 124.259C224.912 121.432 225.278 117.962 223.567 115.398C223.421 115.179 223.242 114.956 222.988 114.886C222.783 114.83 222.566 114.885 222.362 114.942C219.569 115.723 216.911 116.984 214.54 118.652C214.19 118.899 213.803 119.32 214.013 119.693C216.859 124.762 219.496 129.949 221.915 135.235C222.388 136.269 222.869 137.33 223.663 138.144C224.458 138.958 225.647 139.487 226.745 139.186C228.358 138.744 229.025 136.865 229.448 135.247C231.453 127.562 233.459 119.876 235.464 112.19C236.252 109.173 237.045 106.137 238.353 103.306C239.661 100.475 241.524 97.8311 244.089 96.0549C246.074 94.6799 247.46 92.4708 247.835 90.086C245.117 89.4871 242.188 89.9026 239.744 91.2336C239.164 91.5495 238.587 91.9403 238.282 92.5257C238.003 93.0601 237.986 93.686 237.924 94.2853C237.446 98.895 234.094 102.592 231.65 106.53C228.574 111.489 226.834 117.142 225.204 122.744C224.766 124.247 224.326 125.771 223.508 127.105ZM178.775 144.886C177.753 136.795 176.725 128.674 174.612 120.796C172.165 124.554 169.706 128.333 167.895 132.435C166.084 136.537 164.934 141.015 165.243 145.488C165.289 146.151 165.408 146.888 165.937 147.29C166.262 147.536 166.685 147.607 167.09 147.658C170.786 148.127 174.604 147.596 178.032 146.136C178.305 146.02 178.597 145.878 178.727 145.611C178.834 145.39 178.805 145.13 178.775 144.886ZM151.62 271.425C150.173 270.541 149.778 268.086 148.084 267.992C146.36 267.895 145.217 266.079 144.969 264.372C144.72 262.664 145.053 260.909 144.775 259.206C144.757 259.094 144.729 258.97 144.635 258.906C144.491 258.808 144.299 258.907 144.155 259.005C141.348 260.921 138.54 262.837 135.732 264.753C139.065 265.974 140.758 269.565 142.386 272.718C143.97 275.787 145.796 278.731 147.842 281.515C148.21 282.015 148.748 282.571 149.345 282.4C151.332 281.832 153.51 281.956 155.42 282.744C155.339 281.235 153.938 279.92 152.427 279.934C152.026 279.938 152.023 279.241 152.384 279.067C152.746 278.893 153.17 279.061 153.544 279.206C153.918 279.352 154.38 279.462 154.689 279.207C154.667 278.767 154.645 278.328 154.623 277.888C153.495 277.834 152.393 277.357 151.581 276.573C152.141 275.469 154.374 277.508 154.896 276.386C154.212 275.421 153.075 274.792 151.893 274.726C151.653 274.247 152.429 273.864 152.938 274.031C153.447 274.197 153.942 274.591 154.456 274.442C155.338 274.186 155.022 272.746 154.218 272.303C153.414 271.86 152.403 271.904 151.62 271.425ZM202.669 280.884C202.529 280.206 201.573 279.866 201.036 280.304C200.726 280.558 200.579 280.982 200.242 281.199C199.906 281.416 199.283 281.097 199.499 280.759C200.146 280.542 200.491 279.766 200.368 279.094C200.245 278.422 199.749 277.868 199.171 277.504C198.252 278.202 197.054 278.521 195.91 278.372C194.837 278.232 193.984 279.185 193.071 279.764C191.486 280.771 189.259 280.635 187.807 279.443C186.638 278.483 185.986 276.964 184.71 276.151C183.731 279.027 183.091 282.019 182.809 285.044C182.777 285.387 182.912 285.885 183.248 285.805C188.903 284.471 194.78 286.097 200.412 287.526C201.33 287.759 202.553 287.86 202.978 287.013C203.716 285.543 205.046 284.379 206.602 283.842C206.576 283.232 205.668 283.102 205.144 283.416C204.62 283.73 204.234 284.282 203.647 284.453C203.262 284.329 203.388 283.723 203.697 283.463C204.006 283.202 204.442 283.028 204.557 282.641C204.738 282.033 204.007 281.579 203.409 281.367C203.131 282.205 202.213 282.78 201.337 282.664C201.781 282.071 202.225 281.478 202.669 280.884ZM165.597 148.55C165.756 150.483 166.399 152.338 167.037 154.169C168.541 158.49 170.045 162.81 171.549 167.13C172.444 163.519 174.719 160.438 176.587 157.22C178.455 154.002 179.985 150.266 179.176 146.634C174.94 148.502 170.184 149.173 165.597 148.55ZM156.642 292.516C157.137 292.587 157.819 292.492 157.872 291.995C153.331 289.986 149.952 286.051 147.07 282.01C144.558 278.487 142.296 274.786 140.308 270.944C139.421 269.23 138.52 267.409 136.918 266.333C135.316 265.257 132.77 265.317 131.794 266.982C131.63 267.262 131.814 267.611 131.993 267.881C135.875 273.731 139.776 279.606 144.507 284.793C147.805 288.408 151.797 291.819 156.642 292.516ZM236.978 91.231C237.058 91.2271 237.14 91.2225 237.212 91.187C237.414 91.0869 237.432 90.8101 237.421 90.5846C237.226 86.4482 237.03 82.3118 236.835 78.1754C236.818 77.8304 236.409 77.9171 236.081 77.811C235.752 77.7049 235.43 77.7471 235.086 77.7787C233.645 77.9109 232.204 78.0432 230.763 78.1754C230.345 78.2138 230.297 78.3801 230.282 78.7998C230.148 82.6286 230.014 86.4573 229.88 90.2861C229.87 90.5441 229.865 90.8171 229.991 91.0423C230.248 91.4993 230.882 91.531 231.406 91.5052C233.263 91.4138 235.12 91.3224 236.978 91.231ZM212.966 289.018C210.657 288.075 208.053 288.739 205.563 288.888C198.7 289.297 192.013 285.658 185.177 286.396C184.367 286.483 183.488 286.676 182.989 287.318C182.221 288.307 182.832 289.861 183.897 290.519C184.962 291.177 186.289 291.19 187.541 291.183C193.281 291.152 199.02 291.12 204.759 291.088C207.648 291.072 210.82 290.952 212.966 289.018ZM150.897 256.593C150.821 256.549 150.742 256.504 150.655 256.502C150.504 256.498 150.382 256.617 150.28 256.728C149.182 257.923 148.084 259.117 146.986 260.312C146.737 260.583 146.485 260.858 146.313 261.184C146.112 261.567 146.033 262.001 145.986 262.431C145.863 263.555 145.962 264.744 146.535 265.72C147.108 266.695 148.231 267.399 149.351 267.237C150.746 267.036 151.622 265.693 152.595 264.674C154.077 263.124 156.143 262.096 157.202 260.232C155.1 259.019 152.998 257.806 150.897 256.593ZM193.654 277.89C193.871 277.611 194.05 277.296 194.133 276.952C194.27 276.384 194.136 275.791 194.045 275.214C193.767 273.448 193.9 271.648 194.001 269.863C194.027 269.398 193.884 268.752 193.418 268.782C191.473 268.905 189.513 268.809 187.589 268.496C187.318 268.452 187.07 268.7 187.008 268.967C186.947 269.235 187.02 269.513 187.088 269.779C187.623 271.899 187.779 274.115 187.548 276.289C187.51 276.646 187.461 277.009 187.533 277.361C187.652 277.944 188.089 278.419 188.588 278.743C190.165 279.768 192.501 279.375 193.654 277.89ZM247.31 88.952C247.768 89.0336 248.311 89.1217 248.637 88.7898C247.274 88.0795 246.263 86.7271 245.97 85.219C245.676 83.7109 246.105 82.0786 247.102 80.9091C247.192 80.8024 247.292 80.6901 247.309 80.5511C247.326 80.412 247.21 80.2499 247.074 80.2807C245.149 80.7131 243.174 80.9198 241.202 80.8949C240.909 80.8912 240.594 80.8885 240.352 81.0534C239.917 81.3489 239.947 81.9875 240.026 82.5071C240.357 84.6842 240.238 86.412 240.569 88.5891C240.581 88.6672 240.593 88.7467 240.629 88.8172C240.797 89.1523 241.292 89.0579 241.646 88.9324C243.308 88.3429 245.574 88.6426 247.31 88.952ZM158.907 290.175C158.71 288.195 158.006 286.268 156.88 284.627C156.736 284.417 156.583 284.209 156.386 284.046C156.147 283.849 155.855 283.727 155.563 283.621C153.919 283.025 152.13 282.83 150.396 283.06C150.047 283.106 149.607 283.277 149.627 283.628C149.634 283.765 149.716 283.885 149.797 283.996C151.884 286.88 154.627 289.288 157.759 290.983C158.022 291.126 158.343 291.264 158.607 291.125C158.92 290.959 158.942 290.526 158.907 290.175ZM93.3418 289.279C95.0844 289.745 97.0906 288.514 97.4632 286.75C97.8357 284.986 96.4985 283.049 94.716 282.772C94.0091 282.662 93.2674 282.787 92.6359 283.123C91.5085 283.724 90.7907 285.018 90.879 286.292C90.9742 287.665 92.0112 288.923 93.3418 289.279ZM215.14 286.514C215.102 286.216 215.04 285.912 214.873 285.663C214.393 284.949 213.353 285.002 212.493 285.042C211.046 285.108 209.588 284.906 208.214 284.449C207.4 284.178 206.535 284.64 205.835 285.135C204.953 285.758 204.096 286.507 203.713 287.517C204.614 287.929 205.657 287.788 206.641 287.681C208.25 287.506 209.872 287.444 211.49 287.496C212.27 287.521 213.067 287.577 213.784 287.884C213.956 287.958 214.129 288.048 214.316 288.056C214.649 288.069 214.947 287.809 215.072 287.5C215.197 287.191 215.182 286.844 215.14 286.514ZM250.341 88.0724C250.971 87.8992 251.298 87.2116 251.469 86.5812C251.89 85.0234 251.824 83.2794 250.998 81.8925C250.549 81.1373 249.719 80.4609 248.865 80.67C248.317 80.804 247.906 81.2817 247.706 81.8083C247.507 82.3349 247.487 82.9101 247.481 83.4731C247.471 84.3432 247.491 85.2295 247.765 86.0557C248.038 86.8819 248.602 87.6513 249.408 87.9793C249.703 88.0992 250.035 88.1568 250.341 88.0724ZM155.272 269.31C155.276 269.114 155.278 268.91 155.192 268.734C155.024 268.389 154.595 268.278 154.218 268.205C153.425 268.052 152.633 267.899 151.84 267.747C151.265 267.635 150.466 267.657 150.333 268.228C150.262 268.534 150.447 268.837 150.64 269.085C151.5 270.187 152.707 271.015 154.045 271.422C154.428 271.538 154.932 271.579 155.144 271.238C155.236 271.089 155.242 270.903 155.246 270.728C155.255 270.255 155.263 269.782 155.272 269.31ZM198.392 277.11C198.514 277.051 198.639 276.985 198.72 276.876C198.91 276.622 198.785 276.262 198.639 275.981C198.283 275.3 197.825 274.673 197.286 274.127C197.208 274.048 197.115 273.965 197.004 273.967C196.87 273.969 196.772 274.092 196.698 274.204C196.134 275.052 195.689 275.98 195.378 276.95C195.282 277.251 195.231 277.651 195.498 277.821C196.498 277.787 197.49 277.543 198.392 277.11Z" fill="black"/>
<path d="M95.0718 73.8768C96.0711 72.7434 97.0042 71.6456 97.983 70.5902C98.1644 70.3947 98.5301 70.3702 98.8107 70.2667C98.7123 70.5236 98.6665 70.8207 98.5064 71.0305C97.7436 72.03 96.9076 72.9768 96.1971 74.0106C96.0242 74.2622 96.075 74.9335 96.2862 75.1327C96.905 75.7164 97.639 76.1875 98.3665 76.6407C98.5884 76.779 99.0329 76.85 99.2079 76.7222C99.8662 76.2416 100.469 75.6801 101.051 75.1066C101.115 75.044 100.967 74.6397 100.817 74.5101C100.234 74.0062 99.5884 73.5734 99.0135 73.0612C98.8221 72.8906 98.7725 72.561 98.658 72.3041C98.9345 72.3204 99.274 72.2399 99.4759 72.3711C100.093 72.772 100.668 73.2413 101.24 73.7079C102.328 74.5955 102.3 75.3221 101.176 76.2324C100.72 76.6012 100.257 76.965 99.8405 77.3755C99.3056 77.9033 98.7831 77.9159 98.1848 77.4992C97.3808 76.9392 96.5294 76.4432 95.7547 75.8465C95.1519 75.3822 94.6677 74.794 95.0718 73.8768Z" fill="#92763A"/>
<path d="M277.462 183.566C276.692 183.468 275.455 182.426 275.298 181.735C274.963 180.259 275.36 179.05 276.554 178.512C277.225 178.21 278.031 178.152 278.783 178.115C279.02 178.103 279.278 178.515 279.526 178.733C279.196 178.822 278.829 179.048 278.541 178.973C277.858 178.794 277.308 178.888 276.756 179.326C275.944 179.97 275.959 181.201 276.305 181.887C276.784 182.837 277.68 182.773 278.501 182.686C279.146 182.618 280.073 181.68 279.955 180.775C279.919 180.501 280.191 180.187 280.323 179.891C280.46 180.181 280.705 180.467 280.717 180.761C280.785 182.556 279.295 183.861 277.462 183.566Z" fill="#92763A"/>
<path d="M203.014 166.927C202.564 153.223 207.314 182.642 207.367 183.553C207.426 184.554 207.309 185.413 207.197 186.235L207.196 186.235C207.111 186.86 207.029 187.463 207.029 188.09V198.136C207.029 202.244 207.025 206.331 206.834 210.429C206.795 211.273 206.714 212.114 206.634 212.954L206.634 212.954C206.522 214.129 206.41 215.303 206.41 216.484C206.41 218.158 206.29 219.833 205.997 221.484C205.392 224.886 205.378 228.199 205.378 231.645C205.378 232.913 205.326 234.175 205.274 235.437V235.437C205.223 236.701 205.171 237.965 205.171 239.236L205.162 254.623C205.129 254.954 205.112 255.298 205.095 255.644C205.053 256.473 205.011 257.315 204.747 258.027C204.741 258.288 204.719 258.546 204.696 258.804C204.67 259.103 204.643 259.402 204.643 259.705C204.643 259.809 204.647 259.915 204.651 260.022C204.662 260.337 204.673 260.662 204.591 260.957C204.513 261.239 204.451 261.509 204.39 261.773C204.218 262.517 204.059 263.204 203.599 263.921C203.508 264.064 203.42 264.204 203.334 264.342L203.332 264.344C202.748 265.276 202.244 266.079 201.301 266.679C199.185 268.026 196.801 267.44 193.887 267.578C173.73 268.534 201.975 260.389 199.055 228.037C205.095 219.275 203.233 173.625 203.014 166.927Z" fill="#E7EAEE"/>
</svg>
