<svg width="13" height="14" viewBox="0 0 13 14" fill="none" xmlns="http://www.w3.org/2000/svg">
<path d="M6.37303 1.4C5.62182 1.4 4.90137 1.695 4.37018 2.2201C3.83899 2.7452 3.54057 3.45739 3.54057 4.2C3.54057 4.94261 3.83899 5.6548 4.37018 6.1799C4.90137 6.705 5.62182 7 6.37303 7C7.12425 7 7.8447 6.705 8.37589 6.1799C8.90707 5.6548 9.20549 4.94261 9.20549 4.2C9.20549 3.45739 8.90707 2.7452 8.37589 2.2201C7.8447 1.695 7.12425 1.4 6.37303 1.4ZM2.12434 4.2C2.12434 3.08609 2.57197 2.0178 3.36876 1.23015C4.16554 0.442499 5.24621 0 6.37303 0C7.49986 0 8.58053 0.442499 9.37731 1.23015C10.1741 2.0178 10.6217 3.08609 10.6217 4.2C10.6217 5.31391 10.1741 6.3822 9.37731 7.16985C8.58053 7.9575 7.49986 8.4 6.37303 8.4C5.24621 8.4 4.16554 7.9575 3.36876 7.16985C2.57197 6.3822 2.12434 5.31391 2.12434 4.2ZM3.54057 11.2C2.97716 11.2 2.43683 11.4212 2.03844 11.8151C1.64004 12.2089 1.41623 12.743 1.41623 13.3C1.41623 13.4857 1.34162 13.6637 1.20883 13.795C1.07603 13.9263 0.895919 14 0.708115 14C0.520311 14 0.340199 13.9263 0.207402 13.795C0.0746047 13.6637 0 13.4857 0 13.3C0 12.3717 0.373024 11.4815 1.03701 10.8251C1.701 10.1687 2.60156 9.8 3.54057 9.8H9.20549C10.1445 9.8 11.0451 10.1687 11.7091 10.8251C12.373 11.4815 12.7461 12.3717 12.7461 13.3C12.7461 13.4857 12.6715 13.6637 12.5387 13.795C12.4059 13.9263 12.2258 14 12.038 14C11.8501 14 11.67 13.9263 11.5372 13.795C11.4044 13.6637 11.3298 13.4857 11.3298 13.3C11.3298 12.743 11.106 12.2089 10.7076 11.8151C10.3092 11.4212 9.7689 11.2 9.20549 11.2H3.54057Z" fill="#0D0D0D"/>
</svg>
